<?xml version="1.0" encoding="UTF-8" standalone="no"?>
<svg
   viewBox="0 0 64 64"
   version="1.1"
   id="svg13537"
   sodipodi:docname="folder-paint.svg"
   inkscape:version="1.2.2 (b0a8486541, 2022-12-01)"
   xmlns:inkscape="http://www.inkscape.org/namespaces/inkscape"
   xmlns:sodipodi="http://sodipodi.sourceforge.net/DTD/sodipodi-0.dtd"
   xmlns="http://www.w3.org/2000/svg"
   xmlns:svg="http://www.w3.org/2000/svg">
  <sodipodi:namedview
     id="namedview13539"
     pagecolor="#ffffff"
     bordercolor="#000000"
     borderopacity="0.25"
     inkscape:showpageshadow="2"
     inkscape:pageopacity="0.0"
     inkscape:pagecheckerboard="0"
     inkscape:deskcolor="#d1d1d1"
     showgrid="false"
     inkscape:zoom="3.6875"
     inkscape:cx="19.254237"
     inkscape:cy="32.135593"
     inkscape:window-width="1920"
     inkscape:window-height="1002"
     inkscape:window-x="0"
     inkscape:window-y="0"
     inkscape:window-maximized="1"
     inkscape:current-layer="svg13537" />
  <defs
     id="defs3051">
    <style
       type="text/css"
       id="current-color-scheme">
      .ColorScheme-Text {
        color:#232629;
      }
      .ColorScheme-Highlight {
        color:#3daee9;
      }
      </style>
  </defs>
  <path
     style="color:#3daee9;fill:#00171e;fill-opacity:1;stroke:none"
     d="M 4,5.9999993 V 11 20 H 3 v 1 H 3.002 C 3.001953,21.004 3,21.008 3,21.01172 v 35.988281 1 h 1 56 1 v -1 V 21.01172 21 16 h -1 v -4.990234 c 0,-0.003 -0.002,-0.0058 -0.002,-0.0098 H 60 V 9.9999993 H 32 l -4,-4 z"
     class="ColorScheme-Highlight"
     id="path4" />
  <path
     style="fill:#3daee9;fill-opacity:1;fill-rule:evenodd"
     d="M 4,5.9999993 V 11 20 h 18 l 4,-4 h 34 v -4.990234 c 0,-0.003 -0.002,-0.0058 -0.002,-0.0098 H 60 V 9.9999993 H 32 l -4,-4 z"
     id="path6" />
  <path
     style="fill:#ffffff;fill-opacity:0.2;fill-rule:evenodd"
     d="M 28,5.9999993 31,11 h 2 27 V 9.9999993 H 33 32 Z M 26,16 22,20 H 3 v 1 h 20 z"
     id="path8" />
  <path
     style="color:#31363b;fill-opacity:0.2;fill-rule:evenodd"
     d="m 26,16 -6,3 H 4 v 1 H 22 Z M 3,57 v 1 h 1 56 1 V 57 H 60 4 Z"
     class="ColorScheme-Text"
     id="path10" />
  <path
     style="color:#232629;fill:#ffffff;fill-opacity:0.96541077;stroke:none"
     d="m 45.249637,22.428319 c -1.8,0.2 -16.2,15.3 -16.2,15.3 l -4.6,5.1 c -0.6,0.2 -1.748,0.022 -2.4,0.3 -1.6,0.6 -2.6,1.279 -3.4,3.5 -0.7,1.9 1.3,5.16 3,4.6 -0.8,0 -1.8,-1.1 -1.3,-1.9 1,-1.9 4.95,-1.483 4.8,-5.7 l 5,-4.7 c 0,0 16.3,-15.3 15.3,-16.3 h -0.1 z m -5.3,15.3 c -0.6,0 -1.6,1 -3.6,4 -1.9,3.2 -6.9,5.4 -6.6,2.3 0.1,-0.8 -1.8,-0.5 -3.6,-0.5 0,5.4 -3.06883,4 -4.9,6.3 -0.2,1.8 8.2,2.877 12.7,-0.2 5.4,-3.7 6.5,-8.7 6.6,-10.4 0,-0.9 -0.2,-1.5 -0.6,-1.5 z m -7.1,3.9 c 0,0.3 -0.7,0.1 -1,0.3 -0.7,0.4 -1.024,0.999219 -0.8,1.4 0.2,0.4 0.9,0.4 1.6,0 0.7,-0.4 1.02439,-1 0.8,-1.4 -0.1,-0.2 -0.3,-0.3 -0.6,-0.3 z"
     class="ColorScheme-Text"
     id="path13535-1" />
</svg>
