<?xml version="1.0" encoding="UTF-8" standalone="no"?>
<svg
   viewBox="0 0 64 64"
   version="1.1"
   id="svg9190"
   sodipodi:docname="folder-godot.svg"
   inkscape:version="1.2.2 (b0a8486541, 2022-12-01)"
   xmlns:inkscape="http://www.inkscape.org/namespaces/inkscape"
   xmlns:sodipodi="http://sodipodi.sourceforge.net/DTD/sodipodi-0.dtd"
   xmlns="http://www.w3.org/2000/svg"
   xmlns:svg="http://www.w3.org/2000/svg">
  <sodipodi:namedview
     id="namedview9192"
     pagecolor="#ffffff"
     bordercolor="#000000"
     borderopacity="0.25"
     inkscape:showpageshadow="2"
     inkscape:pageopacity="0.0"
     inkscape:pagecheckerboard="0"
     inkscape:deskcolor="#d1d1d1"
     showgrid="false"
     inkscape:zoom="3.6875"
     inkscape:cx="19.254237"
     inkscape:cy="32.135593"
     inkscape:window-width="1920"
     inkscape:window-height="1002"
     inkscape:window-x="0"
     inkscape:window-y="0"
     inkscape:window-maximized="1"
     inkscape:current-layer="svg9190" />
  <defs
     id="defs3051">
    <style
       type="text/css"
       id="current-color-scheme">
      .ColorScheme-Text {
        color:#232629;
      }
      .ColorScheme-Highlight {
        color:#3daee9;
      }
      </style>
  </defs>
  <path
     style="color:#3daee9;fill:#00171e;fill-opacity:1;stroke:none"
     d="M 4,6.0000002 V 11 20 H 3 v 1 H 3.002 C 3.00195,21.004 3,21.008 3,21.01172 v 35.988281 1 h 1 56 1 v -1 V 21.01172 21 16 h -1 v -4.990234 c 0,-0.003 -0.002,-0.0058 -0.002,-0.0098 H 60 V 10 H 32 L 28,6.0000002 Z"
     class="ColorScheme-Highlight"
     id="path4" />
  <path
     style="fill:#3daee9;fill-opacity:1;fill-rule:evenodd"
     d="M 4,6.0000002 V 11 20 h 18 l 4,-4 h 34 v -4.990234 c 0,-0.003 -0.002,-0.0058 -0.002,-0.0098 H 60 V 10 H 32 L 28,6.0000002 Z"
     id="path6" />
  <path
     style="fill:#ffffff;fill-opacity:0.2;fill-rule:evenodd"
     d="M 28,6.0000002 31,11 h 2 27 V 10 H 33 32 Z M 26,16 22,20 H 3 v 1 h 20 z"
     id="path8" />
  <path
     style="color:#31363b;fill-opacity:0.2;fill-rule:evenodd"
     d="m 26,16 -6,3 H 4 v 1 H 22 Z M 3,57 v 1 h 1 56 1 V 57 H 60 4 Z"
     class="ColorScheme-Text"
     id="path10" />
  <path
     style="color:#232629;fill:#ffffff;fill-opacity:1;stroke:none"
     d="m 30,27 -3,1 v 2.5 L 25.5,32 23.8,30.7 22,33 l 1,2 v 6 h 4 v 2 h 3 v -2 h 4 v 2 h 3 v -2 h 4 V 35 L 42,33 40.2,30.7 38.5,32 37,30.5 V 28 c 0,0 -2.1,-0.8 -3,-1 -0.4,0.6 -0.7,1.3 -1,2 h -2 c -0.3,-0.7 -1,-2 -1,-2 z m -2.5,8 A 2.5,2.5 0 0 1 30,37.5 2.5,2.5 0 0 1 27.5,40 2.5,2.5 0 0 1 25,37.5 2.5,2.5 0 0 1 27.5,35 Z m 9,0 A 2.5,2.5 0 0 1 39,37.5 2.5,2.5 0 0 1 36.5,40 2.5,2.5 0 0 1 34,37.5 2.5,2.5 0 0 1 36.5,35 Z m -9,1 A 1.5,1.5 0 0 0 26,37.5 1.5,1.5 0 0 0 27.5,39 1.5,1.5 0 0 0 29,37.5 1.5,1.5 0 0 0 27.5,36 Z m 4.5,0 c 0.5,0 1,0.5 1,1 v 2 c 0,0.5 -0.5,1 -1,1 -0.5,0 -1,-0.5 -1,-1 v -2 c 0,-0.5 0.446,-1 1,-1 z m 4.5,0 A 1.5,1.5 0 0 0 35,37.5 1.5,1.5 0 0 0 36.5,39 1.5,1.5 0 0 0 38,37.5 1.5,1.5 0 0 0 36.5,36 Z M 23,42 v 0.5 c 0,3.3 4.1,4.5 9,4.5 v 0 0 c 4.9,0 9,-1.5 9,-4.8 0,-0.1 0,0.1 0,-0.2 h -3 v 2 h -5 v -2 h -2 v 2 h -5 v -2 z"
     class="ColorScheme-Text"
     id="path9188-9" />
</svg>
