<?xml version="1.0" encoding="UTF-8" standalone="no"?>
<svg
   viewBox="0 0 64 64"
   version="1.1"
   id="svg2358"
   sodipodi:docname="folder-build.svg"
   inkscape:version="1.2.2 (b0a8486541, 2022-12-01)"
   xmlns:inkscape="http://www.inkscape.org/namespaces/inkscape"
   xmlns:sodipodi="http://sodipodi.sourceforge.net/DTD/sodipodi-0.dtd"
   xmlns="http://www.w3.org/2000/svg"
   xmlns:svg="http://www.w3.org/2000/svg">
  <sodipodi:namedview
     id="namedview2360"
     pagecolor="#ffffff"
     bordercolor="#000000"
     borderopacity="0.25"
     inkscape:showpageshadow="2"
     inkscape:pageopacity="0.0"
     inkscape:pagecheckerboard="0"
     inkscape:deskcolor="#d1d1d1"
     showgrid="false"
     inkscape:zoom="3.6875"
     inkscape:cx="19.254237"
     inkscape:cy="32.135593"
     inkscape:window-width="1920"
     inkscape:window-height="1002"
     inkscape:window-x="0"
     inkscape:window-y="0"
     inkscape:window-maximized="1"
     inkscape:current-layer="svg2358" />
  <defs
     id="defs3051">
    <style
       type="text/css"
       id="current-color-scheme">
      .ColorScheme-Text {
        color:#232629;
      }
      .ColorScheme-Highlight {
        color:#3daee9;
      }
      </style>
  </defs>
  <path
     style="color:#3daee9;fill:#00171e;fill-opacity:1;stroke:none"
     d="M 4,5.9999994 V 10.999999 20 H 3 v 1 H 3.002 C 3.00195,21.004 3,21.008 3,21.01172 v 35.988281 1 h 1 56 1 v -1 V 21.01172 21 15.999999 h -1 v -4.990234 c 0,-0.003 -0.002,-0.0058 -0.002,-0.0098 H 60 V 9.9999994 H 32 l -4,-4 z"
     class="ColorScheme-Highlight"
     id="path4" />
  <path
     style="fill:#3daee9;fill-opacity:1;fill-rule:evenodd"
     d="M 4,5.9999994 V 10.999999 20 h 18 l 4,-4.000001 h 34 v -4.990234 c 0,-0.003 -0.002,-0.0058 -0.002,-0.0098 H 60 V 9.9999994 H 32 l -4,-4 z"
     id="path6" />
  <path
     style="fill:#ffffff;fill-opacity:0.2;fill-rule:evenodd"
     d="m 28,5.9999994 3,4.9999996 h 2 27 V 9.9999995 H 33 32 Z M 26,15.999999 22,20 H 3 v 1 h 20 z"
     id="path8" />
  <path
     style="color:#31363b;fill-opacity:0.2;fill-rule:evenodd"
     d="M 26,15.999999 20,19 H 4 v 1 H 22 Z M 3,57 v 1 h 1 56 1 V 57 H 60 4 Z"
     class="ColorScheme-Text"
     id="path10" />
  <path
     style="color:#232629;fill:#ffffff;fill-opacity:0.98914528;stroke:none"
     d="m 39.74316,25.480468 -0.31054,1.060546 c -0.636,-0.053 -1.27672,0.01708 -1.88672,0.205078 l -0.5293,-0.96875 -1.75586,0.958985 0.5293,0.96875 c -0.489,0.412 -0.89336,0.912562 -1.19336,1.476562 l -1.05664,-0.308593 -0.5625,1.917968 1.06054,0.310547 c -0.053,0.636 0.0151,1.278673 0.20313,1.888673 l -0.96875,0.529297 0.95898,1.755859 0.96875,-0.53125 c 0.412,0.488999 0.91452,0.895313 1.47852,1.195313 l -0.31055,1.05664 1.91992,0.5625 0.31055,-1.060547 c 0.636,0.053 1.27672,-0.01708 1.88672,-0.205078 l 0.53125,0.96875 1.75391,-0.958984 -0.5293,-0.96875 c 0.489,-0.412 0.89336,-0.912563 1.19336,-1.476563 l 1.05664,0.308594 0.5625,-1.917969 -1.06055,-0.310546 c 0.053,-0.636 -0.0151,-1.278673 -0.20312,-1.888672 l 0.96875,-0.529297 -0.95899,-1.75586 -0.96875,0.53125 c -0.412,-0.489 -0.91451,-0.895313 -1.47851,-1.195312 l 0.31054,-1.056641 z m -0.98828,2.048828 c 0.19847,-0.01293 0.39873,-0.0109 0.59766,0.0059 0.26523,0.02234 0.52981,0.07048 0.78906,0.146484 0.998,0.293 1.84347,0.963141 2.35547,1.869141 0.532,0.94 0.66142,2.05675 0.35742,3.093749 -0.293,0.998001 -0.96314,1.843469 -1.86914,2.355469 -0.94,0.532 -2.05675,0.661422 -3.09375,0.357422 -0.998,-0.292999 -1.84542,-0.96314 -2.35742,-1.869141 -0.532,-0.94 -0.66142,-2.05675 -0.35742,-3.093749 0.293,-0.998001 0.96314,-1.843469 1.86914,-2.355469 0.52875,-0.29925 1.11358,-0.470985 1.70898,-0.509766 z m -13.33008,2.921875 -1.99023,0.195313 0.10742,1.099609 c -0.61,0.188001 -1.17783,0.490578 -1.67383,0.892578 l -0.85547,-0.701171 -1.26953,1.544921 0.85352,0.701172 c -0.3,0.565 -0.48669,1.18236 -0.55469,1.81836 l -1.0957,0.107422 0.19531,1.990234 1.09961,-0.107422 c 0.188,0.61 0.49058,1.177827 0.89258,1.673828 l -0.70117,0.855469 1.54492,1.269531 0.70117,-0.853515 c 0.565,0.3 1.18236,0.486687 1.81836,0.554687 l 0.10742,1.095703 1.99023,-0.195312 -0.10742,-1.09961 c 0.61,-0.187999 1.17783,-0.490578 1.67383,-0.892578 l 0.85547,0.701172 1.26953,-1.544922 -0.85351,-0.701172 c 0.3,-0.564999 0.48668,-1.182359 0.55468,-1.818359 l 1.09571,-0.107422 -0.19532,-1.990234 -1.09961,0.107422 c -0.188,-0.61 -0.49057,-1.177829 -0.89257,-1.673829 l 0.70117,-0.855468 -1.54492,-1.269532 -0.70118,0.853516 c -0.565,-0.3 -1.18236,-0.486687 -1.81836,-0.554687 z m -0.0273,2.085938 c 0.76603,0.07374 1.50083,0.368718 2.11133,0.855469 0.845,0.673999 1.38133,1.660328 1.48633,2.736328 0.102,1.036 -0.20452,2.070765 -0.85352,2.884765 -0.674,0.845 -1.66228,1.381328 -2.73828,1.486329 -1.036,0.102 -2.06881,-0.204516 -2.88281,-0.853516 -0.845,-0.674 -1.38133,-1.662281 -1.48633,-2.738281 -0.102,-1.036001 0.20451,-2.068813 0.85351,-2.882813 0.674,-0.845 1.66033,-1.381328 2.73633,-1.486328 0.259,-0.02555 0.5181,-0.02653 0.77344,-0.002 z m 8.61719,3.982422 V 37.625 c -0.626,0.128 -1.22091,0.374561 -1.75391,0.726562 l -0.78125,-0.78125 -1.41406,1.414063 0.78125,0.78125 c -0.353,0.533 -0.60147,1.127905 -0.73047,1.753906 h -1.10156 v 2 h 1.10547 c 0.128,0.625999 0.37456,1.220906 0.72656,1.753906 l -0.78125,0.78125 1.41406,1.414063 0.78125,-0.78125 c 0.533,0.353 1.12791,0.601469 1.75391,0.730468 v 1.101563 h 2 v -1.105469 c 0.626,-0.128 1.2209,-0.374562 1.7539,-0.726562 l 0.78125,0.78125 1.41407,-1.414063 -0.78125,-0.78125 c 0.353,-0.533 0.60146,-1.127907 0.73046,-1.753906 h 1.10157 v -2 h -1.10547 c -0.128,-0.626001 -0.37456,-1.220906 -0.72656,-1.753906 l 0.78125,-0.78125 -1.41407,-1.414063 -0.78125,0.78125 c -0.533,-0.353001 -1.1279,-0.60147 -1.7539,-0.730469 v -1.101562 z m 1,2 c 1.041,0 2.04011,0.405859 2.78711,1.130859 0.775,0.753 1.21289,1.78814 1.21289,2.869141 0,1.040999 -0.40586,2.040109 -1.13086,2.787109 -0.753,0.775 -1.78814,1.212891 -2.86914,1.212891 -1.041,0 -2.04011,-0.405859 -2.78711,-1.13086 -0.775,-0.753 -1.21289,-1.78814 -1.21289,-2.86914 0,-1.041 0.40586,-2.04011 1.13086,-2.78711 0.753,-0.774999 1.78814,-1.21289 2.86914,-1.21289 z"
     class="ColorScheme-Text"
     id="path2356-7" />
</svg>
