<?xml version="1.0" encoding="UTF-8" standalone="no"?>
<svg
   viewBox="0 0 64 64"
   version="1.1"
   id="svg10432"
   sodipodi:docname="folder-language.svg"
   inkscape:version="1.2.2 (b0a8486541, 2022-12-01)"
   xmlns:inkscape="http://www.inkscape.org/namespaces/inkscape"
   xmlns:sodipodi="http://sodipodi.sourceforge.net/DTD/sodipodi-0.dtd"
   xmlns="http://www.w3.org/2000/svg"
   xmlns:svg="http://www.w3.org/2000/svg">
  <sodipodi:namedview
     id="namedview10434"
     pagecolor="#ffffff"
     bordercolor="#000000"
     borderopacity="0.25"
     inkscape:showpageshadow="2"
     inkscape:pageopacity="0.0"
     inkscape:pagecheckerboard="0"
     inkscape:deskcolor="#d1d1d1"
     showgrid="false"
     inkscape:zoom="3.6875"
     inkscape:cx="19.254237"
     inkscape:cy="32.135593"
     inkscape:window-width="1920"
     inkscape:window-height="1002"
     inkscape:window-x="0"
     inkscape:window-y="0"
     inkscape:window-maximized="1"
     inkscape:current-layer="svg10432" />
  <defs
     id="defs3051">
    <style
       type="text/css"
       id="current-color-scheme">
      .ColorScheme-Text {
        color:#232629;
      }
      .ColorScheme-Highlight {
        color:#3daee9;
      }
      </style>
  </defs>
  <path
     style="color:#3daee9;fill:#00171e;fill-opacity:1;stroke:none"
     d="M 4,5.9999995 V 11 20 H 3 v 1 H 3.002 C 3.001953,21.004 3,21.007999 3,21.01172 v 35.988281 1 h 1 56 1 v -1 V 21.01172 21 16 h -1 v -4.990234 c 0,-0.003 -0.002,-0.0058 -0.002,-0.0098 H 60 V 9.9999995 H 32 l -4,-4 z"
     class="ColorScheme-Highlight"
     id="path4" />
  <path
     style="fill:#3daee9;fill-opacity:1;fill-rule:evenodd"
     d="M 4,5.9999995 V 11 20 h 18 l 4,-4 h 34 v -4.990234 c 0,-0.003 -0.002,-0.0058 -0.002,-0.0098 H 60 V 9.9999995 H 32 l -4,-4 z"
     id="path6" />
  <path
     style="fill:#ffffff;fill-opacity:0.2;fill-rule:evenodd"
     d="M 28,5.9999995 31,11 h 2 27 V 9.9999995 H 33 32 Z M 26,16 22,20 H 3 v 1 h 20 z"
     id="path8" />
  <path
     style="color:#31363b;fill-opacity:0.2;fill-rule:evenodd"
     d="m 26,16 -6,3 H 4 v 1 H 22 Z M 3,57 v 1 h 1 56 1 V 57 H 60 4 Z"
     class="ColorScheme-Text"
     id="path10" />
  <path
     style="color:#232629;fill:#ffffff;fill-opacity:0.98931068;stroke:none"
     d="m 32.9,40 -2.5,-2.516 0.03,-0.03 C 32.129,35.600001 33.269,33.4 34,31 h 3.04 V 29 H 30.02 V 27 H 28 v 2 h -7 v 2 h 11 c -0.7,1.9 -1.5,3.700001 -3,5.3 -0.9,-1 -1.7,-2.2 -2.3,-3.4 h -2 c 0.732,1.6 1.734,3.200001 3,4.57 l -5.1,5.03 1.4,1.4 5.01,-5.01 3.1,3.100001 z m 5.7,-5.100001 h -2 L 32.034,47 h 2 l 1.123,-3.01 h 4.8 L 41,47 h 2 z M 36,41.92 37.6,37.579999 39.2,41.92 Z"
     class="ColorScheme-Text"
     id="path10430-6" />
</svg>
