<?xml version="1.0" encoding="UTF-8" standalone="no"?>
<svg
   viewBox="0 0 64 64"
   version="1.1"
   id="svg14779"
   sodipodi:docname="folder-sign.svg"
   inkscape:version="1.2.2 (b0a8486541, 2022-12-01)"
   xmlns:inkscape="http://www.inkscape.org/namespaces/inkscape"
   xmlns:sodipodi="http://sodipodi.sourceforge.net/DTD/sodipodi-0.dtd"
   xmlns="http://www.w3.org/2000/svg"
   xmlns:svg="http://www.w3.org/2000/svg">
  <sodipodi:namedview
     id="namedview14781"
     pagecolor="#ffffff"
     bordercolor="#000000"
     borderopacity="0.25"
     inkscape:showpageshadow="2"
     inkscape:pageopacity="0.0"
     inkscape:pagecheckerboard="0"
     inkscape:deskcolor="#d1d1d1"
     showgrid="false"
     inkscape:zoom="3.6875"
     inkscape:cx="19.254237"
     inkscape:cy="32.135593"
     inkscape:window-width="1920"
     inkscape:window-height="1002"
     inkscape:window-x="0"
     inkscape:window-y="0"
     inkscape:window-maximized="1"
     inkscape:current-layer="svg14779" />
  <defs
     id="defs3051">
    <style
       type="text/css"
       id="current-color-scheme">
      .ColorScheme-Text {
        color:#232629;
      }
      .ColorScheme-Highlight {
        color:#3daee9;
      }
      </style>
  </defs>
  <path
     style="color:#3daee9;fill:#00171e;fill-opacity:1;stroke:none"
     d="M 4.0000002,5.9999995 V 11 20 h -1 v 1 h 0.002 c -4.7e-5,0.004 -0.002,0.008 -0.002,0.01172 V 57 58 h 1 H 60 61 v -1 -35.988281 -0.01172 -5 h -1 v -4.990234 c 0,-0.003 -0.002,-0.0058 -0.002,-0.0098 H 60 V 9.9999995 H 32 l -4,-4 z"
     class="ColorScheme-Highlight"
     id="path4" />
  <path
     style="fill:#3daee9;fill-opacity:1;fill-rule:evenodd"
     d="M 4.0000002,5.9999995 V 11 20 H 22 l 4,-4 h 34 v -4.990234 c 0,-0.003 -0.002,-0.0058 -0.002,-0.0098 H 60 V 9.9999995 H 32 l -4,-4 z"
     id="path6" />
  <path
     style="fill:#ffffff;fill-opacity:0.2;fill-rule:evenodd"
     d="M 28,5.9999995 31,11 h 2 27 V 9.9999995 H 33 32 Z M 26,16 22,20 H 3.0000002 v 1 H 23 Z"
     id="path8" />
  <path
     style="color:#31363b;fill-opacity:0.2;fill-rule:evenodd"
     d="m 26,16 -6,3 H 4.0000002 v 1 H 22 Z M 3.0000002,57 v 1 h 1 H 60 61 V 57 H 60 4.0000002 Z"
     class="ColorScheme-Text"
     id="path10" />
  <path
     style="color:#232629;fill:#ffffff;fill-opacity:0.99875742;stroke:none"
     d="m 41.918122,21.024105 c -0.13965,-0.0015 -0.2829,0.03697 -0.41797,0.123047 -0.0721,0.05001 -0.38547,0.425594 -0.69336,0.835938 l -0.56055,0.753906 -0.20312,-0.138672 c -0.28429,-0.187471 -0.55859,-0.228932 -0.81446,-0.113281 -0.17684,0.07963 -0.59128,0.614683 -3.31054,4.230468 -1.71611,2.279485 -3.11157,4.162312 -3.10743,4.191407 0.004,0.02429 0.70025,0.568399 1.54297,1.201172 l 1.54102,1.158203 2.02734,-2.701172 c 1.11582,-1.486038 2.04416,-2.688584 2.06641,-2.671875 0.0722,0.054 0.2036,1.220584 0.17773,1.595703 -0.0104,0.204619 -0.0869,0.572324 -0.16601,0.816406 -0.14108,0.436168 -0.15644,0.461731 -2.66992,3.820313 -1.39011,1.856755 -2.54755,3.433763 -2.56836,3.496093 -0.0597,0.171885 0.007,0.493385 0.13672,0.677735 0.21742,0.310816 0.75522,0.40905 1.06054,0.1875 0.21093,-0.153912 5.18935,-6.855511 5.34766,-7.205078 0.46242,-0.996847 0.55817,-2.273342 0.26562,-3.529297 -0.11559,-0.498507 -0.26672,-0.977695 -0.41406,-1.31836 -0.0429,-0.09301 0.0285,-0.212022 0.49414,-0.83789 0.44001,-0.59744 0.5409,-0.765211 0.54883,-0.919922 0.0174,-0.329262 -0.0832,-0.512537 -0.40625,-0.763672 l -0.30078,-0.234375 0.59765,-0.802734 c 0.48992,-0.66391 0.59585,-0.837513 0.60352,-0.992188 0.0222,-0.493136 -0.3584,-0.854896 -0.77734,-0.859375 z m -10.06836,11.132813 c -0.0147,0.0021 -1.84324,2.431773 -4.06641,5.392578 -3.57569,4.767816 -4.08427,5.473542 -4.41406,6.080078 -0.6552,1.207545 -1.36819,3.048522 -1.8418,4.730469 -0.30699,1.078754 -0.32241,0.981133 0.10547,0.751953 1.31979,-0.712818 3.04381,-1.869944 4.04688,-2.720703 0.98083,-0.832882 1.14783,-1.044642 5.30273,-6.578125 l 3.99609,-5.328125 -1.55273,-1.166016 c -0.854,-0.641235 -1.5615,-1.164197 -1.57617,-1.162109 z m 0.44922,12.339843 c -0.19625,-0.01112 -0.3983,-0.005 -0.5293,0.02148 v 0.002 c -0.621,0.131 -1.31249,0.669062 -1.64649,1.289062 -0.09,0.161 -0.23326,0.525782 -0.32226,0.800782 -0.084,0.28 -0.16197,0.513531 -0.16797,0.519531 -0.048,0.06 -1.23559,0.344844 -1.93359,0.464844 -1.641,0.287 -2.089,0.393968 -2.25,0.542968 -0.316,0.292 -0.071,0.586079 0.37695,0.455078 0.119,-0.036 0.62623,-0.136703 1.11523,-0.220703 0.49,-0.084 1.23521,-0.238984 1.65821,-0.333984 0.424,-0.101 0.78278,-0.168391 0.80078,-0.150391 0.018,0.018 -0.053,0.357813 -0.16602,0.757813 l -0.20312,0.716797 -0.44922,0.197265 c -0.245,0.107 -0.59625,0.291969 -0.78125,0.417969 -0.561,0.37 -0.66939,0.834813 -0.27539,1.132813 0.215,0.161 0.81164,0.15514 1.18164,-0.0059 0.328,-0.149 0.51253,-0.35739 0.76953,-0.90039 0.137,-0.281 0.24513,-0.429266 0.32813,-0.447266 0.066,-0.018 0.65845,-0.137391 1.31445,-0.275391 0.657,-0.131 1.25308,-0.25739 1.33008,-0.27539 0.125,-0.03 0.13756,-0.0183 0.10156,0.0957 -0.024,0.072 -0.13209,0.281797 -0.24609,0.466797 -0.113,0.185 -0.20313,0.40514 -0.20313,0.49414 0,0.185 0.15625,0.370266 0.28125,0.322266 0.048,-0.018 0.11258,-0.03516 0.14258,-0.03516 0.03,0 0.16197,-0.09584 0.29297,-0.214844 0.245,-0.221 0.83593,-1.302297 0.83593,-1.529297 0,-0.113 0.0896,-0.141734 0.14258,-0.05273 0.018,0.03 0.15374,0.08414 0.30274,0.11914 0.209,0.054 0.26953,0.09445 0.26953,0.189453 0,0.185001 0.30522,0.454813 0.57422,0.507813 0.209,0.036 0.47767,-0.006 0.76367,-0.125 0.101,-0.042 0.10726,-0.03 0.0723,0.125 -0.024,0.096 -0.19781,0.400641 -0.38281,0.681641 -0.394,0.585 -0.8711,1.515734 -0.9961,1.927734 -0.101,0.352 -0.06,0.615234 0.125,0.740234 0.167,0.107 0.44099,0.05834 0.58399,-0.09766 0.125,-0.137 0.80664,-1.574469 1.05664,-2.230469 0.179,-0.46 0.26197,-0.585625 0.66797,-1.015625 0.334,-0.352 0.44309,-0.435828 0.37109,-0.298828 -0.119,0.257 -0.11342,0.453266 0.0176,0.572266 0.28,0.257 0.68606,0.0063 1.03906,-0.638672 0.209,-0.382 0.36463,-0.494375 1.14063,-0.859375 l 0.40429,-0.185547 -0.041,0.220703 c -0.024,0.119 -0.16168,0.459953 -0.30468,0.751953 -0.281,0.591 -0.33302,0.967063 -0.16602,1.289063 0.113,0.221 0.23225,0.228109 0.78125,0.03711 0.764,-0.257 1.76053,-0.849453 2.01953,-1.189453 0.352,-0.478 0.4601,-0.936797 0.2461,-1.091797 -0.221,-0.161 -0.34596,-0.09559 -0.62696,0.316406 -0.376,0.561 -0.84106,0.99775 -1.28906,1.21875 -0.209,0.107 -0.39411,0.178157 -0.41211,0.160157 -0.024,-0.024 0.45299,-1.307157 0.70899,-1.910157 0.054,-0.125 0.0977,-0.280703 0.0977,-0.345703 0,-0.167 -0.20968,-0.357421 -0.38868,-0.357421 -0.084,0 -0.47904,0.160281 -0.87304,0.363281 -0.818,0.406 -0.76369,0.441734 -0.55469,-0.322266 0.125,-0.471 0.0839,-0.596953 -0.20313,-0.626953 -0.275,-0.03 -0.38181,0.06081 -0.63281,0.507812 -0.161,0.304001 -0.37511,0.555501 -0.78711,0.9375 -0.543,0.501 -0.56736,0.518688 -0.69336,0.429688 -0.191,-0.137 -0.29867,-0.118719 -0.76367,0.113281 -0.454,0.227 -0.6038,0.257141 -0.7168,0.119141 -0.096,-0.113 0.0548,-0.172984 0.88477,-0.333984 0.806,-0.155001 0.90625,-0.198235 0.90625,-0.365235 0,-0.269 -0.22123,-0.524266 -0.61523,-0.697265 -0.681,-0.304001 -0.75669,-0.323094 -1.05469,-0.246094 -0.322,0.084 -0.80024,0.543078 -0.86524,0.830078 -0.066,0.299 -0.26953,0.208859 -0.26953,-0.119141 0,-0.137 -0.16767,-0.482969 -0.26367,-0.542969 -0.203,-0.137 -0.53025,0.161938 -0.78125,0.710938 l -0.19726,0.423828 -0.44141,0.0957 c -0.573,0.125 -2.23799,0.458953 -2.45899,0.501953 -0.143,0.024 -0.16671,0.01174 -0.13671,-0.07227 0.024,-0.06 0.095,-0.320844 0.16601,-0.589844 0.185,-0.74 0.23981,-0.836641 0.50781,-0.931641 0.322,-0.113 1.40946,-0.579656 1.68946,-0.722656 0.131,-0.066 0.3987,-0.268266 0.5957,-0.447266 0.603,-0.560999 0.69758,-1.08089 0.26758,-1.46289 -0.119,-0.101 -0.2747,-0.208281 -0.3457,-0.238281 -0.11,-0.042 -0.29985,-0.07091 -0.4961,-0.08203 z m -0.60157,0.697266 c 0.0829,-0.0047 0.18094,-0.0016 0.30469,0.0059 0.316,0.018 0.44225,0.04758 0.53125,0.142578 0.119,0.119 0.11872,0.124563 0.0117,0.351563 -0.072,0.143 -0.23827,0.311078 -0.44727,0.455078 -0.364,0.251 -1.50501,0.709953 -1.54101,0.626953 -0.048,-0.137 0.31778,-0.95575 0.55078,-1.21875 0.2325,-0.264 0.34117,-0.349312 0.58984,-0.363281 z m -3.06445,4.998047 c 0.0455,0.003 0.0463,0.04269 0.008,0.117187 -0.078,0.149 -0.28153,0.256844 -0.39453,0.214844 -0.131,-0.054 -0.0957,-0.124422 0.11328,-0.232422 0.1375,-0.0685 0.22794,-0.102609 0.27344,-0.09961 z"
     class="ColorScheme-Text"
     id="path14777-7" />
</svg>
