<?xml version="1.0" encoding="UTF-8" standalone="no"?>
<svg
   viewBox="0 0 64 64"
   version="1.1"
   id="svg16052"
   sodipodi:docname="folder-table.svg"
   inkscape:version="1.2.2 (b0a8486541, 2022-12-01)"
   xmlns:inkscape="http://www.inkscape.org/namespaces/inkscape"
   xmlns:sodipodi="http://sodipodi.sourceforge.net/DTD/sodipodi-0.dtd"
   xmlns="http://www.w3.org/2000/svg"
   xmlns:svg="http://www.w3.org/2000/svg">
  <sodipodi:namedview
     id="namedview16054"
     pagecolor="#ffffff"
     bordercolor="#000000"
     borderopacity="0.25"
     inkscape:showpageshadow="2"
     inkscape:pageopacity="0.0"
     inkscape:pagecheckerboard="0"
     inkscape:deskcolor="#d1d1d1"
     showgrid="false"
     inkscape:zoom="3.6875"
     inkscape:cx="19.254237"
     inkscape:cy="32.135593"
     inkscape:window-width="1920"
     inkscape:window-height="1002"
     inkscape:window-x="0"
     inkscape:window-y="0"
     inkscape:window-maximized="1"
     inkscape:current-layer="svg16052" />
  <defs
     id="defs3051">
    <style
       type="text/css"
       id="current-color-scheme">
      .ColorScheme-Text {
        color:#232629;
      }
      .ColorScheme-Highlight {
        color:#3daee9;
      }
      </style>
  </defs>
  <path
     style="color:#3daee9;fill:#00171e;fill-opacity:1;stroke:none"
     d="m 4,6 v 5 9 H 3 v 1 H 3.002 C 3.001953,21.004 3,21.008 3,21.01172 v 35.988281 1 h 1 56 1 v -1 V 21.01172 21 16 h -1 v -4.990234 c 0,-0.003 -0.002,-0.0058 -0.002,-0.0098 H 60 V 10 H 32 L 28,6 Z"
     class="ColorScheme-Highlight"
     id="path4" />
  <path
     style="fill:#3daee9;fill-opacity:1;fill-rule:evenodd"
     d="m 4,6 v 5 9 h 18 l 4,-4 h 34 v -4.990234 c 0,-0.003 -0.002,-0.0058 -0.002,-0.0098 H 60 V 10 H 32 L 28,6 Z"
     id="path6" />
  <path
     style="fill:#ffffff;fill-opacity:0.2;fill-rule:evenodd"
     d="m 28,6 3,5 h 2 27 V 10 H 33 32 Z m -2,10 -4,4 H 3 v 1 h 20 z"
     id="path8" />
  <path
     style="color:#31363b;fill-opacity:0.2;fill-rule:evenodd"
     d="m 26,16 -6,3 H 4 v 1 H 22 Z M 3,57 v 1 h 1 56 1 V 57 H 60 4 Z"
     class="ColorScheme-Text"
     id="path10" />
  <path
     style="color:#232629;fill:#ffffff;fill-opacity:1;stroke:none"
     d="M 21,26 V 48 H 43 V 26 Z m 1,1 h 20 v 4 H 22 Z m 0,5 h 5 v 3 h -5 z m 6,0 h 8 v 3 h -8 z m 9,0 h 5 v 3 h -5 z m -15,4 h 5 v 3 h -5 z m 6,0 h 8 v 3 h -8 z m 9,0 h 5 v 3 h -5 z m -15,4 h 5 v 3 h -5 z m 6,0 h 8 v 3 h -8 z m 9,0 h 5 v 3 h -5 z m -15,4 h 5 v 3 h -5 z m 6,0 h 8 v 3 h -8 z m 9,0 h 5 v 3 h -5 z"
     class="ColorScheme-Text"
     id="path16050-2" />
</svg>
