<?xml version="1.0" encoding="UTF-8" standalone="no"?>
<svg
   viewBox="0 0 64 64"
   version="1.1"
   id="svg2980"
   sodipodi:docname="folder-calculate.svg"
   inkscape:version="1.2.2 (b0a8486541, 2022-12-01)"
   xmlns:inkscape="http://www.inkscape.org/namespaces/inkscape"
   xmlns:sodipodi="http://sodipodi.sourceforge.net/DTD/sodipodi-0.dtd"
   xmlns="http://www.w3.org/2000/svg"
   xmlns:svg="http://www.w3.org/2000/svg">
  <sodipodi:namedview
     id="namedview2982"
     pagecolor="#ffffff"
     bordercolor="#000000"
     borderopacity="0.25"
     inkscape:showpageshadow="2"
     inkscape:pageopacity="0.0"
     inkscape:pagecheckerboard="0"
     inkscape:deskcolor="#d1d1d1"
     showgrid="false"
     inkscape:zoom="3.6875"
     inkscape:cx="19.254237"
     inkscape:cy="32.135593"
     inkscape:window-width="1920"
     inkscape:window-height="1002"
     inkscape:window-x="0"
     inkscape:window-y="0"
     inkscape:window-maximized="1"
     inkscape:current-layer="svg2980" />
  <defs
     id="defs3051">
    <style
       type="text/css"
       id="current-color-scheme">
      .ColorScheme-Text {
        color:#232629;
      }
      .ColorScheme-Highlight {
        color:#3daee9;
      }
      </style>
  </defs>
  <path
     style="color:#3daee9;fill:#00171e;fill-opacity:1;stroke:none"
     d="M 4,5.9999995 V 11 20 H 3 v 1 H 3.0019 C 3.001853,21.003999 3,21.008 3,21.011719 V 57 58 h 1 56 1 V 57 21.011719 21 16 h -1 v -4.990234 c 0,-0.003 -0.002,-0.0058 -0.002,-0.0098 H 60 V 9.9999995 H 32 l -4,-4 z"
     class="ColorScheme-Highlight"
     id="path4" />
  <path
     style="fill:#3daee9;fill-opacity:1;fill-rule:evenodd"
     d="M 4,5.9999995 V 11 20 h 18 l 4,-4 h 34 v -4.990234 c 0,-0.003 -0.002,-0.0058 -0.002,-0.0098 H 60 V 9.9999995 H 32 l -4,-4 z"
     id="path6" />
  <path
     style="fill:#ffffff;fill-opacity:0.2;fill-rule:evenodd"
     d="M 28,5.9999995 31,11 h 2 27 V 9.9999995 H 33 32 Z M 26,16 22,20 H 3 v 1 h 20 z"
     id="path8" />
  <path
     style="color:#31363b;fill-opacity:0.2;fill-rule:evenodd"
     d="m 26,16 -6,3 H 4 v 1 H 22 Z M 3,57 v 1 h 1 56 1 V 57 H 60 4 Z"
     class="ColorScheme-Text"
     id="path10" />
  <path
     style="color:#232629;fill:#ffffff;fill-opacity:1;stroke:none"
     d="M 40,29.5 H 32 L 27.56,37.2 26,34.5 h -2 v 1 h 1.43164 l 2.16836,3.7 5,-8.7 H 39 v 1 h 1 z m -5,3 c -1.662,0 -3,1.3 -3,3 0,1.7 1.338,3 3,3 0.773,0 1.5,-0.3 2,-0.8 v 0.8 h 1 v -6 h -1 v 0.8 c -0.531,-0.5 -1.227,-0.8 -2,-0.8 z m 0,1 c 1.108,0 2,0.9 2,2 0,1.1 -0.892,2 -2,2 -1.108,0 -2,-0.9 -2,-2 0,-1.1 0.892,-2 2,-2 z m -12,7 c 0,0 0,0.223 0,0.5 0,0.277 0,0.5 0,0.5 h 18 c 0,0 0,-0.223 0,-0.5 0,-0.277 0,-0.5 0,-0.5 z m 8,3 c 0,0 0,0.223 0,0.5 0,0.277 0,0.5 0,0.5 h 2 c 0,0 0,-0.223 0,-0.5 0,-0.277 0,-0.5 0,-0.5 z"
     class="ColorScheme-Text"
     id="path2978-5" />
</svg>
