<?xml version="1.0" encoding="UTF-8" standalone="no"?>
<svg
   viewBox="0 0 64 64"
   version="1.1"
   id="svg11674"
   sodipodi:docname="folder-log.svg"
   inkscape:version="1.2.2 (b0a8486541, 2022-12-01)"
   xmlns:inkscape="http://www.inkscape.org/namespaces/inkscape"
   xmlns:sodipodi="http://sodipodi.sourceforge.net/DTD/sodipodi-0.dtd"
   xmlns="http://www.w3.org/2000/svg"
   xmlns:svg="http://www.w3.org/2000/svg">
  <sodipodi:namedview
     id="namedview11676"
     pagecolor="#ffffff"
     bordercolor="#000000"
     borderopacity="0.25"
     inkscape:showpageshadow="2"
     inkscape:pageopacity="0.0"
     inkscape:pagecheckerboard="0"
     inkscape:deskcolor="#d1d1d1"
     showgrid="false"
     inkscape:zoom="3.6875"
     inkscape:cx="19.254237"
     inkscape:cy="32.135593"
     inkscape:window-width="1920"
     inkscape:window-height="1002"
     inkscape:window-x="0"
     inkscape:window-y="0"
     inkscape:window-maximized="1"
     inkscape:current-layer="svg11674" />
  <defs
     id="defs3051">
    <style
       type="text/css"
       id="current-color-scheme">
      .ColorScheme-Text {
        color:#232629;
      }
      .ColorScheme-Highlight {
        color:#3daee9;
      }
      </style>
  </defs>
  <path
     style="color:#3daee9;fill:#00171e;fill-opacity:1;stroke:none"
     d="M 4,5.9999996 V 11 19.999999 H 3 v 1 h 0.002 c -5e-5,0.004 -0.002,0.008 -0.002,0.01172 V 57 58 h 1 56 1 v -1 -35.988281 -0.01172 -5 h -1 v -4.990233 c 0,-0.003 -0.002,-0.0058 -0.002,-0.0098 H 60 V 9.9999996 H 32 l -4,-4 z"
     class="ColorScheme-Highlight"
     id="path4" />
  <path
     style="fill:#3daee9;fill-opacity:1;fill-rule:evenodd"
     d="M 4,5.9999996 V 11 19.999999 h 18 l 4,-4 h 34 v -4.990233 c 0,-0.003 -0.002,-0.0058 -0.002,-0.0098 H 60 V 9.9999996 H 32 l -4,-4 z"
     id="path6" />
  <path
     style="fill:#ffffff;fill-opacity:0.2;fill-rule:evenodd"
     d="M 28,5.9999996 31,11 h 2 27 V 9.9999996 H 33 32 Z m -2,9.9999994 -4,4 H 3 v 1 h 20 z"
     id="path8" />
  <path
     style="color:#31363b;fill-opacity:0.2;fill-rule:evenodd"
     d="m 26,15.999999 -6,3 H 4 v 1 h 18 z m -23,41 v 1 h 1 56 1 v -1 H 60 4 Z"
     class="ColorScheme-Text"
     id="path10" />
  <path
     style="color:#232629;fill:#ffffff;fill-opacity:0.99975622;stroke:none"
     d="m 21,25.999999 v 1 h 22 v -1 z m 0,2 v 1 h 1 v -1 z m 4,3 c -0.6,0 -1,0.4 -1,1 0,0.55 0.4,1 1,1 0.55,0 1,-0.45 1,-1 0,-0.6 -0.45,-1 -1,-1 z m 3,0 v 1 h 11 v -1 z m 0,2 v 1 h 4 v -1 z m -3,6 c -0.6,0 -1,0.4 -1,1 0,0.55 0.4,1 1,1 0.55,0 1,-0.45 1,-1 0,-0.6 -0.45,-1 -1,-1 z m 3,0 v 1 h 5 v -1 z m 0,2 v 1 h 7 v -1 z m 0,2 v 1 h 14 v -1 z m -7,2 v 1 h 1 v -1 z m 0,2 v 1 h 22 v -1 z"
     class="ColorScheme-Text"
     id="path11672-6" />
</svg>
