<?xml version="1.0" encoding="UTF-8" standalone="no"?>
<svg
   viewBox="0 0 64 64"
   version="1.1"
   id="svg5464"
   sodipodi:docname="folder-desktop.svg"
   inkscape:version="1.2.2 (b0a8486541, 2022-12-01)"
   xmlns:inkscape="http://www.inkscape.org/namespaces/inkscape"
   xmlns:sodipodi="http://sodipodi.sourceforge.net/DTD/sodipodi-0.dtd"
   xmlns="http://www.w3.org/2000/svg"
   xmlns:svg="http://www.w3.org/2000/svg">
  <sodipodi:namedview
     id="namedview5466"
     pagecolor="#ffffff"
     bordercolor="#000000"
     borderopacity="0.25"
     inkscape:showpageshadow="2"
     inkscape:pageopacity="0.0"
     inkscape:pagecheckerboard="0"
     inkscape:deskcolor="#d1d1d1"
     showgrid="false"
     inkscape:zoom="3.6875"
     inkscape:cx="19.254237"
     inkscape:cy="32.135593"
     inkscape:window-width="1920"
     inkscape:window-height="1002"
     inkscape:window-x="0"
     inkscape:window-y="0"
     inkscape:window-maximized="1"
     inkscape:current-layer="svg5464" />
  <defs
     id="defs3051">
    <style
       type="text/css"
       id="current-color-scheme">
      .ColorScheme-Text {
        color:#232629;
      }
      .ColorScheme-Highlight {
        color:#3daee9;
      }
      </style>
  </defs>
  <path
     style="color:#3daee9;fill:#00171e;fill-opacity:1;stroke:none"
     d="M 3.9999998,5.9999995 V 11 20 h -1 v 1 h 0.002 c -5e-5,0.004 -0.002,0.008 -0.002,0.01172 V 57 58 h 1 H 60 61 v -1 -35.988281 -0.01172 -5 h -1 v -4.990233 c 0,-0.003 -0.002,-0.0058 -0.002,-0.0098 H 60 V 9.9999995 H 32 l -4,-4 z"
     class="ColorScheme-Highlight"
     id="path4" />
  <path
     style="fill:#3daee9;fill-opacity:1;fill-rule:evenodd"
     d="M 3.9999998,5.9999995 V 11 20 H 22 l 4,-4 h 34 v -4.990234 c 0,-0.003 -0.002,-0.0058 -0.002,-0.0098 H 60 V 9.9999995 H 32 l -4,-4 z"
     id="path6" />
  <path
     style="fill:#ffffff;fill-opacity:0.2;fill-rule:evenodd"
     d="M 28,5.9999995 31,11 h 2 27 V 9.9999995 H 33 32 Z M 26,16 22,20 H 2.9999998 v 1 H 23 Z"
     id="path8" />
  <path
     style="color:#31363b;fill-opacity:0.2;fill-rule:evenodd"
     d="m 26,16 -6,3 H 3.9999998 v 1 H 22 Z M 2.9999998,57 v 1 h 1 H 60 61 V 57 H 60 3.9999999 Z"
     class="ColorScheme-Text"
     id="path10" />
  <path
     style="color:#232629;fill:#ffffff;fill-opacity:1;stroke:none"
     d="M 21,26 V 48 H 43 V 26 Z m 1,1 H 42 V 43 H 22 Z m 2,2 v 6 h 6 v -5 h -3 l -1,-1 z m 1,2 h 4 v 3 h -4 z m -3,13 h 20 v 3 H 22 Z m 1,1 v 1 h 1 v -1 z m 13,0 v 1 h 1 v -1 z m 2,0 v 1 h 1 v -1 z m 2,0 v 1 h 1 v -1 z"
     class="ColorScheme-Text"
     id="path5462-2" />
</svg>
