<?xml version="1.0" encoding="UTF-8" standalone="no"?>
<svg
   viewBox="0 0 64 64"
   version="1.1"
   id="svg6085"
   sodipodi:docname="folder-docker.svg"
   inkscape:version="1.2.2 (b0a8486541, 2022-12-01)"
   xmlns:inkscape="http://www.inkscape.org/namespaces/inkscape"
   xmlns:sodipodi="http://sodipodi.sourceforge.net/DTD/sodipodi-0.dtd"
   xmlns="http://www.w3.org/2000/svg"
   xmlns:svg="http://www.w3.org/2000/svg">
  <sodipodi:namedview
     id="namedview6087"
     pagecolor="#ffffff"
     bordercolor="#000000"
     borderopacity="0.25"
     inkscape:showpageshadow="2"
     inkscape:pageopacity="0.0"
     inkscape:pagecheckerboard="0"
     inkscape:deskcolor="#d1d1d1"
     showgrid="false"
     inkscape:zoom="3.6875"
     inkscape:cx="19.254237"
     inkscape:cy="32.135593"
     inkscape:window-width="1920"
     inkscape:window-height="1002"
     inkscape:window-x="0"
     inkscape:window-y="0"
     inkscape:window-maximized="1"
     inkscape:current-layer="svg6085" />
  <defs
     id="defs3051">
    <style
       type="text/css"
       id="current-color-scheme">
      .ColorScheme-Text {
        color:#232629;
      }
      .ColorScheme-Highlight {
        color:#3daee9;
      }
      </style>
  </defs>
  <path
     style="color:#3daee9;fill:#00171e;fill-opacity:1;stroke:none"
     d="M 3.999998,5.9999994 V 10.999999 20 h -1 v 1 h 0.002 c -4.7e-5,0.004 -0.002,0.008 -0.002,0.01172 v 35.988281 1 h 1 56.000004 1 v -1 V 21.01172 21 16 h -1 v -4.990235 c 0,-0.003 -0.002,-0.0058 -0.002,-0.0098 h 0.002 V 9.9999994 h -28 l -4,-4 z"
     class="ColorScheme-Highlight"
     id="path4" />
  <path
     style="fill:#3daee9;fill-opacity:1;fill-rule:evenodd"
     d="M 3.999998,5.9999994 V 10.999999 20 h 18.000004 l 4,-4 h 34 v -4.990235 c 0,-0.003 -0.002,-0.0058 -0.002,-0.0098 h 0.002 V 9.9999994 h -28 l -4,-4 z"
     id="path6" />
  <path
     style="fill:#ffffff;fill-opacity:0.2;fill-rule:evenodd"
     d="m 28.000002,5.9999994 3,4.9999996 h 2 27 V 9.9999994 h -27 -1 z m -2,10.0000006 -4,4 H 2.999998 v 1 h 20.000004 z"
     id="path8" />
  <path
     style="color:#31363b;fill-opacity:0.2;fill-rule:evenodd"
     d="m 26.000002,16 -6,3 H 3.999998 v 1 H 22.000002 Z M 2.999998,57 v 1 h 1 56.000004 1 v -1 h -1 -56.000004 z"
     class="ColorScheme-Text"
     id="path10" />
  <path
     style="color:#232629;fill:#ffffff;fill-opacity:1;stroke:none"
     d="m 30.3,28 h -3.1 v 3 h 3 z m 0.9,0 v 3 h 3 v -3 z m 8.5,2.5 c -1,0.8 -1.5,2.1 -1.2,3.3 0.4,1.2 1.4,2.1 2.7,2.2 0.4,1.200001 1.5,2 2.8,2 1.3,0 2.4,-0.799999 2.8,-2 -0.4,-1.2 -1.5,-2 -2.8,-2 -0.6,0 -1.2,0.200001 -1.7,0.5 0.23148,-0.5 0.2,-1.2 0.1,-1.799999 C 42.1,31.500001 41,30.6 39.7,30.5 Z m 1.5,5.5 h -24 c 0,6.6 5.4,10 12,10 6.6,0 12,-3.4 12,-10 z m -16,-4 h -3 v 3 h 3 z m 4,0 h -3 v 3 h 3 z m 4,0 h -3 v 3 h 3 z m 4,0 h -3 v 3 h 3 z m -15,6 c 0.5,0 1,0.4 1,1 0,0.5 -0.5,1 -1,1 -0.6,0 -1,-0.5 -1,-1 0,-0.6 0.4,-1 1,-1 z"
     class="ColorScheme-Text"
     id="path6083-9" />
</svg>
