<?xml version="1.0" encoding="UTF-8" standalone="no"?>
<svg
   viewBox="0 0 64 64"
   version="1.1"
   id="svg377"
   sodipodi:docname="folder-appimage.svg"
   inkscape:version="1.2.2 (b0a8486541, 2022-12-01)"
   xmlns:inkscape="http://www.inkscape.org/namespaces/inkscape"
   xmlns:sodipodi="http://sodipodi.sourceforge.net/DTD/sodipodi-0.dtd"
   xmlns="http://www.w3.org/2000/svg"
   xmlns:svg="http://www.w3.org/2000/svg">
  <sodipodi:namedview
     id="namedview379"
     pagecolor="#ffffff"
     bordercolor="#000000"
     borderopacity="0.25"
     inkscape:showpageshadow="2"
     inkscape:pageopacity="0.0"
     inkscape:pagecheckerboard="0"
     inkscape:deskcolor="#d1d1d1"
     showgrid="false"
     inkscape:zoom="3.6875"
     inkscape:cx="19.254237"
     inkscape:cy="32.135593"
     inkscape:window-width="1920"
     inkscape:window-height="1002"
     inkscape:window-x="0"
     inkscape:window-y="0"
     inkscape:window-maximized="1"
     inkscape:current-layer="svg377" />
  <defs
     id="defs3051">
    <style
       type="text/css"
       id="current-color-scheme">
      .ColorScheme-Text {
        color:#232629;
      }
      .ColorScheme-Highlight {
        color:#3daee9;
      }
      </style>
  </defs>
  <path
     style="color:#3daee9;fill:#00171e;fill-opacity:1;stroke:none"
     d="M 4,5.9999995 V 11 20 H 3 v 1 H 3.0019 C 3.001853,21.004 3,21.007999 3,21.01172 V 57 58 h 1 56 1 V 57 21.01172 21 16 h -1 v -4.990234 c 0,-0.003 -0.002,-0.0058 -0.002,-0.0098 H 60 V 9.9999995 H 32 l -4,-4 z"
     class="ColorScheme-Highlight"
     id="path4" />
  <path
     style="fill:#3daee9;fill-opacity:1;fill-rule:evenodd"
     d="M 4,5.9999995 V 11 20 h 18 l 4,-4 h 34 v -4.990234 c 0,-0.003 -0.002,-0.0058 -0.002,-0.0098 H 60 V 9.9999995 H 32 l -4,-4 z"
     id="path6" />
  <path
     style="fill:#ffffff;fill-opacity:0.2;fill-rule:evenodd"
     d="M 28,5.9999995 31,11 h 2 27 V 9.9999995 H 33 32 Z M 26,16 22,20 H 3 v 1 h 20 z"
     id="path8" />
  <path
     style="color:#31363b;fill-opacity:0.2;fill-rule:evenodd"
     d="m 26,16 -6,3 H 4 v 1 H 22 Z M 3,57 v 1 h 1 56 1 V 57 H 60 4 Z"
     class="ColorScheme-Text"
     id="path10" />
  <path
     style="color:#232629;fill:#ffffff;fill-opacity:1;stroke:none"
     d="m 30.777774,27.306227 v 4 h -2 l 4,4.367188 4,-4.367188 h -2 v -4 z m 1,10 v 1.101562 c -0.626,0.129 -1.22091,0.377469 -1.75391,0.730469 l -0.78125,-0.78125 -1.41406,1.414063 0.78125,0.78125 c -0.352,0.533 -0.59856,1.127906 -0.72656,1.753906 h -1.10547 v 2 h 1.10156 c 0.129,0.626 0.37747,1.220906 0.73047,1.753906 l -0.78125,0.78125 1.41406,1.414063 0.78125,-0.78125 c 0.533,0.352 1.12791,0.598562 1.75391,0.726562 v 1.105469 h 2 v -1.101562 c 0.626,-0.129 1.2209,-0.377469 1.7539,-0.730469 l 0.78125,0.78125 1.41407,-1.414063 -0.78125,-0.78125 c 0.352,-0.533 0.59856,-1.127906 0.72656,-1.753906 h 1.10547 v -2 h -1.10156 c -0.129,-0.626 -0.37747,-1.220906 -0.73047,-1.753906 l 0.78125,-0.78125 -1.41407,-1.414063 -0.78125,0.78125 c -0.533,-0.352 -1.1279,-0.598562 -1.7539,-0.726562 v -1.105469 z m 1,3 c 1.65685,0 3,1.343146 3,3 0,1.656854 -1.34315,3 -3,3 -1.65686,0 -3,-1.343146 -3,-3 0,-1.656854 1.34314,-3 3,-3 z"
     class="ColorScheme-Text"
     id="path375-3" />
</svg>
