<?xml version="1.0" encoding="UTF-8" standalone="no"?>
<svg
   viewBox="0 0 64 64"
   version="1.1"
   id="svg4222"
   sodipodi:docname="folder-comic.svg"
   inkscape:version="1.2.2 (b0a8486541, 2022-12-01)"
   xmlns:inkscape="http://www.inkscape.org/namespaces/inkscape"
   xmlns:sodipodi="http://sodipodi.sourceforge.net/DTD/sodipodi-0.dtd"
   xmlns="http://www.w3.org/2000/svg"
   xmlns:svg="http://www.w3.org/2000/svg">
  <sodipodi:namedview
     id="namedview4224"
     pagecolor="#ffffff"
     bordercolor="#000000"
     borderopacity="0.25"
     inkscape:showpageshadow="2"
     inkscape:pageopacity="0.0"
     inkscape:pagecheckerboard="0"
     inkscape:deskcolor="#d1d1d1"
     showgrid="false"
     inkscape:zoom="3.6875"
     inkscape:cx="19.254237"
     inkscape:cy="32.135593"
     inkscape:window-width="1920"
     inkscape:window-height="1002"
     inkscape:window-x="0"
     inkscape:window-y="0"
     inkscape:window-maximized="1"
     inkscape:current-layer="svg4222" />
  <defs
     id="defs3051">
    <style
       type="text/css"
       id="current-color-scheme">
      .ColorScheme-Text {
        color:#232629;
      }
      .ColorScheme-Highlight {
        color:#3daee9;
      }
      </style>
  </defs>
  <path
     style="color:#3daee9;fill:#00171e;fill-opacity:1;stroke:none"
     d="M 4.000001,5.9999995 V 11 20 h -1 v 1 h 0.002 c -5e-5,0.004 -0.002,0.008 -0.002,0.01172 V 57 58 h 1 55.999998 1 V 57 21.01172 21 16 h -1 v -4.990234 c 0,-0.003 -0.002,-0.0058 -0.002,-0.0098 h 0.002 V 9.9999996 h -28 l -4,-4.0000001 z"
     class="ColorScheme-Highlight"
     id="path4" />
  <path
     style="fill:#3daee9;fill-opacity:1;fill-rule:evenodd"
     d="M 4.000001,5.9999995 V 11 20 h 17.999998 l 4,-4 h 34 v -4.990234 c 0,-0.003 -0.002,-0.0058 -0.002,-0.0098 h 0.002 V 9.9999996 h -28 l -4,-4.0000001 z"
     id="path6" />
  <path
     style="fill:#ffffff;fill-opacity:0.2;fill-rule:evenodd"
     d="m 27.999999,5.9999995 3,5.0000005 h 2 27 V 9.9999996 h -27 -1 z m -2,10.0000005 -4,4 H 3.000001 v 1 h 19.999998 z"
     id="path8" />
  <path
     style="color:#31363b;fill-opacity:0.2;fill-rule:evenodd"
     d="m 25.999999,16 -6,3 H 4.000001 v 1 H 21.999999 Z M 3.000001,57 v 1 h 1 55.999998 1 v -1 h -1 -55.999998 z"
     class="ColorScheme-Text"
     id="path10" />
  <path
     style="color:#232629;fill:#ffffff;fill-opacity:1;stroke:none"
     d="m 27.5,27 v 5 h -6 v 10 l 4,5 v -5 h 11 v -5 h 2 v 5 l 4,-5 V 27 Z m 1,1 h 13 v 8 h -13 z m -6,5 h 5 v 4 h 8 v 4 h -13 z"
     class="ColorScheme-Text"
     id="path4220-5" />
</svg>
