<?xml version="1.0" encoding="UTF-8" standalone="no"?>
<svg
   viewBox="0 0 64 64"
   version="1.1"
   id="svg4843"
   sodipodi:docname="folder-design.svg"
   inkscape:version="1.2.2 (b0a8486541, 2022-12-01)"
   xmlns:inkscape="http://www.inkscape.org/namespaces/inkscape"
   xmlns:sodipodi="http://sodipodi.sourceforge.net/DTD/sodipodi-0.dtd"
   xmlns="http://www.w3.org/2000/svg"
   xmlns:svg="http://www.w3.org/2000/svg">
  <sodipodi:namedview
     id="namedview4845"
     pagecolor="#ffffff"
     bordercolor="#000000"
     borderopacity="0.25"
     inkscape:showpageshadow="2"
     inkscape:pageopacity="0.0"
     inkscape:pagecheckerboard="0"
     inkscape:deskcolor="#d1d1d1"
     showgrid="false"
     inkscape:zoom="3.6875"
     inkscape:cx="19.254237"
     inkscape:cy="32.135593"
     inkscape:window-width="1920"
     inkscape:window-height="1002"
     inkscape:window-x="0"
     inkscape:window-y="0"
     inkscape:window-maximized="1"
     inkscape:current-layer="svg4843" />
  <defs
     id="defs3051">
    <style
       type="text/css"
       id="current-color-scheme">
      .ColorScheme-Text {
        color:#232629;
      }
      .ColorScheme-Highlight {
        color:#3daee9;
      }
      </style>
  </defs>
  <path
     style="color:#3daee9;fill:#00171e;fill-opacity:1;stroke:none"
     d="m 4,6 v 5 9 H 3 v 1 H 3.002 C 3.00195,21.004 3,21.00802 3,21.011719 V 57 58 h 1 56 1 V 57 21.011719 21 16 h -1 v -4.990234 c 0,-0.003 -0.002,-0.0058 -0.002,-0.0098 H 60 V 10 H 32 L 28,6 Z"
     class="ColorScheme-Highlight"
     id="path4" />
  <path
     style="fill:#3daee9;fill-opacity:1;fill-rule:evenodd"
     d="m 4,6 v 5 9 h 18 l 4,-4 h 34 v -4.990234 c 0,-0.003 -0.002,-0.0058 -0.002,-0.0098 H 60 V 10 H 32 L 28,6 Z"
     id="path6" />
  <path
     style="fill:#ffffff;fill-opacity:0.2;fill-rule:evenodd"
     d="m 28,6 3,5 h 2 27 V 10 H 33 32 Z m -2,10 -4,4 H 3 v 1 h 20 z"
     id="path8" />
  <path
     style="color:#31363b;fill-opacity:0.2;fill-rule:evenodd"
     d="m 26,16 -6,3 H 4 v 1 H 22 Z M 3,57 v 1 h 1 56 1 V 57 H 60 4 Z"
     class="ColorScheme-Text"
     id="path10" />
  <path
     style="color:#232629;fill:#ffffff;fill-opacity:1;stroke:none"
     d="m 31.965965,22.643531 c -0.50689,0 -0.92187,0.409126 -0.92187,0.916016 v 0.83789 c -1.6334,0.41943 -2.8086,1.868131 -2.8086,3.609375 0,1.21888 0.58194,2.303638 1.49024,2.986328 0.0967,0.114271 0.15625,0.258772 0.15625,0.419922 0,0.04688 4e-5,0.09277 -0.006,0.136719 l -4.03711,8.556641 h -1.66992 c -0.27249,0 -0.4961,0.219697 -0.4961,0.492187 v 0.002 c 0,0.27249 0.22361,0.492188 0.4961,0.492188 h 1.20508 l -3.11719,6.607422 c -0.19631,0.41899 -0.0987,0.903287 0.20898,1.216797 l -1.20117,2.439453 1.89844,-2.056641 c 0.50396,0.13185 1.04294,-0.108347 1.27148,-0.591797 l 3.59375,-7.615234 h 3.15821 v 0.654297 c 0,0.41606 0.33882,0.751953 0.75781,0.751953 h 0.041 c 0.41899,0 0.75977,-0.335893 0.75977,-0.751953 v -0.654297 h 3.23047 l 3.5918,7.615234 c 0.22561,0.48638 0.7685,0.723647 1.26953,0.591797 l 1.89843,2.056641 -1.19726,-2.439453 c 0.30472,-0.31351 0.40334,-0.794877 0.20703,-1.216797 l -3.11719,-6.607422 h 1.13086 c 0.27542,0 0.4961,-0.219698 0.4961,-0.492188 0,-0.27249 -0.22068,-0.49124 -0.4961,-0.49414 h -1.5957 l -4.03516,-8.556641 c -0.006,-0.04395 -0.006,-0.08984 -0.006,-0.136719 0,-0.15822 0.0586,-0.305651 0.15235,-0.419922 0.9083,-0.68269 1.49414,-1.767448 1.49414,-2.986328 0,-1.765071 -1.23047,-3.23164 -2.88281,-3.628906 v -0.818359 c 0,-0.50689 -0.41011,-0.916016 -0.91993,-0.916016 z m 0.87696,3.378906 c 0.77717,0.326475 1.32226,1.091537 1.32226,1.984375 0,1.18958 -0.96667,2.154297 -2.16211,2.154297 -1.2013,0 -2.16211,-0.964717 -2.16211,-2.154297 0,-0.863919 0.51357,-1.604318 1.25391,-1.947265 0.10977,0.381986 0.44956,0.667969 0.87109,0.667969 0.43244,-1e-6 0.7793,-0.303272 0.87696,-0.705079 z m -0.85743,7.154297 h 0.0176 0.0176 c 0.1172,0 0.2207,0.05468 0.28516,0.136719 l 3.20508,6.792969 h -2.76563 V 39.3115 c 0,-0.41899 -0.34078,-0.75586 -0.75977,-0.75586 h -0.041 c -0.41899,1e-6 -0.75781,0.3398 -0.75781,0.75586 v 0.794922 h -2.69336 l 3.20508,-6.792969 c 0.0674,-0.08497 0.1699,-0.136719 0.2871,-0.136719 z"
     class="ColorScheme-Text"
     id="path4841-6" />
</svg>
