<?xml version="1.0" encoding="UTF-8" standalone="no"?>
<svg
   viewBox="0 0 64 64"
   version="1.1"
   id="svg14158"
   sodipodi:docname="folder-presentation.svg"
   inkscape:version="1.2.2 (b0a8486541, 2022-12-01)"
   xmlns:inkscape="http://www.inkscape.org/namespaces/inkscape"
   xmlns:sodipodi="http://sodipodi.sourceforge.net/DTD/sodipodi-0.dtd"
   xmlns="http://www.w3.org/2000/svg"
   xmlns:svg="http://www.w3.org/2000/svg">
  <sodipodi:namedview
     id="namedview14160"
     pagecolor="#ffffff"
     bordercolor="#000000"
     borderopacity="0.25"
     inkscape:showpageshadow="2"
     inkscape:pageopacity="0.0"
     inkscape:pagecheckerboard="0"
     inkscape:deskcolor="#d1d1d1"
     showgrid="false"
     inkscape:zoom="3.6875"
     inkscape:cx="19.254237"
     inkscape:cy="32.135593"
     inkscape:window-width="1920"
     inkscape:window-height="1002"
     inkscape:window-x="0"
     inkscape:window-y="0"
     inkscape:window-maximized="1"
     inkscape:current-layer="svg14158" />
  <defs
     id="defs3051">
    <style
       type="text/css"
       id="current-color-scheme">
      .ColorScheme-Text {
        color:#232629;
      }
      .ColorScheme-Highlight {
        color:#3daee9;
      }
      </style>
  </defs>
  <path
     style="color:#3daee9;fill:#00171e;fill-opacity:1;stroke:none"
     d="m 4,6 v 5 9 H 3 v 1 H 3.0019 C 3.001853,21.004 3,21.008 3,21.01172 v 35.988281 1 h 1 56 1 v -1 V 21.01172 21 16 h -1 v -4.990234 c 0,-0.003 -0.002,-0.0058 -0.002,-0.0098 H 60 V 10 H 32 L 28,6 Z"
     class="ColorScheme-Highlight"
     id="path4" />
  <path
     style="fill:#3daee9;fill-opacity:1;fill-rule:evenodd"
     d="m 4,6 v 5 9 h 18 l 4,-4 h 34 v -4.990234 c 0,-0.003 -0.002,-0.0058 -0.002,-0.0098 H 60 V 10 H 32 L 28,6 Z"
     id="path6" />
  <path
     style="fill:#ffffff;fill-opacity:0.2;fill-rule:evenodd"
     d="m 28,6 3,5 h 2 27 V 10 H 33 32 Z m -2,10 -4,4 H 3 v 1 h 20 z"
     id="path8" />
  <path
     style="color:#31363b;fill-opacity:0.2;fill-rule:evenodd"
     d="m 26,16 -6,3 H 4 v 1 H 22 Z M 3,57 v 1 h 1 56 1 V 57 H 60 4 Z"
     class="ColorScheme-Text"
     id="path10" />
  <path
     style="color:#232629;fill:#ffffff;fill-opacity:0.95741099;stroke:none"
     d="m 22,26 c -0.554,0 -1,0.446 -1,1 v 20 c 0,0.554 0.446,1 1,1 h 20 c 0.554,0 1,-0.446 1,-1 V 27 c 0,-0.554 -0.446,-1 -1,-1 z m 0,1 H 42 V 47 H 22 Z m 12,2 v 4 h 4 c 0,-2.2 -1.8,-4 -4,-4 z m -2,1 a 5,5 0 0 0 -5,5 5,5 0 0 0 5,5 5,5 0 0 0 5,-5 5,5 0 0 0 -0.1,-1 H 33 V 30.1 A 5,5 0 0 0 32,30 Z m 0,1 v 4 h 4 a 4,4 0 0 1 -4,4 4,4 0 0 1 -4,-4 4,4 0 0 1 4,-4 z m -8,11 v 1 h 16 v -1 z m 0,2 v 1 h 16 v -1 z"
     class="ColorScheme-Text"
     id="path14156-8" />
</svg>
