<?xml version="1.0" encoding="UTF-8" standalone="no"?>
<svg
   width="24"
   height="24"
   viewBox="0 0 24 24"
   version="1.1"
   id="svg5"
   sodipodi:docname="media-playback-paused.svg"
   inkscape:version="1.4.2 (unknown)"
   xmlns:inkscape="http://www.inkscape.org/namespaces/inkscape"
   xmlns:sodipodi="http://sodipodi.sourceforge.net/DTD/sodipodi-0.dtd"
   xmlns="http://www.w3.org/2000/svg"
   xmlns:svg="http://www.w3.org/2000/svg">
  <defs
     id="defs5" />
  <sodipodi:namedview
     id="namedview5"
     pagecolor="#ffffff"
     bordercolor="#000000"
     borderopacity="0.25"
     inkscape:showpageshadow="2"
     inkscape:pageopacity="0.0"
     inkscape:pagecheckerboard="0"
     inkscape:deskcolor="#d1d1d1"
     inkscape:zoom="15.854167"
     inkscape:cx="10.596583"
     inkscape:cy="27.09067"
     inkscape:current-layer="svg5" />
  <style
     type="text/css"
     id="current-color-scheme">.ColorScheme-Text { color: #fcfcfc; } </style>
  <g
     id="g5"
     transform="translate(0,-26.2)">
    <path
       d="m 9,35.2 h 2 v 6 H 9 Z"
       id="path2"
       style="color:#fcfcfc;fill:#fcfcfc;fill-rule:evenodd" />
    <path
       d="m 13,35.2 h 2 v 6 h -2 z"
       id="path3"
       style="color:#fcfcfc;fill:#fcfcfc;fill-rule:evenodd" />
    <path
       d="m 12,30.2 a 8,8 0 0 0 -8,8 8,8 0 0 0 8,8 8,8 0 0 0 8,-8 8,8 0 0 0 -8,-8 z m 0,1 a 7,7 0 0 1 7,7 7,7 0 0 1 -7,7 7,7 0 0 1 -7,-7 7,7 0 0 1 7,-7 z"
       id="path4"
       style="color:#fcfcfc;fill:#fcfcfc;fill-rule:evenodd" />
  </g>
</svg>
