<?xml version="1.0" encoding="UTF-8" standalone="no"?>
<svg
   width="22"
   height="22"
   version="1.1"
   id="svg1"
   sodipodi:docname="kopete-symbolic.svg"
   inkscape:version="1.3.2 (091e20ef0f, 2023-11-25)"
   xmlns:inkscape="http://www.inkscape.org/namespaces/inkscape"
   xmlns:sodipodi="http://sodipodi.sourceforge.net/DTD/sodipodi-0.dtd"
   xmlns="http://www.w3.org/2000/svg"
   xmlns:svg="http://www.w3.org/2000/svg">
  <defs
     id="defs1" />
  <sodipodi:namedview
     id="namedview1"
     pagecolor="#ffffff"
     bordercolor="#999999"
     borderopacity="1"
     inkscape:showpageshadow="2"
     inkscape:pageopacity="0"
     inkscape:pagecheckerboard="0"
     inkscape:deskcolor="#d1d1d1"
     inkscape:zoom="12.245804"
     inkscape:cx="7.1044744"
     inkscape:cy="15.025555"
     inkscape:window-width="1920"
     inkscape:window-height="994"
     inkscape:window-x="0"
     inkscape:window-y="0"
     inkscape:window-maximized="1"
     inkscape:current-layer="svg1" />
  <style
     type="text/css"
     id="current-color-scheme">.ColorScheme-Text{color:#31363b;}.ColorScheme-Background{color:#eff0f1;}.ColorScheme-Highlight{color:#3daee9;}.ColorScheme-ViewText{color:#31363b;}.ColorScheme-ViewBackground{color:#fcfcfc;}.ColorScheme-ViewHover{color:#93cee9;}.ColorScheme-ViewFocus{color:#3daee9;}.ColorScheme-ButtonText{color:#31363b;}.ColorScheme-ButtonBackground{color:#eff0f1;}.ColorScheme-ButtonHover{color:#93cee9;}.ColorScheme-ButtonFocus { color: #3daee9; } </style>
  <g
     id="22-22-kopete"
     transform="translate(-32,-10)">
    <rect
       style="opacity:0.00100002"
       width="22"
       height="22"
       x="32"
       y="10"
       id="rect2" />
    <path
       d="M 52.340767,20.456309 C 52.340767,16.339799 48.185433,13 43.0204,13 37.855331,13 33.7,16.339799 33.7,20.456309 c 0,4.116506 4.155331,7.456312 9.3204,7.456312 1.51456,0 2.951445,-0.310679 4.232996,-0.815534 C 48.301949,28.145631 50.04952,28.76699 52.301949,29 51.29224,27.524272 50.74855,26.048544 50.709702,24.650486 c 1.048554,-1.16505 1.631065,-2.640778 1.631065,-4.194177 z M 40.263118,17.582518 c 0.699026,0 1.281552,0.582522 1.281552,1.281562 0,0.699036 -0.582526,1.281558 -1.281552,1.281558 -0.699038,0 -1.281566,-0.582522 -1.281566,-1.281558 0,-0.69904 0.582528,-1.281562 1.281566,-1.281562 z m 6.563087,5.864083 C 45.77768,24.495145 44.41845,25 43.0204,25 c -1.359233,0 -2.757282,-0.504855 -3.805835,-1.553399 -0.233013,-0.233009 -0.233013,-0.582524 0,-0.815533 0.233014,-0.23301 0.582514,-0.23301 0.81554,0 1.631062,1.631068 4.310662,1.631068 5.94174,0 0.233013,-0.23301 0.582514,-0.23301 0.81554,0 0.233012,0.233009 0.271847,0.582524 0.03884,0.815533 z M 45.77768,20.145638 c -0.69904,0 -1.281563,-0.582522 -1.281563,-1.281558 0,-0.69904 0.582523,-1.281562 1.281563,-1.281562 0.699024,0 1.281552,0.582522 1.281552,1.281562 0,0.699036 -0.582528,1.281558 -1.281552,1.281558 z"
       id="path2-3"
       style="fill:#d7f1f8;fill-opacity:1;stroke-width:0.388357" />
  </g>
</svg>
