<?xml version="1.0" encoding="UTF-8" standalone="no"?>
<svg
   width="22"
   height="22"
   version="1.1"
   id="svg1"
   sodipodi:docname="ktorrent-symbolic.svg"
   inkscape:version="1.3.2 (091e20ef0f, 2023-11-25)"
   xmlns:inkscape="http://www.inkscape.org/namespaces/inkscape"
   xmlns:sodipodi="http://sodipodi.sourceforge.net/DTD/sodipodi-0.dtd"
   xmlns="http://www.w3.org/2000/svg"
   xmlns:svg="http://www.w3.org/2000/svg">
  <defs
     id="defs1" />
  <sodipodi:namedview
     id="namedview1"
     pagecolor="#ffffff"
     bordercolor="#999999"
     borderopacity="1"
     inkscape:showpageshadow="2"
     inkscape:pageopacity="0"
     inkscape:pagecheckerboard="0"
     inkscape:deskcolor="#d1d1d1"
     inkscape:zoom="8.6590909"
     inkscape:cx="4.503937"
     inkscape:cy="19.979003"
     inkscape:window-width="1920"
     inkscape:window-height="994"
     inkscape:window-x="0"
     inkscape:window-y="0"
     inkscape:window-maximized="1"
     inkscape:current-layer="svg1" />
  <style
     type="text/css"
     id="current-color-scheme">.ColorScheme-Text{color:#31363b;}.ColorScheme-Background{color:#eff0f1;}.ColorScheme-Highlight{color:#3daee9;}.ColorScheme-ViewText{color:#31363b;}.ColorScheme-ViewBackground{color:#fcfcfc;}.ColorScheme-ViewHover{color:#93cee9;}.ColorScheme-ViewFocus{color:#3daee9;}.ColorScheme-ButtonText{color:#31363b;}.ColorScheme-ButtonBackground{color:#eff0f1;}.ColorScheme-ButtonHover{color:#93cee9;}.ColorScheme-ButtonFocus { color: #3daee9; } </style>
  <g
     id="22-22-ktorrent">
    <rect
       style="opacity:0.00100002"
       width="22"
       height="22"
       x="0"
       y="0"
       id="rect2" />
    <path
       d="m 16.11592,12.589338 c 1.63696,0 2.96875,-1.312836 2.96875,-2.926509 0,-1.130378 -0.661333,-2.150804 -1.67643,-2.634628 C 17.36986,6.44408 17.130793,5.897769 16.717707,5.462912 16.071217,4.782417 15.081527,4.496828 14.153309,4.747634 13.508001,3.673435 12.3302,3 11.042328,3 9.754465,3 8.576669,3.673435 7.931365,4.747657 7.003507,4.496915 6.013931,4.782247 5.36724,5.462725 4.95416,5.89736 4.714998,6.44376 4.676481,7.028201 3.661413,7.511959 3,8.532451 3,9.662829 c 0,1.613673 1.331791,2.926509 2.968752,2.926509 h 3.257369 l -3.2e-5,0.535279 H 7.69032 c -0.378932,0 -0.602963,0.420148 -0.3882,0.727822 L 11.09588,19 v 0 0 0 0 0 0 0 0 0 0 0 0 0 l 3.686709,-5.147874 c 0.21481,-0.30776 -0.0092,-0.727903 -0.388295,-0.727847 l -1.536025,2.81e-4 3.4e-5,-0.5352 H 16.11592 Z M 5.968752,11.66028 c -1.117292,0 -2.026287,-0.896057 -2.026287,-1.997451 0,-0.848812 0.546343,-1.606816 1.359535,-1.886148 C 5.502008,7.708041 5.630947,7.516132 5.617156,7.307779 5.587266,6.85611 5.742754,6.426429 6.055013,6.097879 6.568245,5.557833 7.343609,5.455544 7.956146,5.744691 c 0.2404,0.113412 0.528785,0.008 0.635452,-0.233227 0.425391,-0.961287 1.387362,-1.582423 2.45073,-1.582423 1.063384,0 2.025356,0.621136 2.450751,1.582423 0.106586,0.240776 0.394766,0.346749 0.635441,0.233227 0.613061,-0.289372 1.388556,-0.186467 1.901285,0.35329 0.312338,0.328762 0.467838,0.75835 0.437778,1.209646 -0.01381,0.208394 0.11504,0.400353 0.315118,0.469054 0.813124,0.279359 1.359499,1.037336 1.359499,1.886148 0,1.101394 -0.909,1.997451 -2.02628,1.997451 h -3.257596 l 1.95e-4,-3.689123 c 0,-0.256414 -0.211022,-0.464556 -0.471259,-0.464556 L 9.697565,7.50676 c -0.260243,0 -0.471201,0.207983 -0.471201,0.464489 l -2.1e-4,3.689031 z m 7.529197,2.393204 -2.455955,3.518279 -2.455465,-3.518088 h 1.110757 c 0.260236,0 0.471235,-0.207956 0.471235,-0.464495 3e-5,-0.509771 2.4e-4,-4.64782 2.76e-4,-5.153413 l 1.747232,-8.7e-5 c -3.7e-5,0.504692 -2.57e-4,4.645032 -2.81e-4,5.153434 0,0.25639 0.211013,0.464615 0.471324,0.464561 z"
       id="path2-3-6"
       sodipodi:nodetypes="cscccscscssccscccccccccccccccccccccsscccccscccccssccccccscccscccccc"
       style="fill:#d7f1f8;fill-opacity:1;stroke-width:0.0311918" />
  </g>
</svg>
