<?xml version="1.0" encoding="UTF-8" standalone="no"?>
<svg
   viewBox="0 0 32 32"
   version="1.1"
   id="svg25854"
   sodipodi:docname="folder-blender.svg"
   inkscape:version="1.2.2 (b0a8486541, 2022-12-01)"
   xmlns:inkscape="http://www.inkscape.org/namespaces/inkscape"
   xmlns:sodipodi="http://sodipodi.sourceforge.net/DTD/sodipodi-0.dtd"
   xmlns="http://www.w3.org/2000/svg"
   xmlns:svg="http://www.w3.org/2000/svg">
  <sodipodi:namedview
     id="namedview25856"
     pagecolor="#ffffff"
     bordercolor="#000000"
     borderopacity="0.25"
     inkscape:showpageshadow="2"
     inkscape:pageopacity="0.0"
     inkscape:pagecheckerboard="0"
     inkscape:deskcolor="#d1d1d1"
     showgrid="false"
     inkscape:zoom="7.375"
     inkscape:cx="9.6271186"
     inkscape:cy="16.067797"
     inkscape:window-width="1920"
     inkscape:window-height="1002"
     inkscape:window-x="0"
     inkscape:window-y="0"
     inkscape:window-maximized="1"
     inkscape:current-layer="svg25854" />
  <defs
     id="defs3051">
    <style
       type="text/css"
       id="current-color-scheme">
      .ColorScheme-Text {
        color:#31363b;
      }
      .ColorScheme-Highlight {
        color:#3daee9;
      }
      </style>
  </defs>
  <path
     style="fill:#f89406"
     d="M 2 3 L 2 10 L 1 10 L 1 29 L 12 29 L 13 29 L 31 29 L 31 8 L 30 8 L 30 5 L 16 5 L 14 3 L 2 3 z "
     id="path25844" />
  <path
     style="fill-opacity:0.33;fill-rule:evenodd"
     d="m 2,3 0,7 9,0 L 13,8 30,8 30,5 16,5 14,3 2,3 Z"
     id="path25846" />
  <path
     style="fill:#ffffff;fill-opacity:0.2;fill-rule:evenodd"
     d="M 14 3 L 15 6 L 30 6 L 30 5 L 16 5 L 14 3 z M 13 8 L 11 10 L 1 10 L 1 11 L 12 11 L 13 8 z "
     id="path25848" />
  <path
     style="fill-opacity:0.2;fill-rule:evenodd"
     d="M 13 8 L 11 9 L 2 9 L 2 10 L 11 10 L 13 8 z M 1 28 L 1 29 L 31 29 L 31 28 L 1 28 z "
     class="ColorScheme-Text"
     id="path25850" />
  <path
     style="fill:#002d3c;fill-opacity:1;stroke:none"
     d="m 15.488744,12.000397 v 0.002 c -0.129888,0.0021 -0.253873,0.0546 -0.345703,0.146484 -0.195211,0.195253 -0.195211,0.511777 0,0.707031 l 3.099147,3.149993 c -0.07998,-0.005 -0.160096,-0.0076 -0.240235,-0.0078 h -7.5 c -0.276142,0 -0.5,0.223858 -0.5,0.5 0,0.276142 0.223858,0.5 0.5,0.5 h 4.792969 l -5.146484,5.146484 c -0.1952163,0.195253 -0.1952163,0.511778 0,0.707031 0.195256,0.1952 0.511775,0.1952 0.707031,0 L 14.019531,19.6875 c -0.0099,0.103249 -0.01575,0.206843 -0.01758,0.310547 0,2.209139 1.790861,4 4,4 2.209139,0 4,-1.790861 4,-4 -0.0012,-0.952019 -0.341936,-1.872392 -0.960937,-2.595703 l 0.0059,-0.0059 -0.134766,-0.136718 c -0.06525,-0.07012 -0.133006,-0.137871 -0.203125,-0.203125 l -4.858911,-4.909759 c -0.09566,-0.09571 -0.226026,-0.148563 -0.361329,-0.146485 z m 2.513209,4.99765 c 0.736552,8.88e-4 1.447037,0.272708 1.996094,0.763672 l 0.226562,0.226562 c 0.499074,0.550532 0.776072,1.266692 0.777344,2.009766 0,1.656854 -1.343146,3 -3,3 -1.656854,0 -3,-1.343146 -3,-3 0,-1.656854 1.343146,-3 3,-3 z m 0,2 c -0.552285,0 -1,0.447715 -1,1 0,0.552285 0.447715,1 1,1 0.552285,0 1,-0.447715 1,-1 0,-0.552285 -0.447715,-1 -1,-1 z"
     class="ColorScheme-Text"
     id="path25852" />
</svg>
