<?xml version="1.0" encoding="UTF-8" standalone="no"?>
<svg
   viewBox="0 0 32 32"
   version="1.1"
   id="svg10704"
   sodipodi:docname="folder-rpm.svg"
   inkscape:version="1.2.2 (b0a8486541, 2022-12-01)"
   xmlns:inkscape="http://www.inkscape.org/namespaces/inkscape"
   xmlns:sodipodi="http://sodipodi.sourceforge.net/DTD/sodipodi-0.dtd"
   xmlns="http://www.w3.org/2000/svg"
   xmlns:svg="http://www.w3.org/2000/svg">
  <sodipodi:namedview
     id="namedview10706"
     pagecolor="#ffffff"
     bordercolor="#000000"
     borderopacity="0.25"
     inkscape:showpageshadow="2"
     inkscape:pageopacity="0.0"
     inkscape:pagecheckerboard="0"
     inkscape:deskcolor="#d1d1d1"
     showgrid="false"
     inkscape:zoom="7.375"
     inkscape:cx="9.6271186"
     inkscape:cy="16.067797"
     inkscape:window-width="1920"
     inkscape:window-height="1002"
     inkscape:window-x="0"
     inkscape:window-y="0"
     inkscape:window-maximized="1"
     inkscape:current-layer="svg10704" />
  <defs
     id="defs3051">
    <style
       type="text/css"
       id="current-color-scheme">
      .ColorScheme-Text {
        color:#31363b;
      }
      .ColorScheme-Highlight {
        color:#3daee9;
      }
      </style>
  </defs>
  <path
     style="fill:#cf000f"
     d="M 2 3 L 2 10 L 1 10 L 1 29 L 12 29 L 13 29 L 31 29 L 31 8 L 30 8 L 30 5 L 16 5 L 14 3 L 2 3 z "
     id="path10694" />
  <path
     style="fill-opacity:0.33;fill-rule:evenodd"
     d="m 2,3 0,7 9,0 L 13,8 30,8 30,5 16,5 14,3 2,3 Z"
     id="path10696" />
  <path
     style="fill:#ffffff;fill-opacity:0.2;fill-rule:evenodd"
     d="M 14 3 L 15 6 L 30 6 L 30 5 L 16 5 L 14 3 z M 13 8 L 11 10 L 1 10 L 1 11 L 12 11 L 13 8 z "
     id="path10698" />
  <path
     style="fill-opacity:0.2;fill-rule:evenodd"
     d="M 13 8 L 11 9 L 2 9 L 2 10 L 11 10 L 13 8 z M 1 28 L 1 29 L 31 29 L 31 28 L 1 28 z "
     class="ColorScheme-Text"
     id="path10700" />
  <path
     style="fill:#002d3c;fill-opacity:1;stroke:none"
     d="M 16 12 A 6 6 0 0 0 10 18 A 6 6 0 0 0 16 24 A 6 6 0 0 0 22 18 A 6 6 0 0 0 16 12 z M 16 13 A 5. 5 0 0 1 21 18 A 5. 5 0 0 1 16 23 A 5. 5 0 0 1 11 18 A 5. 5 0 0 1 16 13 z M 16 14 A 4 4 0 0 0 13.441406 14.927734 L 14.082031 15.7 A 3 3 0 0 1 16 15 A 3 3 0 0 1 19 18 L 20 18 A 4 4 0 0 0 16 14 z M 17 16 L 15.398438 19.203125 A 1 1 0 0 0 15 20 A 1 1 0 0 0 16 21 A 1 1 0 0 0 17 20 A 1 1 0 0 0 16.75 19.3 L 17 16 z M 12.53125 16.017578 A 4 4 0 0 0 12 18 L 13 18 A 3 3 0 0 1 13.4 16.5 L 12.5 16 z "
     class="ColorScheme-Text"
     id="path10702" />
</svg>
