<?xml version="1.0" encoding="UTF-8" standalone="no"?>
<svg
   viewBox="0 0 32 32"
   version="1.1"
   id="svg12"
   sodipodi:docname="folder-design.svg"
   inkscape:version="1.2.2 (b0a8486541, 2022-12-01)"
   xmlns:inkscape="http://www.inkscape.org/namespaces/inkscape"
   xmlns:sodipodi="http://sodipodi.sourceforge.net/DTD/sodipodi-0.dtd"
   xmlns:xlink="http://www.w3.org/1999/xlink"
   xmlns="http://www.w3.org/2000/svg"
   xmlns:svg="http://www.w3.org/2000/svg"
   xmlns:rdf="http://www.w3.org/1999/02/22-rdf-syntax-ns#"
   xmlns:cc="http://creativecommons.org/ns#"
   xmlns:dc="http://purl.org/dc/elements/1.1/">
  <metadata
     id="metadata16">
    <rdf:RDF>
      <cc:Work
         rdf:about="">
        <dc:format>image/svg+xml</dc:format>
        <dc:type
           rdf:resource="http://purl.org/dc/dcmitype/StillImage" />
      </cc:Work>
    </rdf:RDF>
  </metadata>
  <sodipodi:namedview
     pagecolor="#ffffff"
     bordercolor="#666666"
     borderopacity="1"
     objecttolerance="10"
     gridtolerance="10"
     guidetolerance="10"
     inkscape:pageopacity="0"
     inkscape:pageshadow="2"
     inkscape:window-width="1920"
     inkscape:window-height="1002"
     id="namedview14"
     showgrid="false"
     inkscape:zoom="7.375"
     inkscape:cx="9.7627119"
     inkscape:cy="16.067797"
     inkscape:window-x="0"
     inkscape:window-y="0"
     inkscape:window-maximized="1"
     inkscape:current-layer="svg12"
     inkscape:showpageshadow="2"
     inkscape:pagecheckerboard="0"
     inkscape:deskcolor="#d1d1d1" />
  <defs
     id="defs3051">
    <linearGradient
       inkscape:collect="always"
       id="linearGradient827">
      <stop
         style="stop-color:#005f88;stop-opacity:1"
         offset="0"
         id="stop823" />
      <stop
         style="stop-color:#05b1ff;stop-opacity:1"
         offset="1"
         id="stop825" />
    </linearGradient>
    <style
       type="text/css"
       id="current-color-scheme">
      .ColorScheme-Text {
        color:#31363b;
      }
      .ColorScheme-Background {
        color:#eff0f1;
      }
      .ColorScheme-Highlight {
        color:#3daee9;
      }
      .ColorScheme-ViewText {
        color:#31363b;
      }
      .ColorScheme-ViewBackground {
        color:#fcfcfc;
      }
      .ColorScheme-ViewHover {
        color:#93cee9;
      }
      .ColorScheme-ViewFocus{
        color:#3daee9;
      }
      .ColorScheme-ButtonText {
        color:#31363b;
      }
      .ColorScheme-ButtonBackground {
        color:#eff0f1;
      }
      .ColorScheme-ButtonHover {
        color:#93cee9;
      }
      .ColorScheme-ButtonFocus{
        color:#3daee9;
      }
      </style>
    <linearGradient
       inkscape:collect="always"
       xlink:href="#linearGradient827"
       id="linearGradient829"
       x1="2"
       y1="6.5"
       x2="30"
       y2="6.5"
       gradientUnits="userSpaceOnUse" />
  </defs>
  <path
     style="fill:#a1b4ba;fill-opacity:1;stroke:none"
     d="M 2 3 L 2 10 L 1 10 L 1 29 L 12 29 L 13 29 L 31 29 L 31 8 L 30 8 L 30 5 L 16 5 L 14 3 L 2 3 z "
     class="ColorScheme-Highlight"
     id="path4" />
  <path
     style="fill-opacity:1;fill-rule:evenodd;fill:url(#linearGradient829)"
     d="m 2,3 0,7 9,0 L 13,8 30,8 30,5 16,5 14,3 2,3 Z"
     id="path6" />
  <path
     style="fill:#ffffff;fill-opacity:0.2;fill-rule:evenodd"
     d="M 14 3 L 15 6 L 30 6 L 30 5 L 16 5 L 14 3 z M 13 8 L 11 10 L 1 10 L 1 11 L 12 11 L 13 8 z "
     id="path8" />
  <path
     style="fill-opacity:0.2;fill-rule:evenodd"
     d="M 13 8 L 11 9 L 2 9 L 2 10 L 11 10 L 13 8 z M 1 28 L 1 29 L 31 29 L 31 28 L 1 28 z "
     class="ColorScheme-Text"
     id="path10" />
  <path
     style="color:#31363b;fill:#002d3c;fill-opacity:1;stroke:none"
     d="m 16.065429,11.806641 c -1.104569,0 -1.999999,0.895431 -1.999999,2 4.3e-4,0.674073 0.340383,1.302583 0.904297,1.671875 L 12.948242,19.80664 H 12.56543 c -0.277001,0 -0.5,0.223 -0.5,0.5 0,0.248634 0.182806,0.444971 0.419922,0.484375 l -1.236328,2.619141 c -0.09574,0.204347 -0.04849,0.440847 0.101562,0.59375 l -0.585937,1.189453 0.925781,-1.001953 c 0.245788,0.0643 0.509632,-0.05327 0.621094,-0.289063 l 1.460937,-3.095703 h 2.292968 v 0.5 c 0,0.277001 0.223,0.5 0.5,0.5 0.277001,0 0.5,-0.222999 0.5,-0.5 v -0.5 h 1.166016 l 1.460937,3.095703 c 0.110033,0.237215 0.372829,0.353368 0.617188,0.289063 l 0.925781,1.001953 -0.583984,-1.189453 c 0.148617,-0.152903 0.197305,-0.387974 0.101562,-0.59375 L 19.524414,20.80664 h 0.04102 c 0.277,0 0.5,-0.222999 0.5,-0.5 0,-0.277 -0.223,-0.5 -0.5,-0.5 h -0.511718 l -1.966797,-4.283202 c 0.605847,-0.359916 0.977574,-1.012106 0.978515,-1.716797 0,-1.104569 -0.89543,-2 -2,-2 z m 0,1 c 0.552286,0 1,0.447715 1,1 0,0.552285 -0.447714,1 -1,1 -0.552285,0 -0.999999,-0.447715 -0.999999,-1 0,-0.552285 0.447714,-1 0.999999,-1 z m 0.08398,3.58789 1.60938,3.412109 h -0.69336 v -0.5 c 0,-0.277 -0.222999,-0.5 -0.5,-0.5 -0.277,0 -0.5,0.223 -0.5,0.5 v 0.5 h -1.822265 l 1.609375,-3.412109 c 0.08014,-0.129469 0.21289,-0.121094 0.296875,0 z"
     class="ColorScheme-Text"
     id="path6112" />
</svg>
