<?xml version="1.0" encoding="UTF-8" standalone="no"?>
<svg
   viewBox="0 0 64 64"
   version="1.1"
   id="svg12"
   sodipodi:docname="folder-inkscape.svg"
   inkscape:version="1.2.2 (b0a8486541, 2022-12-01)"
   xmlns:inkscape="http://www.inkscape.org/namespaces/inkscape"
   xmlns:sodipodi="http://sodipodi.sourceforge.net/DTD/sodipodi-0.dtd"
   xmlns:xlink="http://www.w3.org/1999/xlink"
   xmlns="http://www.w3.org/2000/svg"
   xmlns:svg="http://www.w3.org/2000/svg"
   xmlns:rdf="http://www.w3.org/1999/02/22-rdf-syntax-ns#"
   xmlns:cc="http://creativecommons.org/ns#"
   xmlns:dc="http://purl.org/dc/elements/1.1/">
  <metadata
     id="metadata16">
    <rdf:RDF>
      <cc:Work
         rdf:about="">
        <dc:format>image/svg+xml</dc:format>
        <dc:type
           rdf:resource="http://purl.org/dc/dcmitype/StillImage" />
      </cc:Work>
    </rdf:RDF>
  </metadata>
  <sodipodi:namedview
     pagecolor="#ffffff"
     bordercolor="#666666"
     borderopacity="1"
     objecttolerance="10"
     gridtolerance="10"
     guidetolerance="10"
     inkscape:pageopacity="0"
     inkscape:pageshadow="2"
     inkscape:window-width="1920"
     inkscape:window-height="1002"
     id="namedview14"
     showgrid="false"
     inkscape:zoom="5.2149125"
     inkscape:cx="-12.272497"
     inkscape:cy="24.832631"
     inkscape:window-x="0"
     inkscape:window-y="0"
     inkscape:window-maximized="1"
     inkscape:current-layer="svg12"
     inkscape:showpageshadow="2"
     inkscape:pagecheckerboard="0"
     inkscape:deskcolor="#d1d1d1" />
  <defs
     id="defs3051">
    <linearGradient
       inkscape:collect="always"
       id="linearGradient831">
      <stop
         style="stop-color:#005f88;stop-opacity:1;"
         offset="0"
         id="stop827" />
      <stop
         style="stop-color:#05b1ff;stop-opacity:1"
         offset="1"
         id="stop829" />
    </linearGradient>
    <style
       type="text/css"
       id="current-color-scheme">
      .ColorScheme-Text {
        color:#31363b;
      }
      .ColorScheme-Background {
        color:#eff0f1;
      }
      .ColorScheme-Highlight {
        color:#3daee9;
      }
      .ColorScheme-ViewText {
        color:#31363b;
      }
      .ColorScheme-ViewBackground {
        color:#fcfcfc;
      }
      .ColorScheme-ViewHover {
        color:#93cee9;
      }
      .ColorScheme-ViewFocus{
        color:#3daee9;
      }
      .ColorScheme-ButtonText {
        color:#31363b;
      }
      .ColorScheme-ButtonBackground {
        color:#eff0f1;
      }
      .ColorScheme-ButtonHover {
        color:#93cee9;
      }
      .ColorScheme-ButtonFocus{
        color:#3daee9;
      }
      </style>
    <linearGradient
       inkscape:collect="always"
       xlink:href="#linearGradient831"
       id="linearGradient833"
       x1="4"
       y1="13"
       x2="60"
       y2="13"
       gradientUnits="userSpaceOnUse" />
  </defs>
  <path
     style="fill:#a1b4ba;fill-opacity:1;stroke:none"
     d="M 4 6 L 4 11 L 4 20 L 3 20 L 3 21 L 3.0019531 21 C 3.0019031 21.004 3 21.008019 3 21.011719 L 3 57 L 3 58 L 4 58 L 60 58 L 61 58 L 61 57 L 61 21.011719 L 61 21 L 61 16 L 60 16 L 60 11.009766 C 60 11.006766 59.998047 11.004 59.998047 11 L 60 11 L 60 10 L 32 10 L 28 6 L 4 6 z "
     class="ColorScheme-Highlight"
     id="path4" />
  <path
     style="fill-opacity:1;fill-rule:evenodd;fill:url(#linearGradient833)"
     d="M 4 6 L 4 11 L 4 20 L 22 20 L 26 16 L 60 16 L 60 11.009766 C 60 11.006766 59.998047 11.004 59.998047 11 L 60 11 L 60 10 L 32 10 L 28 6 L 4 6 z "
     id="path6" />
  <path
     style="fill:#ffffff;fill-opacity:0.2;fill-rule:evenodd"
     d="M 28 6 L 31 11 L 33 11 L 60 11 L 60 10 L 33 10 L 32 10 L 28 6 z M 26 16 L 22 20 L 3 20 L 3 21 L 23 21 L 26 16 z "
     id="path8" />
  <path
     style="fill-opacity:0.2;fill-rule:evenodd"
     d="M 26 16 L 20 19 L 4 19 L 4 20 L 22 20 L 26 16 z M 3 57 L 3 58 L 4 58 L 60 58 L 61 58 L 61 57 L 60 57 L 4 57 L 3 57 z "
     class="ColorScheme-Text"
     id="path10" />
  <path
     id="path18-3-9-7"
     d="m 31.832053,27.000013 c -0.618413,-0.002 -1.233308,0.226589 -1.677119,0.68702 l -7.382645,7.655957 c -2.4949,3.13075 1.69797,2.767319 3.495456,3.669034 0.644774,0.667758 -2.470966,1.158242 -1.826036,1.826566 0.64465,0.667884 3.895656,1.285877 4.541391,1.953676 0.644745,0.667855 -1.318735,1.37717 -0.673986,2.044911 0.644748,0.66781 2.134583,0.03454 2.413837,1.57641 0.198963,1.101718 2.68996,0.4734 3.906724,-0.428828 0.644779,-0.66834 -1.232556,-0.602887 -0.587837,-1.270629 1.60326,-1.661532 3.095753,-0.606599 3.644319,-2.271391 0.270941,-0.822627 -2.362157,-1.265967 -1.716365,-1.933766 1.855207,-1.097983 8.266057,-1.813233 5.22343,-4.896041 l -7.652806,-7.925899 c -0.468016,-0.45538 -1.090058,-0.68578 -1.708609,-0.687 z m 0.06283,0.72666 c 0.441562,0.0029 0.882187,0.171049 1.199094,0.496329 l 2.923266,3.00599 c 0.277045,0.286749 0.272598,0.84068 0.117648,1.00052 l -1.449944,-1.175291 -0.28605,1.74311 -1.210859,-0.64719 -1.94355,1.23885 -0.642669,-2.616679 -1.042363,1.826588 h -1.590982 c -0.649643,0 -0.727491,-0.835319 -0.137114,-1.433479 1.031251,-1.1279 2.213671,-2.276359 2.856621,-2.942419 0.323194,-0.334709 0.765367,-0.498689 1.206935,-0.496329 z m -3.506956,11.697801 c 0.197375,0.124149 3.181416,0.739041 3.910695,0.861701 0.2528,0.054 0.074,0.318092 -0.27427,0.496301 -0.785971,0.211682 -4.598498,-1.35801 -3.63656,-1.35801 z m 11.606988,2.104516 c -0.600575,0.02151 -1.192702,0.330417 -1.355933,0.91335 0,0.379883 2.758776,0.631146 2.758776,-0.08732 -0.196798,-0.577141 -0.802479,-0.846968 -1.402791,-0.826 z m -12.665101,1.64397 c -0.865624,-0.01063 -1.879135,0.635163 -1.132384,1.290448 0.654115,0.573104 1.664223,-0.145188 1.967071,-0.945049 -0.1782,-0.239991 -0.49592,-0.342239 -0.834661,-0.3454 z m 10.959989,0.05131 c -0.843079,0.76636 0.09384,1.543388 0.924703,1.048332 0.185181,-0.190507 -0.0075,-0.857818 -0.924703,-1.048332 z"
     stroke-width="1.97975"
     style="color:#eff0f1;fill:#002d3c;fill-opacity:1"
     class="ColorScheme-Text" />
</svg>
