<?xml version="1.0" encoding="UTF-8" standalone="no"?>
<svg
   width="22"
   height="22"
   version="1.1"
   id="svg1"
   sodipodi:docname="kmail-symbolic.svg"
   inkscape:version="1.3.2 (091e20ef0f, 2023-11-25)"
   xmlns:inkscape="http://www.inkscape.org/namespaces/inkscape"
   xmlns:sodipodi="http://sodipodi.sourceforge.net/DTD/sodipodi-0.dtd"
   xmlns="http://www.w3.org/2000/svg"
   xmlns:svg="http://www.w3.org/2000/svg">
  <defs
     id="defs1" />
  <sodipodi:namedview
     id="namedview1"
     pagecolor="#ffffff"
     bordercolor="#999999"
     borderopacity="1"
     inkscape:showpageshadow="2"
     inkscape:pageopacity="0"
     inkscape:pagecheckerboard="0"
     inkscape:deskcolor="#d1d1d1"
     inkscape:zoom="8.6590909"
     inkscape:cx="14.782152"
     inkscape:cy="1.1548556"
     inkscape:window-width="1920"
     inkscape:window-height="994"
     inkscape:window-x="0"
     inkscape:window-y="0"
     inkscape:window-maximized="1"
     inkscape:current-layer="svg1" />
  <style
     type="text/css"
     id="current-color-scheme">.ColorScheme-Text{color:#31363b;}.ColorScheme-Background{color:#eff0f1;}.ColorScheme-Highlight{color:#3daee9;}.ColorScheme-ViewText{color:#31363b;}.ColorScheme-ViewBackground{color:#fcfcfc;}.ColorScheme-ViewHover{color:#93cee9;}.ColorScheme-ViewFocus{color:#3daee9;}.ColorScheme-ButtonText{color:#31363b;}.ColorScheme-ButtonBackground{color:#eff0f1;}.ColorScheme-ButtonHover{color:#93cee9;}.ColorScheme-ButtonFocus { color: #3daee9; } </style>
  <g
     id="22-22-kmail"
     transform="translate(-32,-10)">
    <rect
       style="opacity:0.00100002"
       width="22"
       height="22"
       x="32"
       y="10"
       id="rect2" />
    <path
       inkscape:connector-curvature="0"
       id="path4252-3"
       style="font-style:normal;font-variant:normal;font-weight:normal;font-stretch:normal;font-size:18.5263px;line-height:125%;font-family:'Product Sans';-inkscape-font-specification:'Product Sans';letter-spacing:0px;word-spacing:0px;fill:#d7f1f8;fill-opacity:1;stroke:none;stroke-width:0.500006;stroke-linecap:butt;stroke-linejoin:miter;stroke-miterlimit:4;stroke-dasharray:none;stroke-opacity:0.85"
       d="m 43.052299,13 q 3.368838,0 5.669584,2.341916 2.300648,2.342068 2.300648,5.658008 0,1.865402 -0.801082,3.08814 -0.780588,1.222837 -2.280169,1.222837 -1.540741,0 -2.300734,-1.51296 -1.006596,1.51296 -2.875891,1.51296 -1.684515,0 -2.834756,-1.181335 -1.150432,-1.20213 -1.150432,-3.04661 0,-1.82384 1.150432,-3.026049 1.150241,-1.201991 2.752565,-1.201991 1.581782,0 2.629417,1.222856 h 0.08241 V 17.14514 h 1.479021 v 5.409295 q 0,0.538844 0.287557,0.974013 0.308096,0.435178 0.924471,0.435178 1.458447,0 1.458447,-2.963702 0,-2.73568 -1.889876,-4.62171 -1.88992,-1.88597 -4.601411,-1.88597 -2.711515,0 -4.601522,1.88597 -1.889774,1.88603 -1.889774,4.62171 0,2.735854 1.889774,4.62186 1.890007,1.885887 4.601522,1.885887 1.458438,0 2.608747,-0.580244 l 0.575257,1.409303 Q 44.798484,29 43.0525,29 39.642553,29 37.321204,26.678704 35,24.336785 35,20.999924 35,17.683984 37.321204,15.341916 39.662991,13 43.0525,13 Z m -1.910453,10.01038 q 0.739548,0.725398 1.766609,0.725398 1.027098,0 1.746087,-0.725398 0.739545,-0.725444 0.739545,-1.927424 0,-1.202207 -0.739545,-1.927501 -0.718989,-0.725399 -1.746087,-0.725399 -1.027061,0 -1.766609,0.725399 -0.718989,0.725294 -0.718989,1.927501 0,1.20198 0.718989,1.927424 z" />
  </g>
</svg>
