<?xml version="1.0" encoding="UTF-8" standalone="no"?>
<svg
   viewBox="0 0 22 22"
   version="1.1"
   id="svg1"
   sodipodi:docname="plasmavault-symbolic.svg"
   width="22"
   height="22"
   inkscape:version="1.3.2 (091e20ef0f, 2023-11-25)"
   xmlns:inkscape="http://www.inkscape.org/namespaces/inkscape"
   xmlns:sodipodi="http://sodipodi.sourceforge.net/DTD/sodipodi-0.dtd"
   xmlns="http://www.w3.org/2000/svg"
   xmlns:svg="http://www.w3.org/2000/svg">
  <sodipodi:namedview
     id="namedview1"
     pagecolor="#ffffff"
     bordercolor="#999999"
     borderopacity="1"
     inkscape:showpageshadow="2"
     inkscape:pageopacity="0"
     inkscape:pagecheckerboard="0"
     inkscape:deskcolor="#d1d1d1"
     inkscape:zoom="11.90625"
     inkscape:cx="9.7427821"
     inkscape:cy="13.354331"
     inkscape:window-width="1920"
     inkscape:window-height="994"
     inkscape:window-x="0"
     inkscape:window-y="0"
     inkscape:window-maximized="1"
     inkscape:current-layer="svg1" />
  <defs
     id="defs1">
    <style
       type="text/css"
       id="current-color-scheme">.ColorScheme-Text { color: #fcfcfc; } </style>
  </defs>
  <g
     id="22-22-plasmavault"
     transform="translate(-24.974522,55.324841)"
     style="fill:#d7f1f8;fill-opacity:1">
    <rect
       style="opacity:0.00100002;fill:#d7f1f8;fill-opacity:1"
       width="22"
       height="22"
       x="24.974522"
       y="-55.324841"
       id="rect2-5" />
    <path
       d="m 37.795907,-43.883508 h -0.164665 l -9.35e-4,-0.820664 c -7.89e-4,-0.893999 -0.727941,-1.621334 -1.621941,-1.620669 -0.894001,8.22e-4 -1.621334,0.728003 -1.620667,1.622003 l 0.0014,0.820668 h -0.05858 c -0.30733,6.21e-4 -0.556663,0.249995 -0.555996,0.55733 v 2.443334 c 0,0.307336 0.249999,0.556665 0.557333,0.556665 l 3.465337,-0.002 c 0.307327,0 0.556662,-0.249335 0.555997,-0.556669 v -2.443972 c 0,-0.307332 -0.249997,-0.555997 -0.557333,-0.555997 z m -2.809333,0.0015 -0.0014,-0.820665 c 0,-0.564666 0.458667,-1.023999 1.023331,-1.024668 0.564672,0 1.023999,0.459335 1.023999,1.023334 l 0.0015,0.820648 z"
       id="path2-7"
       style="fill:#d7f1f8;fill-opacity:1;stroke-width:0.0666646" />
    <path
       style="color:#000000;font-style:normal;font-variant:normal;font-weight:normal;font-stretch:normal;font-size:medium;line-height:normal;font-family:Sans;-inkscape-font-specification:Sans;text-indent:0;text-align:start;text-decoration:none;text-decoration-line:none;letter-spacing:normal;word-spacing:normal;text-transform:none;writing-mode:lr-tb;direction:ltr;baseline-shift:baseline;text-anchor:start;display:inline;overflow:visible;visibility:visible;fill:#d7f1f8;fill-opacity:1;fill-rule:nonzero;stroke:none;stroke-width:0.808683;marker:none;enable-background:accumulate"
       d="m 28.320522,-51.324785 c -0.833413,9e-6 -1.346,0.671685 -1.346,1.430944 v 9.569001 1.699996 c 0,0.604929 0.53435,1.300005 1.246,1.300003 l 14.694503,-4.9e-5 c 0.342976,0.0065 0.333213,-0.995169 8.4e-5,-0.999951 H 29.224524 c -1.250002,-3e-6 -1.250002,0 -1.250002,-1.085105 v -0.992908 -8.936171 c 0,-0.985819 0,-0.985816 1.05,-0.992908 h 4.486766 l 2.172984,1.673322 c 0.07242,0.06258 0.390124,0.331772 0.486749,0.33377 h 6.972455 c 0.355514,-0.002 0.344279,-0.99454 -0.01178,-1 h -6.814297 l -2.541313,-1.90625 c -0.07336,-0.06031 -0.166038,-0.0935 -0.261839,-0.09375 z m 8.396082,-5.6e-5 c -0.319043,0 -0.352624,1 0,1 h 4.882932 l 1.374986,-3e-6 c 1,0 1,0 1,1.000003 v 11.599954 c 0.0015,0.371835 0.984074,0.384063 0.985456,0.01282 l 0.01454,-12.212774 c 9.03e-4,-0.758305 -0.515505,-1.4 -1.412999,-1.4 h -0.849801 -4.737199 z"
       id="path2-3-3-5"
       sodipodi:nodetypes="ssccscccccccccccccccscccccccscccc" />
  </g>
</svg>
