<?xml version="1.0" encoding="UTF-8" standalone="no"?>
<svg
   xmlns:dc="http://purl.org/dc/elements/1.1/"
   xmlns:cc="http://creativecommons.org/ns#"
   xmlns:rdf="http://www.w3.org/1999/02/22-rdf-syntax-ns#"
   xmlns:svg="http://www.w3.org/2000/svg"
   xmlns="http://www.w3.org/2000/svg"
   xmlns:sodipodi="http://sodipodi.sourceforge.net/DTD/sodipodi-0.dtd"
   xmlns:inkscape="http://www.inkscape.org/namespaces/inkscape"
   viewBox="0 0 22 22"
   version="1.1"
   id="svg6"
   sodipodi:docname="bookmark-new.svg"
   inkscape:version="1.0.2 (e86c870879, 2021-01-15)">
  <metadata
     id="metadata10">
    <rdf:RDF>
      <cc:Work
         rdf:about="">
        <dc:format>image/svg+xml</dc:format>
        <dc:type
           rdf:resource="http://purl.org/dc/dcmitype/StillImage" />
      </cc:Work>
    </rdf:RDF>
  </metadata>
  <sodipodi:namedview
     pagecolor="#ffffff"
     bordercolor="#666666"
     borderopacity="1"
     objecttolerance="10"
     gridtolerance="10"
     guidetolerance="10"
     inkscape:pageopacity="0"
     inkscape:pageshadow="2"
     inkscape:window-width="1920"
     inkscape:window-height="1007"
     id="namedview8"
     showgrid="true"
     inkscape:zoom="20.184684"
     inkscape:cx="19.084488"
     inkscape:cy="6.81031"
     inkscape:window-x="0"
     inkscape:window-y="0"
     inkscape:window-maximized="1"
     inkscape:current-layer="svg6">
    <inkscape:grid
       type="xygrid"
       id="grid858" />
  </sodipodi:namedview>
  <defs
     id="defs3051">
    <style
       type="text/css"
       id="current-color-scheme">
      .ColorScheme-Text {
        color:#232629;
      }
      </style>
  </defs>
  <path
     d="M 16.108,1 H 5.850666 C 5.106222,1 4.5,1.6057781 4.5,2.3506663 V 19.649338 C 4.5,20.39422 5.105778,21 5.850666,21 6.001778,21 6.150667,20.97463 6.293774,20.92537 L 10.828,19.351552 c 0.09679,-0.03382 0.205337,-0.03382 0.302663,0 l 4.534674,1.573773 c 0.142663,0.05017 0.292,0.07462 0.442663,0.07462 v 0 c 0.574219,0 1.087117,-0.364435 1.275562,-0.907119 0.04937,-0.142223 0.07463,-0.292439 0.07463,-0.443551 V 2.3506663 C 17.458219,1.6053337 16.852438,1 16.108,1 Z m 0.461337,18.649338 c 0,0.0511 -0.008,0.102166 -0.02618,0.1511 -0.08137,0.234226 -0.349779,0.368 -0.586672,0.2849 l -4.534674,-1.57422 c -0.142662,-0.04936 -0.291561,-0.07382 -0.442662,-0.07382 -0.151117,0 -0.3,0.02437 -0.443117,0.07382 L 6.00222,20.084884 C 5.712445,20.185793 5.38889,19.955563 5.38889,19.649338 V 2.3506663 C 5.38889,2.096 5.596002,1.8888887 5.850668,1.8888887 h 10.257334 c 0.254664,0 0.461783,0.2071113 0.461783,0.4617776 z"
     id="path2"
     style="fill:#232629;fill-opacity:1;stroke-width:0.444438" />
  <path
     d="m 14.920321,5.6708102 c 0.876495,0.8943299 0.875624,2.3335623 0,3.2288256 L 11.041114,12.867 C 9.746556,11.546053 8.451967,10.225137 7.157432,8.9042207 c -0.876576,-0.8943132 -0.876576,-2.3344914 0,-3.2288226 0.876537,-0.8944138 2.287893,-0.8944303 3.164442,0 l 0.714741,0.7293101 0.719186,-0.733898 c 0.876591,-0.8944136 2.287916,-0.8944136 3.16452,0 z"
     style="color:#000000;fill:#232629;fill-opacity:1;stroke-width:0.151284;enable-background:accumulate"
     stroke="none"
     marker="none"
     visibility="visible"
     display="inline"
     overflow="visible"
     id="path2-3" />
</svg>
