<?xml version="1.0" encoding="UTF-8" standalone="no"?>
<svg
   width="22"
   height="22"
   version="1.1"
   id="svg1"
   sodipodi:docname="applications-all-symbolic.svg"
   inkscape:version="1.3.2 (091e20ef0f, 2023-11-25)"
   xmlns:inkscape="http://www.inkscape.org/namespaces/inkscape"
   xmlns:sodipodi="http://sodipodi.sourceforge.net/DTD/sodipodi-0.dtd"
   xmlns="http://www.w3.org/2000/svg"
   xmlns:svg="http://www.w3.org/2000/svg">
  <defs
     id="defs1" />
  <sodipodi:namedview
     id="namedview1"
     pagecolor="#ffffff"
     bordercolor="#999999"
     borderopacity="1"
     inkscape:showpageshadow="2"
     inkscape:pageopacity="0"
     inkscape:pagecheckerboard="0"
     inkscape:deskcolor="#d1d1d1"
     inkscape:zoom="34.636364"
     inkscape:cx="11"
     inkscape:cy="11"
     inkscape:window-width="1920"
     inkscape:window-height="994"
     inkscape:window-x="0"
     inkscape:window-y="0"
     inkscape:window-maximized="1"
     inkscape:current-layer="svg1" />
  <style
     type="text/css"
     id="current-color-scheme">.ColorScheme-Text{color:#31363b;}.ColorScheme-Background{color:#E9E8E8;}.ColorScheme-ViewText{color:#31363b;}.ColorScheme-ViewBackground{color:#ffffff;}.ColorScheme-ViewHover{color:#000000;}.ColorScheme-ViewFocus{color:#5a5a5a;}.ColorScheme-ButtonText{color:#31363b;}.ColorScheme-ButtonBackground{color:#E9E8E8;}.ColorScheme-ButtonHover{color:#1489ff;}.ColorScheme-ButtonFocus { color: #2B74C7; } </style>
  <g
     transform="matrix(1.0000029,0,0,1.000001,-420.71555,-516.79125) translate(-2.6353e-15,-10)"
     id="22-22-applications-other">
    <rect
       style="opacity:0.01000001;fill:#000000;fill-opacity:0.00392157;stroke:none"
       id="rect3028"
       width="22"
       height="22"
       x="-7.1556997e-08"
       y="2.0000052"
       transform="matrix(0.99999706,0,0,0.99999899,420.71433,524.79072)" />
    <path
       style="fill:#147ab4;fill-opacity:1;stroke:none"
       d="m 423.71432,529.79072 0,6.99999 6.99998,0 0,-6.99999 -6.99998,0 z m 8.99998,0 0,6.99999 6.99998,0 0,-6.99999 -6.99998,0 z m -7.99998,1 4.99999,0 0,4.99999 -4.99999,0 0,-4.99999 z m 8.99997,0 4.99999,0 0,4.99999 -4.99999,0 0,-4.99999 z m -9.99997,7.99999 0,6.99999 6.99998,0 0,-6.99999 -6.99998,0 z m 8.99998,0 0,6.99999 0.99999,0 4.99999,0 1,0 0,-1 0,-4.99999 0,-1 -1,0 -4.99999,0 -0.99999,0 z m -7.99998,1 4.99999,0 0,4.99999 -4.99999,0 0,-4.99999 z m 8.99997,0 4.99999,0 0,4.99999 -4.99999,0 0,-4.99999 z"
       id="rect4298" />
  </g>
</svg>
