<?xml version="1.0" encoding="UTF-8" standalone="no"?>
<svg
   width="24"
   height="24"
   viewBox="0 0 24 24"
   version="1.1"
   id="svg1"
   sodipodi:docname="video-display-brightness.svg"
   inkscape:version="1.3.2 (091e20ef0f, 2023-11-25)"
   xmlns:inkscape="http://www.inkscape.org/namespaces/inkscape"
   xmlns:sodipodi="http://sodipodi.sourceforge.net/DTD/sodipodi-0.dtd"
   xmlns="http://www.w3.org/2000/svg"
   xmlns:svg="http://www.w3.org/2000/svg">
  <defs
     id="defs1" />
  <sodipodi:namedview
     id="namedview1"
     pagecolor="#ffffff"
     bordercolor="#999999"
     borderopacity="1"
     inkscape:showpageshadow="2"
     inkscape:pageopacity="0"
     inkscape:pagecheckerboard="0"
     inkscape:deskcolor="#d1d1d1"
     inkscape:zoom="15.875"
     inkscape:cx="12.661417"
     inkscape:cy="16.566929"
     inkscape:window-width="1920"
     inkscape:window-height="994"
     inkscape:window-x="0"
     inkscape:window-y="0"
     inkscape:window-maximized="1"
     inkscape:current-layer="g1" />
  <style
     type="text/css"
     id="current-color-scheme">.ColorScheme-Text{color:#7B7C7E;}.ColorScheme-Background{color:#EFF0F1;}.ColorScheme-Highlight{color:#3DAEE6;}.ColorScheme-ViewText{color:#7B7C7E;}.ColorScheme-ViewBackground{color:#FCFCFC;}.ColorScheme-ViewHover{color:#3DAEE6;}.ColorScheme-ViewFocus{color:#1E92FF;}.ColorScheme-ButtonText{color:#7B7C7E;}.ColorScheme-ButtonBackground{color:#EFF0F1;}.ColorScheme-ButtonHover{color:#3DAEE6;}.ColorScheme-ButtonFocus { color: #1E92FF; } </style>
  <g
     transform="translate(1,1)"
     id="g1">
    <g
       id="22-22-video-display-brightness-9">
      <g
         id="g893">
        <rect
           style="opacity:0.00100002"
           width="22"
           height="22"
           x="0"
           y="-1.3897704e-07"
           id="rect2" />
        <path
           d="m 12.876301,8.9584745 a 0.46016319,0.46016319 0 0 1 0,-0.5431773 l 0.409932,-0.5575317 a 0.46016319,0.46016319 0 0 0 -0.421211,-0.729702 l -0.686661,0.074833 a 0.46016319,0.46016319 0 0 1 -0.472454,-0.273631 l -0.278761,-0.63234 a 0.46016319,0.46016319 0 0 0 -0.84244,0 l -0.278761,0.63234 A 0.46016319,0.46016319 0 0 1 9.835522,7.2008632 L 9.1488693,7.1260192 A 0.46016319,0.46016319 0 0 0 8.727651,7.8557212 l 0.4099485,0.5575274 a 0.46016319,0.46016319 0 0 1 0,0.5431752 L 8.727651,9.513949 A 0.46016319,0.46016319 0 0 0 9.1488693,10.24365 L 9.835522,10.16888 a 0.46016319,0.46016319 0 0 1 0.470423,0.271591 l 0.278761,0.632341 a 0.46016319,0.46016319 0 0 0 0.84244,0 l 0.278761,-0.632341 a 0.46016319,0.46016319 0 0 1 0.470404,-0.271591 l 0.68666,0.07477 a 0.46016319,0.46016319 0 0 0 0.42121,-0.729699 z M 11.007967,9.873676 A 1.1867907,1.1867907 0 1 1 12.191691,8.6868794 1.1867907,1.1867907 0 0 1 11.007967,9.873676 Z M 12.288028,6.8267543 11.966211,6.6412548 12.347475,5.9791986 12.669273,6.164696 Z M 8.7645438,8.4767904 V 8.8477876 L 8,8.8409026 V 8.4698231 Z m 4.4827482,0.4304414 0.0058,-0.371008 0.764546,0.012833 -0.0058,0.3710032 z M 10.070216,6.6371528 9.746363,6.8195864 9.368193,6.1534198 9.692043,5.970997 Z m -0.360742,3.8862782 0.320772,0.188585 -0.387397,0.658981 -0.319748,-0.188572 z m 2.303894,0.173209 0.317701,-0.192673 0.396626,0.652823 -0.31772,0.192678 z"
           id="path4-5"
           style="fill:#00aaff;fill-opacity:1;stroke-width:0.102486" />
        <path
           d="M 19.124557,2.999997 H 3.073661 C 2.481714,2.999997 2,3.481711 2,4.073658 v 11.628448 c 0,0.591942 0.481714,1.073656 1.073661,1.073656 h 5.907686 c -0.184343,0.597101 -0.617976,1.567095 -1.492048,1.567095 v 0.65714 h 7.219609 v -0.65714 c -0.874072,0 -1.307708,-0.969994 -1.492038,-1.567095 h 5.907687 c 0.591936,0 1.073642,-0.481714 1.073642,-1.073656 V 4.07341 c 0,-0.591931 -0.481706,-1.073413 -1.073642,-1.073413 z m 0.188789,12.701875 c 0,0.104129 -0.08464,0.188792 -0.189037,0.188792 H 3.073661 c -0.104141,0 -0.189038,-0.08467 -0.189038,-0.188792 V 14.16245 h 16.428723 z m 0,-2.424285 H 2.88487 V 4.07341 c 0,-0.104115 0.08463,-0.188791 0.189014,-0.188791 h 16.050673 c 0.104125,0 0.189012,0.08465 0.189012,0.188791 v 9.204178 z"
           id="path2-3"
           style="fill:#d7f1f8;fill-opacity:1;stroke-width:0.234519" />
      </g>
    </g>
  </g>
</svg>
