<?xml version="1.0" encoding="UTF-8" standalone="no"?>
<svg
   viewBox="0 0 64 64"
   version="1.1"
   id="svg4"
   sodipodi:docname="start-here-kde.svg"
   inkscape:version="1.3.2 (091e20ef0f, 2023-11-25)"
   xmlns:inkscape="http://www.inkscape.org/namespaces/inkscape"
   xmlns:sodipodi="http://sodipodi.sourceforge.net/DTD/sodipodi-0.dtd"
   xmlns="http://www.w3.org/2000/svg"
   xmlns:svg="http://www.w3.org/2000/svg">
  <sodipodi:namedview
     id="namedview4"
     pagecolor="#ffffff"
     bordercolor="#999999"
     borderopacity="1"
     inkscape:showpageshadow="2"
     inkscape:pageopacity="0"
     inkscape:pagecheckerboard="0"
     inkscape:deskcolor="#d1d1d1"
     inkscape:zoom="4.2094951"
     inkscape:cx="36.346402"
     inkscape:cy="74.355711"
     inkscape:window-width="1920"
     inkscape:window-height="994"
     inkscape:window-x="0"
     inkscape:window-y="0"
     inkscape:window-maximized="1"
     inkscape:current-layer="svg4" />
  <defs
     id="defs3051">
    <style
       type="text/css"
       id="current-color-scheme">.ColorScheme-Text { color: #fcfcfc; } </style>
  </defs>
  <rect
     id="rect7"
     style="opacity:0.00100002"
     width="32"
     height="32"
     x="20"
     y="77" />
  <path
     d="m 57.9524,18.743033 c -0.14266,2.866727 -0.481447,5.698076 -1.331368,8.423277 -0.523021,1.698796 -0.950966,3.440057 -1.693909,5.032702 -1.372952,2.923365 -3.132237,5.464509 -5.420499,7.432287 -2.175334,1.868707 -4.57057,3.178189 -7.185741,3.893116 0.112921,-1.167924 0.142641,-2.357108 0.07134,-3.546252 2.050513,-0.615833 3.851402,-1.840387 5.503717,-3.362239 1.771169,-1.642171 3.167889,-3.709067 4.303117,-6.023685 1.141148,-2.314638 1.895979,-4.813318 2.424968,-7.425222 0.386321,-1.925323 0.445763,-3.878951 0.421977,-5.832596 l 0.0178,-1.705879 c -0.10102,0.283137 -0.689421,0.97683 -0.772635,1.06883 -1.426441,1.564323 -3.102518,2.640242 -4.897469,3.46839 -1.652306,0.764471 -3.369983,1.281192 -5.07578,1.861633 -2.169404,0.729083 -4.410116,1.295346 -6.430919,2.477438 -0.249626,0.14864 -0.481417,0.254813 -0.689447,0.325599 -0.707287,-0.955602 -1.491825,-1.812065 -2.329864,-2.597777 l -0.02972,-0.0283 c 1.973271,-1.132546 4.059459,-1.897015 6.12185,-2.711018 2.852907,-1.125468 5.72958,-2.151828 8.463604,-3.701991 2.460617,-1.401516 4.707272,-3.107405 6.656768,-5.379561 0.30905,-0.361008 0.689443,-0.799845 1.010396,-1.366122 0.350668,1.16793 0.511144,2.392482 0.647837,3.447162 0.261534,2.073953 0.315016,4.162091 0.213984,6.250208 z M 39.450155,38.909322 c -0.172361,-1.670499 -0.451713,-3.312692 -0.974732,-4.905315 -0.564629,-1.720047 -1.343244,-3.248971 -2.187216,-4.784984 -0.04162,-0.07788 -0.08916,-0.15574 -0.13076,-0.226506 -0.933146,-1.613865 -2.068376,-2.951691 -3.340288,-4.140845 -1.682003,-1.578489 -3.56017,-2.703951 -5.521547,-3.631204 -0.748879,-0.353923 -1.509655,-0.67246 -2.270426,-0.983898 l -5.77117,-2.236782 C 17.67303,17.355677 16.109881,16.654916 14.588338,15.791346 12.12771,14.389832 9.881054,12.683941 7.9315746,10.411785 7.6225106,10.050779 7.2421236,9.583612 6.9211726,9.017333 c -0.350668,1.16793 -0.511144,2.420812 -0.647847,3.48257 -0.2734,2.073965 -0.326894,4.169165 -0.225852,6.25728 0.14264,2.866733 0.481427,5.698098 1.33135,8.423277 0.523033,1.698799 0.95097,3.440067 1.693911,5.032736 1.3729604,2.923349 3.1322454,5.464475 5.4205054,7.432271 2.16344,1.861609 4.540864,3.164021 7.13819,3.886026 -0.1367,-1.20332 -0.17832,-2.392482 -0.12482,-3.567504 C 19.497685,39.341092 17.726512,38.13069 16.109873,36.630076 14.338704,34.987889 12.941968,32.921007 11.806752,30.606367 10.665592,28.291748 9.910756,25.793079 9.3817936,23.181171 8.9835706,21.199217 8.9360226,19.19604 8.9597926,17.185777 V 15.79842 l 0.6894614,0.849412 c 0.487371,0.545051 1.010394,1.03344 1.557207,1.46521 0.0832,0.06372 2.680532,1.989044 5.586927,2.958767 0.695381,0.226511 1.640411,0.545049 2.894503,0.969738 0.314987,0.10618 0.635955,0.212334 0.956902,0.311448 1.093608,0.360993 2.193171,0.736156 3.280839,1.167936 0.392261,0.155721 0.778586,0.318521 1.164932,0.481321 l 0.0178,0.007 c 0.172381,0.07786 0.338789,0.148641 0.505199,0.226509 l 0.326891,0.17694 0.921245,0.453033 0.02378,0.0072 0.07132,0.03538 h 0.006 c 2.169396,1.174996 4.136703,2.703924 5.652302,4.961956 0.410111,0.608723 0.784553,1.238698 1.129284,1.882849 1.28379,2.434955 2.062399,5.131807 2.270426,8.055168 0.208022,2.923367 -0.08322,5.811342 -1.046074,8.557787 -0.606223,1.727043 -1.43833,3.284345 -2.43684,4.714188 -0.398215,0.573381 -0.612183,0.552101 -1.05795,0.0282 -0.0951,-0.113201 -0.1783,-0.226481 -0.255566,-0.346861 -1.123338,-1.606803 -1.9376,-3.553326 -1.9376,-3.553326 -0.879649,-1.974863 -1.438336,-4.098369 -1.634478,-6.356387 -0.356613,-4.119603 0.451708,-7.927775 2.644882,-11.226307 -0.748895,-1.033446 -1.598817,-1.911163 -2.520064,-2.66853 -1.153046,1.819127 -1.979192,3.850628 -2.549777,6.002456 -0.10698,0.403475 -0.202078,0.806955 -0.285288,1.210406 -0.534923,2.55528 -0.653797,5.160139 -0.315017,7.814517 0.07132,0.573355 0.160481,1.139628 0.267465,1.698809 0.897473,4.926578 2.906387,9.138206 6.104014,12.606571 0.748885,0.814022 1.099554,0.913062 1.634471,0.375121 0.891536,-0.891881 1.705795,-1.882823 2.460628,-2.937445 1.23031,-1.727223 2.16344,-3.687826 2.882615,-5.76185 0.08916,-0.24776 0.17236,-0.502561 0.24963,-0.750281 1.028226,-3.199427 1.563155,-6.497949 1.277865,-9.938037 -0.02378,-0.11326 -0.03566,-0.240664 -0.04756,-0.368078 z M 26.000034,21.000027 Z m 0,0 z"
     id="path8"
     style="fill:#3daee9;fill-opacity:1;stroke-width:0.0648617"
     inkscape:connector-curvature="0"
     sodipodi:nodetypes="sccccccccccccccccccccccssscccccccccccccccccccccccccccsccccccccccsccccccccscccccccccsscccccccccc" />
  <path
     id="path4149-8"
     d="m 32.000044,5 c -3.313714,0 -6.00001,2.686297 -6.00001,6.00001 0,3.313714 2.686296,6.00001 6.00001,6.00001 3.313714,0 6.00001,-2.686296 6.00001,-6.00001 C 38.000054,7.686297 35.313758,5 32.000044,5 Z m 0,10.000017 z"
     opacity="1"
     fill-opacity="1"
     stroke="none"
     style="fill:#3daee9;fill-opacity:1;stroke-width:1.5"
     sodipodi:nodetypes="sssssccccc" />
</svg>
