<?xml version="1.0" encoding="UTF-8" standalone="no"?>
<svg
   width="32"
   height="32"
   version="1.1"
   id="svg1"
   sodipodi:docname="preferences-desktop-display-randr.svg"
   inkscape:version="1.3.2 (091e20ef0f, 2023-11-25)"
   xmlns:inkscape="http://www.inkscape.org/namespaces/inkscape"
   xmlns:sodipodi="http://sodipodi.sourceforge.net/DTD/sodipodi-0.dtd"
   xmlns="http://www.w3.org/2000/svg"
   xmlns:svg="http://www.w3.org/2000/svg">
  <defs
     id="defs1" />
  <sodipodi:namedview
     id="namedview1"
     pagecolor="#ffffff"
     bordercolor="#999999"
     borderopacity="1"
     inkscape:showpageshadow="2"
     inkscape:pageopacity="0"
     inkscape:pagecheckerboard="0"
     inkscape:deskcolor="#d1d1d1"
     showguides="true"
     inkscape:zoom="8.4189901"
     inkscape:cx="12.590584"
     inkscape:cy="31.476459"
     inkscape:window-width="1920"
     inkscape:window-height="994"
     inkscape:window-x="0"
     inkscape:window-y="0"
     inkscape:window-maximized="1"
     inkscape:current-layer="svg1" />
  <style
     type="text/css"
     id="current-color-scheme">.ColorScheme-Text{color:#232629;}.ColorScheme-Background{color:#eff0f1;}.ColorScheme-ViewBackground{color:#fcfcfc;}.ColorScheme-ButtonFocus{color:#3daee9;}.ColorScheme-PositiveText{color:#27ae60;}.ColorScheme-NeutralText{color:#f67400;}.ColorScheme-NegativeText { color: #da4453; } </style>
  <g
     id="preferences-desktop-display-randr-3">
    <rect
       y="0"
       x="0"
       height="32"
       width="32"
       id="rect2991"
       style="opacity:0.01;fill:#000000;fill-opacity:0.00392157;stroke:none;stroke-width:1.33333" />
    <path
       d="M 28.348059,4 H 3.651942 C 2.741172,4 2,4.622088 2,5.51 V 23.153 C 2,24.099836 2.489162,25 3.651942,25 h 9.089644 c -0.283623,0.895652 -0.950823,2.014291 -2.295686,2.014291 V 28 h 11.108201 v -0.985709 c -1.344863,0 -2.012063,-1.118639 -2.295686,-2.014291 H 28.248 C 29.661091,25 30,24.099836 30,23.153 V 5.610132 C 30,4.72222 29.258829,4 28.348059,4 Z M 29.039,23.052812 C 29.042,23.208978 28.900302,24 28.248,24 H 3.651942 C 3,24 3,23.209006 3,23.052812 V 21 H 29 Z M 29,20 H 3 V 6.01 C 3,5.1 3.591428,5.013677 3.752,5.0135 L 28.248,4.9865 C 28.408215,4.9863234 29,5 29,6.01 Z"
       id="path2-3"
       style="fill:#d7f1f8;fill-opacity:1;stroke-width:0.356287"
       sodipodi:nodetypes="sssssccccccsssssscsccscccsssc" />
    <path
       sodipodi:nodetypes="cccc"
       inkscape:connector-curvature="0"
       id="path11753"
       style="color:#bebebe;fill:#00aaff;fill-opacity:1;stroke-width:0.830899"
       d="m 5,11 v 7 h 7.109 z" />
    <path
       sodipodi:nodetypes="cccc"
       inkscape:connector-curvature="0"
       id="path11753-3"
       style="color:#bebebe;fill:#00aaff;fill-opacity:1;stroke-width:0.830899"
       d="M 27.109,14 V 7 H 20 Z" />
  </g>
</svg>
