<?xml version="1.0" encoding="UTF-8" standalone="no"?>
<svg
   viewBox="0 0 32 32"
   version="1.1"
   id="svg12"
   sodipodi:docname="folder-inkscape.svg"
   inkscape:version="1.2.2 (b0a8486541, 2022-12-01)"
   xmlns:inkscape="http://www.inkscape.org/namespaces/inkscape"
   xmlns:sodipodi="http://sodipodi.sourceforge.net/DTD/sodipodi-0.dtd"
   xmlns:xlink="http://www.w3.org/1999/xlink"
   xmlns="http://www.w3.org/2000/svg"
   xmlns:svg="http://www.w3.org/2000/svg"
   xmlns:rdf="http://www.w3.org/1999/02/22-rdf-syntax-ns#"
   xmlns:cc="http://creativecommons.org/ns#"
   xmlns:dc="http://purl.org/dc/elements/1.1/">
  <metadata
     id="metadata16">
    <rdf:RDF>
      <cc:Work
         rdf:about="">
        <dc:format>image/svg+xml</dc:format>
        <dc:type
           rdf:resource="http://purl.org/dc/dcmitype/StillImage" />
      </cc:Work>
    </rdf:RDF>
  </metadata>
  <sodipodi:namedview
     pagecolor="#ffffff"
     bordercolor="#666666"
     borderopacity="1"
     objecttolerance="10"
     gridtolerance="10"
     guidetolerance="10"
     inkscape:pageopacity="0"
     inkscape:pageshadow="2"
     inkscape:window-width="1920"
     inkscape:window-height="1002"
     id="namedview14"
     showgrid="false"
     inkscape:zoom="7.375"
     inkscape:cx="9.7627119"
     inkscape:cy="16.067797"
     inkscape:window-x="0"
     inkscape:window-y="0"
     inkscape:window-maximized="1"
     inkscape:current-layer="svg12"
     inkscape:showpageshadow="2"
     inkscape:pagecheckerboard="0"
     inkscape:deskcolor="#d1d1d1" />
  <defs
     id="defs3051">
    <linearGradient
       inkscape:collect="always"
       id="linearGradient827">
      <stop
         style="stop-color:#005f88;stop-opacity:1"
         offset="0"
         id="stop823" />
      <stop
         style="stop-color:#05b1ff;stop-opacity:1"
         offset="1"
         id="stop825" />
    </linearGradient>
    <style
       type="text/css"
       id="current-color-scheme">
      .ColorScheme-Text {
        color:#31363b;
      }
      .ColorScheme-Background {
        color:#eff0f1;
      }
      .ColorScheme-Highlight {
        color:#3daee9;
      }
      .ColorScheme-ViewText {
        color:#31363b;
      }
      .ColorScheme-ViewBackground {
        color:#fcfcfc;
      }
      .ColorScheme-ViewHover {
        color:#93cee9;
      }
      .ColorScheme-ViewFocus{
        color:#3daee9;
      }
      .ColorScheme-ButtonText {
        color:#31363b;
      }
      .ColorScheme-ButtonBackground {
        color:#eff0f1;
      }
      .ColorScheme-ButtonHover {
        color:#93cee9;
      }
      .ColorScheme-ButtonFocus{
        color:#3daee9;
      }
      </style>
    <linearGradient
       inkscape:collect="always"
       xlink:href="#linearGradient827"
       id="linearGradient829"
       x1="2"
       y1="6.5"
       x2="30"
       y2="6.5"
       gradientUnits="userSpaceOnUse" />
  </defs>
  <path
     style="fill:#a1b4ba;fill-opacity:1;stroke:none"
     d="M 2 3 L 2 10 L 1 10 L 1 29 L 12 29 L 13 29 L 31 29 L 31 8 L 30 8 L 30 5 L 16 5 L 14 3 L 2 3 z "
     class="ColorScheme-Highlight"
     id="path4" />
  <path
     style="fill-opacity:1;fill-rule:evenodd;fill:url(#linearGradient829)"
     d="m 2,3 0,7 9,0 L 13,8 30,8 30,5 16,5 14,3 2,3 Z"
     id="path6" />
  <path
     style="fill:#ffffff;fill-opacity:0.2;fill-rule:evenodd"
     d="M 14 3 L 15 6 L 30 6 L 30 5 L 16 5 L 14 3 z M 13 8 L 11 10 L 1 10 L 1 11 L 12 11 L 13 8 z "
     id="path8" />
  <path
     style="fill-opacity:0.2;fill-rule:evenodd"
     d="M 13 8 L 11 9 L 2 9 L 2 10 L 11 10 L 13 8 z M 1 28 L 1 29 L 31 29 L 31 28 L 1 28 z "
     class="ColorScheme-Text"
     id="path10" />
  <path
     id="path18-3-9-7"
     d="m 15.916026,13.500006 c -0.309206,-0.001 -0.61667,0.113297 -0.838578,0.343511 l -3.69129,3.827981 c -1.247487,1.565377 0.848988,1.383654 1.747686,1.834521 0.322402,0.333873 -1.235432,0.579124 -0.913032,0.913278 0.322366,0.333954 1.947857,0.642949 2.270734,0.976849 0.322374,0.333909 -0.659377,0.688583 -0.337,1.02244 0.322383,0.33391 1.0673,0.01734 1.206916,0.78821 0.09948,0.550853 1.344984,0.2367 1.953376,-0.214416 0.32239,-0.334159 -0.616292,-0.301431 -0.293919,-0.635317 0.801627,-0.830758 1.547863,-0.3033 1.822151,-1.135691 0.135476,-0.411321 -1.181082,-0.63299 -0.85819,-0.966888 0.927608,-0.548986 4.133048,-0.906609 2.611732,-2.448016 l -3.826408,-3.962951 c -0.234016,-0.22769 -0.545035,-0.342891 -0.854309,-0.343501 z m 0.03146,0.363331 c 0.220777,0.0015 0.44109,0.08553 0.599551,0.248166 l 1.461628,1.502994 c 0.138525,0.143376 0.1363,0.420341 0.05876,0.500261 l -0.724972,-0.587645 -0.143027,0.871555 -0.605414,-0.323595 -0.971792,0.619425 -0.321316,-1.308341 -0.521188,0.913296 h -0.795497 c -0.324811,0 -0.363742,-0.41766 -0.06852,-0.71674 0.515628,-0.56395 1.106833,-1.13818 1.428313,-1.47121 0.161599,-0.167356 0.38268,-0.249346 0.603465,-0.248166 z m -1.753477,5.848909 c 0.09868,0.0621 1.59071,0.369508 1.955348,0.430838 0.1264,0.027 0.037,0.159061 -0.13713,0.248167 -0.392985,0.105829 -2.29926,-0.679011 -1.818283,-0.679011 z m 5.803496,1.05225 c -0.300286,0.01071 -0.596351,0.165218 -0.677963,0.456676 0,0.189951 1.37939,0.315578 1.37939,-0.04355 -0.0984,-0.28857 -0.401245,-0.423488 -0.701397,-0.413 z m -6.332554,0.821984 c -0.432794,-0.005 -0.939562,0.317577 -0.56619,0.645235 0.327047,0.286534 0.832105,-0.07255 0.983533,-0.472535 -0.08911,-0.119998 -0.247953,-0.171125 -0.417333,-0.1727 z m 5.479999,0.02555 c -0.42154,0.383181 0.04684,0.771694 0.462348,0.524166 0.09257,-0.09526 -0.005,-0.42891 -0.462348,-0.524166 z"
     stroke-width="0.989804"
     style="color:#eff0f1;fill:#002d3c;fill-opacity:1"
     class="ColorScheme-Text" />
</svg>
