<?xml version="1.0" encoding="UTF-8" standalone="no"?>
<svg
   viewBox="0 0 32 32"
   version="1.1"
   id="svg12"
   sodipodi:docname="folder-appimage.svg"
   inkscape:version="1.2.2 (b0a8486541, 2022-12-01)"
   xmlns:inkscape="http://www.inkscape.org/namespaces/inkscape"
   xmlns:sodipodi="http://sodipodi.sourceforge.net/DTD/sodipodi-0.dtd"
   xmlns:xlink="http://www.w3.org/1999/xlink"
   xmlns="http://www.w3.org/2000/svg"
   xmlns:svg="http://www.w3.org/2000/svg"
   xmlns:rdf="http://www.w3.org/1999/02/22-rdf-syntax-ns#"
   xmlns:cc="http://creativecommons.org/ns#"
   xmlns:dc="http://purl.org/dc/elements/1.1/">
  <metadata
     id="metadata16">
    <rdf:RDF>
      <cc:Work
         rdf:about="">
        <dc:format>image/svg+xml</dc:format>
        <dc:type
           rdf:resource="http://purl.org/dc/dcmitype/StillImage" />
      </cc:Work>
    </rdf:RDF>
  </metadata>
  <sodipodi:namedview
     pagecolor="#ffffff"
     bordercolor="#666666"
     borderopacity="1"
     objecttolerance="10"
     gridtolerance="10"
     guidetolerance="10"
     inkscape:pageopacity="0"
     inkscape:pageshadow="2"
     inkscape:window-width="1920"
     inkscape:window-height="1002"
     id="namedview14"
     showgrid="false"
     inkscape:zoom="7.375"
     inkscape:cx="9.7627119"
     inkscape:cy="16.067797"
     inkscape:window-x="0"
     inkscape:window-y="0"
     inkscape:window-maximized="1"
     inkscape:current-layer="svg12"
     inkscape:showpageshadow="2"
     inkscape:pagecheckerboard="0"
     inkscape:deskcolor="#d1d1d1" />
  <defs
     id="defs3051">
    <linearGradient
       inkscape:collect="always"
       id="linearGradient827">
      <stop
         style="stop-color:#005f88;stop-opacity:1"
         offset="0"
         id="stop823" />
      <stop
         style="stop-color:#05b1ff;stop-opacity:1"
         offset="1"
         id="stop825" />
    </linearGradient>
    <style
       type="text/css"
       id="current-color-scheme">
      .ColorScheme-Text {
        color:#31363b;
      }
      .ColorScheme-Background {
        color:#eff0f1;
      }
      .ColorScheme-Highlight {
        color:#3daee9;
      }
      .ColorScheme-ViewText {
        color:#31363b;
      }
      .ColorScheme-ViewBackground {
        color:#fcfcfc;
      }
      .ColorScheme-ViewHover {
        color:#93cee9;
      }
      .ColorScheme-ViewFocus{
        color:#3daee9;
      }
      .ColorScheme-ButtonText {
        color:#31363b;
      }
      .ColorScheme-ButtonBackground {
        color:#eff0f1;
      }
      .ColorScheme-ButtonHover {
        color:#93cee9;
      }
      .ColorScheme-ButtonFocus{
        color:#3daee9;
      }
      </style>
    <linearGradient
       inkscape:collect="always"
       xlink:href="#linearGradient827"
       id="linearGradient829"
       x1="2"
       y1="6.5"
       x2="30"
       y2="6.5"
       gradientUnits="userSpaceOnUse" />
  </defs>
  <path
     style="fill:#a1b4ba;fill-opacity:1;stroke:none"
     d="M 2 3 L 2 10 L 1 10 L 1 29 L 12 29 L 13 29 L 31 29 L 31 8 L 30 8 L 30 5 L 16 5 L 14 3 L 2 3 z "
     class="ColorScheme-Highlight"
     id="path4" />
  <path
     style="fill-opacity:1;fill-rule:evenodd;fill:url(#linearGradient829)"
     d="m 2,3 0,7 9,0 L 13,8 30,8 30,5 16,5 14,3 2,3 Z"
     id="path6" />
  <path
     style="fill:#ffffff;fill-opacity:0.2;fill-rule:evenodd"
     d="M 14 3 L 15 6 L 30 6 L 30 5 L 16 5 L 14 3 z M 13 8 L 11 10 L 1 10 L 1 11 L 12 11 L 13 8 z "
     id="path8" />
  <path
     style="fill-opacity:0.2;fill-rule:evenodd"
     d="M 13 8 L 11 9 L 2 9 L 2 10 L 11 10 L 13 8 z M 1 28 L 1 29 L 31 29 L 31 28 L 1 28 z "
     class="ColorScheme-Text"
     id="path10" />
  <path
     style="color:#31363b;fill:#002d3c;fill-opacity:1;stroke:none"
     d="m 14.5,12.5 v 2 h -1 L 16,17 18.5,14.5 h -1 v -2 z m 1,5 v 1.050781 c -0.312974,0.06458 -0.610665,0.18856 -0.876953,0.365235 l -0.744141,-0.744141 -0.707031,0.707031 0.744141,0.744141 C 13.740718,19.88963 13.618068,20.187304 13.554688,20.5 H 12.5 v 1 h 1.050781 c 0.06458,0.312974 0.18856,0.610665 0.365235,0.876953 l -0.744141,0.744141 0.707031,0.707031 0.744141,-0.744141 C 14.88963,23.259282 15.187304,23.381932 15.5,23.445312 V 24.5 h 1 v -1.050781 c 0.312974,-0.06458 0.610665,-0.18856 0.876953,-0.365235 l 0.744141,0.744141 0.707031,-0.707031 -0.744141,-0.744141 C 18.259282,22.11037 18.381932,21.812696 18.445312,21.5 H 19.5 v -1 h -1.050781 c -0.06458,-0.312974 -0.18856,-0.610665 -0.365235,-0.876953 l 0.744141,-0.744141 -0.707031,-0.707031 -0.744141,0.744141 C 17.11037,18.740718 16.812696,18.618068 16.5,18.554688 V 17.5 Z m 0.5,2 c 0.405488,-1e-6 0.793703,0.164162 1.076172,0.455078 C 17.347971,20.235007 17.500001,20.609827 17.5,21 c 1e-6,0.405488 -0.164162,0.793703 -0.455078,1.076172 C 16.764993,22.347971 16.390173,22.500001 16,22.5 c -0.405488,1e-6 -0.793703,-0.164162 -1.076172,-0.455078 C 14.652029,21.764993 14.499999,21.390173 14.5,21 c -10e-7,-0.405488 0.164162,-0.793703 0.455078,-1.076172 C 15.235007,19.652029 15.609827,19.499999 16,19.5 Z"
     class="ColorScheme-Text"
     id="path329" />
</svg>
