<?xml version="1.0" encoding="UTF-8" standalone="no"?>
<svg
   viewBox="0 0 32 32"
   version="1.1"
   id="svg17694"
   sodipodi:docname="folder-windows.svg"
   inkscape:version="1.2.2 (b0a8486541, 2022-12-01)"
   xmlns:inkscape="http://www.inkscape.org/namespaces/inkscape"
   xmlns:sodipodi="http://sodipodi.sourceforge.net/DTD/sodipodi-0.dtd"
   xmlns="http://www.w3.org/2000/svg"
   xmlns:svg="http://www.w3.org/2000/svg">
  <sodipodi:namedview
     id="namedview17696"
     pagecolor="#ffffff"
     bordercolor="#000000"
     borderopacity="0.25"
     inkscape:showpageshadow="2"
     inkscape:pageopacity="0.0"
     inkscape:pagecheckerboard="0"
     inkscape:deskcolor="#d1d1d1"
     showgrid="false"
     inkscape:zoom="7.375"
     inkscape:cx="9.6271186"
     inkscape:cy="16.067797"
     inkscape:window-width="1920"
     inkscape:window-height="1002"
     inkscape:window-x="0"
     inkscape:window-y="0"
     inkscape:window-maximized="1"
     inkscape:current-layer="svg17694" />
  <defs
     id="defs3051">
    <style
       type="text/css"
       id="current-color-scheme">
      .ColorScheme-Text {
        color:#31363b;
      }
      .ColorScheme-Highlight {
        color:#3daee9;
      }
      </style>
  </defs>
  <path
     style="color:#3daee9;fill:#00171e;fill-opacity:1;stroke:none"
     d="M 2,3.0000002 V 10 H 1 v 19 h 11 1 18 V 8.0000002 H 30 V 5.0000001 H 16 L 14,3.0000002 Z"
     class="ColorScheme-Highlight"
     id="path4"
     inkscape:transform-center-x="19.444017"
     inkscape:transform-center-y="-4.3828911" />
  <path
     style="fill:#3daee9;fill-opacity:1;fill-rule:evenodd"
     d="M 2,3.0000002 V 10 h 9 L 13,8.0000002 H 30 V 5.0000001 H 16 L 14,3.0000002 Z"
     id="path6"
     inkscape:transform-center-x="19.444017"
     inkscape:transform-center-y="-13.882891" />
  <path
     style="fill:#ffffff;fill-opacity:0.2;fill-rule:evenodd"
     d="m 14,3.0000002 1,2.9999999 h 15 v -1 H 16 Z m -1,5 L 11,10 H 1 v 1 h 11 z"
     id="path8"
     inkscape:transform-center-x="19.944017"
     inkscape:transform-center-y="-13.382891" />
  <path
     style="color:#31363b;fill-opacity:0.2;fill-rule:evenodd"
     d="m 13,8.0000002 -2,1 H 2 V 10 h 9 z M 1,28 v 1 h 30 v -1 z"
     class="ColorScheme-Text"
     id="path10"
     inkscape:transform-center-x="19.444017"
     inkscape:transform-center-y="-1.8828911" />
  <path
     style="color:#31363b;fill:#ffffff;fill-opacity:1;stroke:none"
     d="M 10,13 V 24 H 22 V 13 Z m 1,2 h 10 v 8 H 11 Z m 2,1 v 2 h 2 v -2 z m 4,0 v 2 h 2 v -2 z m -4,4 v 2 h 2 v -2 z m 4,0 v 2 h 2 v -2 z"
     class="ColorScheme-Text"
     id="path17692-3" />
</svg>
