<?xml version="1.0" encoding="UTF-8" standalone="no"?>
<svg
   viewBox="0 0 32 32"
   version="1.1"
   id="svg5450"
   sodipodi:docname="folder-design.svg"
   inkscape:version="1.2.2 (b0a8486541, 2022-12-01)"
   xmlns:inkscape="http://www.inkscape.org/namespaces/inkscape"
   xmlns:sodipodi="http://sodipodi.sourceforge.net/DTD/sodipodi-0.dtd"
   xmlns="http://www.w3.org/2000/svg"
   xmlns:svg="http://www.w3.org/2000/svg">
  <sodipodi:namedview
     id="namedview5452"
     pagecolor="#ffffff"
     bordercolor="#000000"
     borderopacity="0.25"
     inkscape:showpageshadow="2"
     inkscape:pageopacity="0.0"
     inkscape:pagecheckerboard="0"
     inkscape:deskcolor="#d1d1d1"
     showgrid="false"
     inkscape:zoom="7.375"
     inkscape:cx="9.6271186"
     inkscape:cy="16.067797"
     inkscape:window-width="1920"
     inkscape:window-height="1002"
     inkscape:window-x="0"
     inkscape:window-y="0"
     inkscape:window-maximized="1"
     inkscape:current-layer="svg5450" />
  <defs
     id="defs3051">
    <style
       type="text/css"
       id="current-color-scheme">
      .ColorScheme-Text {
        color:#31363b;
      }
      .ColorScheme-Highlight {
        color:#3daee9;
      }
      </style>
  </defs>
  <path
     style="color:#3daee9;fill:#00171e;fill-opacity:1;stroke:none"
     d="m 2,2.9999998 v 7 H 1 V 29 h 11 1 18 V 7.9999998 h -1 v -3 H 16 l -2,-2 z"
     class="ColorScheme-Highlight"
     id="path4" />
  <path
     style="fill:#3daee9;fill-opacity:1;fill-rule:evenodd"
     d="m 2,2.9999998 v 7 h 9 l 2,-2 h 17 v -3 H 16 l -2,-2 z"
     id="path6" />
  <path
     style="fill:#ffffff;fill-opacity:0.2;fill-rule:evenodd"
     d="m 14,2.9999998 1,3 h 15 v -1 H 16 Z m -1,5 -2,2 H 1 V 11 h 11 z"
     id="path8" />
  <path
     style="color:#31363b;fill-opacity:0.2;fill-rule:evenodd"
     d="m 13,7.9999998 -2,1 H 2 v 1 h 9 z M 1,28 v 1 h 30 v -1 z"
     class="ColorScheme-Text"
     id="path10" />
  <path
     style="color:#31363b;fill:#ffffff;fill-opacity:1;stroke:none"
     d="m 16.06543,11.80664 c -1.104569,0 -2,0.895431 -2,2 4.3e-4,0.674073 0.340383,1.302583 0.904297,1.671875 L 12.948242,19.80664 H 12.56543 c -0.277001,0 -0.5,0.223 -0.5,0.5 0,0.248634 0.182806,0.444971 0.419922,0.484375 l -1.236328,2.619141 c -0.09574,0.204347 -0.04849,0.440847 0.101562,0.59375 l -0.585937,1.189453 0.925781,-1.001953 c 0.245788,0.0643 0.509632,-0.05327 0.621094,-0.289063 l 1.460937,-3.095703 h 2.292968 v 0.5 c 0,0.277 0.223,0.5 0.5,0.5 0.277001,0 0.5,-0.223 0.5,-0.5 v -0.5 h 1.166016 l 1.460937,3.095703 c 0.110034,0.237214 0.372829,0.353368 0.617188,0.289063 l 0.925781,1.001953 -0.583984,-1.189453 c 0.148616,-0.152903 0.197305,-0.387974 0.101562,-0.59375 L 19.524414,20.80664 h 0.04102 c 0.277001,0 0.5,-0.223 0.5,-0.5 0,-0.277 -0.222999,-0.5 -0.5,-0.5 H 19.05371 l -1.966796,-4.283203 c 0.605847,-0.359915 0.977574,-1.012106 0.978515,-1.716797 0,-1.104569 -0.89543,-2 -1.999999,-2 z m 0,1 c 0.552285,0 1,0.447715 1,1 0,0.552285 -0.447715,1 -1,1 -0.552285,0 -1,-0.447715 -1,-1 0,-0.552285 0.447715,-1 1,-1 z m 0.08398,3.587891 1.609379,3.412109 H 17.06543 v -0.5 c 0,-0.277 -0.223,-0.5 -0.5,-0.5 -0.277,0 -0.5,0.223 -0.5,0.5 v 0.5 h -1.822266 l 1.609375,-3.412109 c 0.08014,-0.129469 0.212891,-0.121094 0.296875,0 z"
     class="ColorScheme-Text"
     id="path5448-2" />
</svg>
