<?xml version="1.0" encoding="UTF-8" standalone="no"?>
<svg
   viewBox="0 0 32 32"
   version="1.1"
   id="svg17067"
   sodipodi:docname="folder-table.svg"
   inkscape:version="1.2.2 (b0a8486541, 2022-12-01)"
   xmlns:inkscape="http://www.inkscape.org/namespaces/inkscape"
   xmlns:sodipodi="http://sodipodi.sourceforge.net/DTD/sodipodi-0.dtd"
   xmlns="http://www.w3.org/2000/svg"
   xmlns:svg="http://www.w3.org/2000/svg">
  <sodipodi:namedview
     id="namedview17069"
     pagecolor="#ffffff"
     bordercolor="#000000"
     borderopacity="0.25"
     inkscape:showpageshadow="2"
     inkscape:pageopacity="0.0"
     inkscape:pagecheckerboard="0"
     inkscape:deskcolor="#d1d1d1"
     showgrid="false"
     inkscape:zoom="7.375"
     inkscape:cx="7.8644068"
     inkscape:cy="16.067797"
     inkscape:window-width="1920"
     inkscape:window-height="1002"
     inkscape:window-x="0"
     inkscape:window-y="0"
     inkscape:window-maximized="1"
     inkscape:current-layer="svg17067" />
  <defs
     id="defs3051">
    <style
       type="text/css"
       id="current-color-scheme">
      .ColorScheme-Text {
        color:#31363b;
      }
      .ColorScheme-Highlight {
        color:#3daee9;
      }
      </style>
  </defs>
  <path
     style="color:#3daee9;fill:#00171e;fill-opacity:1;stroke:none"
     d="m 2.0000001,3.0000002 v 6.9999997 h -1 V 29 H 12 13 31 V 7.9999999 H 30 V 5.0000002 H 16 l -2,-2 z"
     class="ColorScheme-Highlight"
     id="path4" />
  <path
     style="fill:#3daee9;fill-opacity:1;fill-rule:evenodd"
     d="M 2.0000001,3.0000002 V 9.9999999 H 11 l 2,-2 H 30 V 5.0000002 H 16 l -2,-2 z"
     id="path6" />
  <path
     style="fill:#ffffff;fill-opacity:0.2;fill-rule:evenodd"
     d="m 14,3.0000002 1,3 h 15 v -1 H 16 Z m -1,4.9999997 -2,2 H 1.0000001 V 11 H 12 Z"
     id="path8" />
  <path
     style="color:#31363b;fill-opacity:0.2;fill-rule:evenodd"
     d="m 13,7.9999999 -2,1 H 2.0000001 v 1 H 11 Z M 1.0000001,28 v 1 H 31 v -1 z"
     class="ColorScheme-Text"
     id="path10" />
  <path
     style="color:#31363b;fill:#ffffff;fill-opacity:1;stroke:none"
     d="m 11,12.5 c -0.554,0 -1,0.446 -1,1 v 10 c 0,0.554 0.446,1 1,1 h 10 c 0.554,0 1,-0.446 1,-1 v -10 c 0,-0.554 -0.446,-1 -1,-1 z m 0,1 h 10 v 10 H 11 Z m 1,1 v 1 h 2 v -1 z m 3,0.002 v 1 h 2 v -1 z m 3,0 v 1 h 2 v -1 z M 12,16.5 v 1 h 2 v -1 z m 3,0.002 v 1 h 2 v -1 z m 3,0 v 1 h 2 v -1 z M 12,18.5 v 1 h 2 v -1 z m 3,0.002 v 1 h 2 v -1 z m 3,0 v 1 h 2 v -1 z M 12,20.5 v 1 h 2 v -1 z m 3,0.002 v 1 h 2 v -1 z m 3,0 v 1 h 2 v -1 z"
     class="ColorScheme-Text"
     id="path17065-7" />
</svg>
