<?xml version="1.0" encoding="UTF-8" standalone="no"?>
<svg
   viewBox="0 0 32 32"
   version="1.1"
   id="svg3569"
   sodipodi:docname="folder-chart.svg"
   inkscape:version="1.2.2 (b0a8486541, 2022-12-01)"
   xmlns:inkscape="http://www.inkscape.org/namespaces/inkscape"
   xmlns:sodipodi="http://sodipodi.sourceforge.net/DTD/sodipodi-0.dtd"
   xmlns="http://www.w3.org/2000/svg"
   xmlns:svg="http://www.w3.org/2000/svg">
  <sodipodi:namedview
     id="namedview3571"
     pagecolor="#ffffff"
     bordercolor="#000000"
     borderopacity="0.25"
     inkscape:showpageshadow="2"
     inkscape:pageopacity="0.0"
     inkscape:pagecheckerboard="0"
     inkscape:deskcolor="#d1d1d1"
     showgrid="false"
     inkscape:zoom="7.375"
     inkscape:cx="9.6271186"
     inkscape:cy="16.067797"
     inkscape:window-width="1920"
     inkscape:window-height="1002"
     inkscape:window-x="0"
     inkscape:window-y="0"
     inkscape:window-maximized="1"
     inkscape:current-layer="svg3569" />
  <defs
     id="defs3051">
    <style
       type="text/css"
       id="current-color-scheme">
      .ColorScheme-Text {
        color:#31363b;
      }
      .ColorScheme-Highlight {
        color:#3daee9;
      }
      </style>
  </defs>
  <path
     style="color:#3daee9;fill:#00171e;fill-opacity:1;stroke:none"
     d="M 2,3.0000003 V 9.9999998 H 1 V 29 h 11 1 18 V 7.9999998 H 30 V 5.0000002 H 16 L 14,3.0000003 Z"
     class="ColorScheme-Highlight"
     id="path4" />
  <path
     style="fill:#3daee9;fill-opacity:1;fill-rule:evenodd"
     d="m 2,3.0000003 v 6.9999995 h 9 l 2,-2 H 30 V 5.0000002 H 16 L 14,3.0000003 Z"
     id="path6" />
  <path
     style="fill:#ffffff;fill-opacity:0.2;fill-rule:evenodd"
     d="m 14,3.0000003 1,2.9999999 h 15 v -1 H 16 Z m -1,4.9999995 -2,2 H 1 V 11 h 11 z"
     id="path8" />
  <path
     style="color:#31363b;fill-opacity:0.2;fill-rule:evenodd"
     d="m 13,7.9999998 -2,1 H 2 v 1 h 9 z M 1,28 v 1 h 30 v -1 z"
     class="ColorScheme-Text"
     id="path10" />
  <path
     style="color:#31363b;fill:#ffffff;fill-opacity:1;stroke:none"
     d="m 20,12.5 v 10 h 1 v -10 z m -6,3 v 7 h 1 v -7 z m 3,3 v 4 h 1 v -4 z m -6,2 v 2 h 1 v -2 z m -1,3 v 1 h 12 v -1 z"
     class="ColorScheme-Text"
     id="path3567-3" />
</svg>
