<?xml version="1.0" encoding="UTF-8" standalone="no"?>
<svg
   viewBox="0 0 32 32"
   version="1.1"
   id="svg11170"
   sodipodi:docname="folder-language.svg"
   inkscape:version="1.2.2 (b0a8486541, 2022-12-01)"
   xmlns:inkscape="http://www.inkscape.org/namespaces/inkscape"
   xmlns:sodipodi="http://sodipodi.sourceforge.net/DTD/sodipodi-0.dtd"
   xmlns="http://www.w3.org/2000/svg"
   xmlns:svg="http://www.w3.org/2000/svg">
  <sodipodi:namedview
     id="namedview11172"
     pagecolor="#ffffff"
     bordercolor="#000000"
     borderopacity="0.25"
     inkscape:showpageshadow="2"
     inkscape:pageopacity="0.0"
     inkscape:pagecheckerboard="0"
     inkscape:deskcolor="#d1d1d1"
     showgrid="false"
     inkscape:zoom="7.375"
     inkscape:cx="9.6271186"
     inkscape:cy="16.067797"
     inkscape:window-width="1920"
     inkscape:window-height="1002"
     inkscape:window-x="0"
     inkscape:window-y="0"
     inkscape:window-maximized="1"
     inkscape:current-layer="svg11170" />
  <defs
     id="defs3051">
    <style
       type="text/css"
       id="current-color-scheme">
      .ColorScheme-Text {
        color:#31363b;
      }
      .ColorScheme-Highlight {
        color:#3daee9;
      }
      </style>
  </defs>
  <path
     style="color:#3daee9;fill:#00171e;fill-opacity:1;stroke:none"
     d="M 2,2.9999998 V 10 H 1 v 19 h 11 1 18 V 7.9999998 h -1 v -3 H 16 l -2,-2 z"
     class="ColorScheme-Highlight"
     id="path4" />
  <path
     style="fill:#3daee9;fill-opacity:1;fill-rule:evenodd"
     d="M 2,2.9999998 V 10 h 9 l 2,-2.0000003 h 17 v -3 H 16 l -2,-2 z"
     id="path6" />
  <path
     style="fill:#ffffff;fill-opacity:0.2;fill-rule:evenodd"
     d="m 14,2.9999998 1,3 h 15 v -1 H 16 Z m -1,5 L 11,10 H 1 v 1 h 11 z"
     id="path8" />
  <path
     style="color:#31363b;fill-opacity:0.2;fill-rule:evenodd"
     d="m 13,7.9999998 -2,1 H 2 V 10 h 9 z M 1,28 v 1 h 30 v -1 z"
     class="ColorScheme-Text"
     id="path10" />
  <path
     style="color:#31363b;fill:#ffffff;fill-opacity:1;stroke:none"
     d="m 16.474,20.087 -1.385,-1.38 0.016,-0.016 c 0.949,-1.067 1.625,-2.388 2.024,-3.686 L 19,15 V 13.995 L 15,14 v -1 h -1 v 1 h -4 v 1 h 6.093 c -0.365,1.062 -0.944,2.163 -1.729,3.043 C 13.857,17.476 13.424,16.654 13.091,16 H 12 c 0.398,0.896 0.957,1.945 1.638,2.709 l -2.776,2.761 0.775,0.781 2.727,-2.75 1.696,1.71 z M 19.546,17.4 H 18.455 L 16,24 h 1.231625 L 18,22 h 2 l 0.909,2 H 22 Z M 18.234375,21 19.001,18.869 19.763875,21 Z"
     class="ColorScheme-Text"
     id="path11168-1" />
</svg>
