<?xml version="1.0" encoding="UTF-8" standalone="no"?>
<svg
   viewBox="0 0 32 32"
   version="1.1"
   id="svg7331"
   sodipodi:docname="folder-drawing.svg"
   inkscape:version="1.2.2 (b0a8486541, 2022-12-01)"
   xmlns:inkscape="http://www.inkscape.org/namespaces/inkscape"
   xmlns:sodipodi="http://sodipodi.sourceforge.net/DTD/sodipodi-0.dtd"
   xmlns="http://www.w3.org/2000/svg"
   xmlns:svg="http://www.w3.org/2000/svg">
  <sodipodi:namedview
     id="namedview7333"
     pagecolor="#ffffff"
     bordercolor="#000000"
     borderopacity="0.25"
     inkscape:showpageshadow="2"
     inkscape:pageopacity="0.0"
     inkscape:pagecheckerboard="0"
     inkscape:deskcolor="#d1d1d1"
     showgrid="false"
     inkscape:zoom="7.375"
     inkscape:cx="9.6271186"
     inkscape:cy="16.067797"
     inkscape:window-width="1920"
     inkscape:window-height="1002"
     inkscape:window-x="0"
     inkscape:window-y="0"
     inkscape:window-maximized="1"
     inkscape:current-layer="svg7331" />
  <defs
     id="defs3051">
    <style
       type="text/css"
       id="current-color-scheme">
      .ColorScheme-Text {
        color:#31363b;
      }
      .ColorScheme-Highlight {
        color:#3daee9;
      }
      </style>
  </defs>
  <path
     style="color:#3daee9;fill:#00171e;fill-opacity:1;stroke:none"
     d="M 2,3.0000001 V 10 H 1 v 19 h 11 1 18 V 8.0000004 H 30 V 5.0000001 H 16 l -2,-2 z"
     class="ColorScheme-Highlight"
     id="path4" />
  <path
     style="fill:#3daee9;fill-opacity:1;fill-rule:evenodd"
     d="M 2,3.0000001 V 10 h 9 L 13,8.0000004 H 30 V 5.0000001 H 16 l -2,-2 z"
     id="path6" />
  <path
     style="fill:#ffffff;fill-opacity:0.2;fill-rule:evenodd"
     d="m 14,3.0000001 1,3 h 15 v -1 H 16 Z M 13,8.0000004 11,10 H 1 v 1 h 11 z"
     id="path8" />
  <path
     style="color:#31363b;fill-opacity:0.2;fill-rule:evenodd"
     d="m 13,8.0000004 -2,1 H 2 V 10 h 9 z M 1,28 v 1 h 30 v -1 z"
     class="ColorScheme-Text"
     id="path10" />
  <path
     style="color:#31363b;fill:#ffffff;fill-opacity:1;stroke:none"
     d="m 12,12.507945 v 3 h 1 v 1.65 a 1.5,1.5 0 0 0 -1,1.41211 1.5,1.5 0 0 0 1,1.4 v 1.525 h -1 v 3 h 3 v -1.8 a 7,6 0 0 0 5,1.8 v -1 a 6,5 0 0 1 -5.8,-3.58711 1.5,1.5 0 0 0 0.8,-1.33869 1.5,1.5 0 0 0 -0.8,-1.36131 6,5 0 0 1 5.8,-3.7 v -1 a 7,6 0 0 0 -5,1.8 v -1.803 z m 1,1 h 1 v 1 h -1 z m 0,9 h 1 v 1 h -1 z"
     class="ColorScheme-Text"
     id="path7329-2" />
</svg>
