<?xml version="1.0" encoding="UTF-8" standalone="no"?>
<svg
   viewBox="0 0 32 32"
   version="1.1"
   id="svg12475"
   sodipodi:docname="folder-log.svg"
   inkscape:version="1.2.2 (b0a8486541, 2022-12-01)"
   xmlns:inkscape="http://www.inkscape.org/namespaces/inkscape"
   xmlns:sodipodi="http://sodipodi.sourceforge.net/DTD/sodipodi-0.dtd"
   xmlns="http://www.w3.org/2000/svg"
   xmlns:svg="http://www.w3.org/2000/svg"><sodipodi:namedview
   id="namedview12477"
   pagecolor="#ffffff"
   bordercolor="#000000"
   borderopacity="0.25"
   inkscape:showpageshadow="2"
   inkscape:pageopacity="0.0"
   inkscape:pagecheckerboard="0"
   inkscape:deskcolor="#d1d1d1"
   showgrid="false"
   showguides="false"
   inkscape:zoom="7.375"
   inkscape:cx="6.8474576"
   inkscape:cy="26.915254"
   inkscape:window-width="1920"
   inkscape:window-height="1002"
   inkscape:window-x="0"
   inkscape:window-y="0"
   inkscape:window-maximized="1"
   inkscape:current-layer="svg12475" />
<defs
   id="defs3051">
  <style
     type="text/css"
     id="current-color-scheme">
      .ColorScheme-Text {
        color:#31363b;
      }
      .ColorScheme-Highlight {
        color:#3daee9;
      }
      </style>
</defs>

     class=&quot;ColorScheme-Text&quot;
     /&gt;
<path
   style="color:#3daee9;fill:#00171e;fill-opacity:1;stroke:none"
   d="M 2,3.0000001 V 10 H 1 v 19 h 11 1 18 V 8.0000001 h -1 v -3 H 16 l -2,-2 z"
   class="ColorScheme-Highlight"
   id="path4" />
<path
   style="fill:#3daee9;fill-opacity:1;fill-rule:evenodd"
   d="M 2,3.0000001 V 10 h 9 l 2,-1.9999999 h 17 v -3 H 16 l -2,-2 z"
   id="path6" />
<path
   style="fill:#ffffff;fill-opacity:0.2;fill-rule:evenodd"
   d="m 14,3.0000001 1,3 h 15 v -1 H 16 Z m -1,5 L 11,10 H 1 v 1 h 11 z"
   id="path8" />
<path
   style="color:#31363b;fill-opacity:0.2;fill-rule:evenodd"
   d="m 13,8.0000001 -2,1 H 2 V 10 h 9 z M 1,28 v 1 h 30 v -1 z"
   class="ColorScheme-Text"
   id="path10" />
<path
   style="fill:#ffffff;fill-opacity:1;stroke:none"
   d="m 10,12.5 v 1 h 12 v -1 z m 0.5,2 c -0.277,0 -0.5,0.223 -0.5,0.5 0,0.277 0.223,0.5 0.5,0.5 0.277,0 0.5,-0.223 0.5,-0.5 0,-0.277 -0.223,-0.5 -0.5,-0.5 m 1.5,0 v 1 h 9 v -1 z m 0,2 v 1 h 4 v -1 z m -1.5,3 c -0.277,0 -0.5,0.223 -0.5,0.5 0,0.277 0.223,0.5 0.5,0.5 0.277,0 0.5,-0.223 0.5,-0.5 0,-0.277 -0.223,-0.5 -0.5,-0.5 m 1.5,0 v 1 h 9 v -1 z m 0,2 v 1 h 8 v -1 z m -2,2 v 1 h 12 v -1 z"
   id="path12473-2" />
</svg>
