<?xml version="1.0" encoding="UTF-8" standalone="no"?>
<svg
   viewBox="0 0 32 32"
   version="1.1"
   id="svg377"
   sodipodi:docname="folder-appimage.svg"
   inkscape:version="1.2.2 (b0a8486541, 2022-12-01)"
   xmlns:inkscape="http://www.inkscape.org/namespaces/inkscape"
   xmlns:sodipodi="http://sodipodi.sourceforge.net/DTD/sodipodi-0.dtd"
   xmlns="http://www.w3.org/2000/svg"
   xmlns:svg="http://www.w3.org/2000/svg">
  <sodipodi:namedview
     id="namedview379"
     pagecolor="#ffffff"
     bordercolor="#000000"
     borderopacity="0.25"
     inkscape:showpageshadow="2"
     inkscape:pageopacity="0.0"
     inkscape:pagecheckerboard="0"
     inkscape:deskcolor="#d1d1d1"
     showgrid="false"
     inkscape:zoom="7.375"
     inkscape:cx="9.6271186"
     inkscape:cy="16.067797"
     inkscape:window-width="1920"
     inkscape:window-height="1002"
     inkscape:window-x="0"
     inkscape:window-y="0"
     inkscape:window-maximized="1"
     inkscape:current-layer="svg377" />
  <defs
     id="defs3051">
    <style
       type="text/css"
       id="current-color-scheme">
      .ColorScheme-Text {
        color:#31363b;
      }
      .ColorScheme-Highlight {
        color:#3daee9;
      }
      </style>
  </defs>
  <path
     style="color:#3daee9;fill:#00171e;fill-opacity:1;stroke:none"
     d="M 2,3.0188446 V 10.018845 H 1 v 19 h 11 1 18 V 8.0188446 h -1 v -3 H 16 l -2,-2 z"
     class="ColorScheme-Highlight"
     id="path4" />
  <path
     style="fill:#3daee9;fill-opacity:1;fill-rule:evenodd"
     d="m 2,3.0188446 v 7.0000004 h 9 l 2,-2.0000004 h 17 v -3 H 16 l -2,-2 z"
     id="path6" />
  <path
     style="fill:#ffffff;fill-opacity:0.2;fill-rule:evenodd"
     d="m 14,3.0188446 1,3 h 15 v -1 H 16 Z m -1,5 -2,2.0000004 H 1 v 1 h 11 z"
     id="path8" />
  <path
     style="color:#31363b;fill-opacity:0.2;fill-rule:evenodd"
     d="M 13,8.0188446 11,9.0188448 H 2 v 1.0000002 h 9 z M 1,28.018845 v 1 h 30 v -1 z"
     class="ColorScheme-Text"
     id="path10" />
  <path
     style="color:#31363b;fill:#ffffff;fill-opacity:1;stroke:none"
     d="m 14.499048,13.508475 v 2 h -1 l 2.5,2.5 2.5,-2.5 h -1 v -2 z m 1,5 v 1.050781 c -0.312974,0.06458 -0.610665,0.18856 -0.876953,0.365235 l -0.744141,-0.744141 -0.707031,0.707031 0.744141,0.744141 c -0.175298,0.266583 -0.297948,0.564257 -0.361328,0.876953 h -1.054688 v 1 h 1.050781 c 0.06458,0.312974 0.18856,0.610665 0.365235,0.876953 l -0.744141,0.744141 0.707031,0.707031 0.744141,-0.744141 c 0.266583,0.175298 0.564257,0.297948 0.876953,0.361328 v 1.054688 h 1 v -1.050781 c 0.312974,-0.06458 0.610665,-0.18856 0.876953,-0.365235 l 0.744141,0.744141 0.707031,-0.707031 -0.744141,-0.744141 c 0.175298,-0.266583 0.297948,-0.564257 0.361328,-0.876953 h 1.054688 v -1 h -1.050781 c -0.06458,-0.312974 -0.18856,-0.610665 -0.365235,-0.876953 l 0.744141,-0.744141 -0.707031,-0.707031 -0.744141,0.744141 c -0.266583,-0.175298 -0.564257,-0.297948 -0.876953,-0.361328 v -1.054688 z m 0.5,2 c 0.405488,-1e-6 0.793703,0.164162 1.076172,0.455078 0.271799,0.279929 0.423829,0.654749 0.423828,1.044922 1e-6,0.405488 -0.164162,0.793703 -0.455078,1.076172 -0.279929,0.271799 -0.654749,0.423829 -1.044922,0.423828 -0.405488,1e-6 -0.793703,-0.164162 -1.076172,-0.455078 -0.271799,-0.279929 -0.423829,-0.654749 -0.423828,-1.044922 -1e-6,-0.405488 0.164162,-0.793703 0.455078,-1.076172 0.279929,-0.271799 0.654749,-0.423829 1.044922,-0.423828 z"
     class="ColorScheme-Text"
     id="path375-3" />
</svg>
