<?xml version="1.0" encoding="UTF-8" standalone="no"?>
<svg
   viewBox="0 0 32 32"
   version="1.1"
   id="svg6704"
   sodipodi:docname="folder-docker.svg"
   inkscape:version="1.2.2 (b0a8486541, 2022-12-01)"
   xmlns:inkscape="http://www.inkscape.org/namespaces/inkscape"
   xmlns:sodipodi="http://sodipodi.sourceforge.net/DTD/sodipodi-0.dtd"
   xmlns="http://www.w3.org/2000/svg"
   xmlns:svg="http://www.w3.org/2000/svg">
  <sodipodi:namedview
     id="namedview6706"
     pagecolor="#ffffff"
     bordercolor="#000000"
     borderopacity="0.25"
     inkscape:showpageshadow="2"
     inkscape:pageopacity="0.0"
     inkscape:pagecheckerboard="0"
     inkscape:deskcolor="#d1d1d1"
     showgrid="false"
     inkscape:zoom="7.375"
     inkscape:cx="9.6271186"
     inkscape:cy="16.067797"
     inkscape:window-width="1920"
     inkscape:window-height="1002"
     inkscape:window-x="0"
     inkscape:window-y="0"
     inkscape:window-maximized="1"
     inkscape:current-layer="svg6704" />
  <defs
     id="defs3051">
    <style
       type="text/css"
       id="current-color-scheme">
      .ColorScheme-Text {
        color:#31363b;
      }
      .ColorScheme-Highlight {
        color:#3daee9;
      }
      </style>
  </defs>
  <path
     style="color:#3daee9;fill:#00171e;fill-opacity:1;stroke:none"
     d="M 2,3.0000002 V 9.9999999 H 1 V 29 h 11 1 18 V 7.9999999 H 30 V 5.0000002 H 16 l -2,-2 z"
     class="ColorScheme-Highlight"
     id="path4" />
  <path
     style="fill:#3daee9;fill-opacity:1;fill-rule:evenodd"
     d="m 2,3.0000002 v 6.9999997 h 9 l 2,-2 H 30 V 5.0000002 H 16 l -2,-2 z"
     id="path6" />
  <path
     style="fill:#ffffff;fill-opacity:0.2;fill-rule:evenodd"
     d="m 14,3.0000002 1,3 h 15 v -1 H 16 Z m -1,4.9999997 -2,2 H 1 V 11 h 11 z"
     id="path8" />
  <path
     style="color:#31363b;fill-opacity:0.2;fill-rule:evenodd"
     d="m 13,7.9999999 -2,1 H 2 v 1 h 9 z M 1,28 v 1 h 30 v -1 z"
     class="ColorScheme-Text"
     id="path10" />
  <path
     style="color:#31363b;fill:#ffffff;fill-opacity:1;stroke:none"
     d="m 14.587891,14 v 1 h 1 v -1 z m 1.999999,0 v 1 h 1 v -1 z m 3.269531,1.271484 c -0.523935,0.359082 -0.764906,1.009234 -0.601562,1.623047 0.165157,0.613357 0.698743,1.056186 1.332031,1.105469 0.211634,0.598592 0.777207,0.999109 1.41211,1 0.634902,-8.91e-4 1.200476,-0.401408 1.412109,-1 C 23.200475,17.401408 22.634901,17.000891 22,17 c -0.302891,9.28e-4 -0.598403,0.09353 -0.847657,0.265625 0.101287,-0.285859 0.113532,-0.595705 0.03516,-0.888672 -0.164927,-0.612723 -0.697529,-1.055394 -1.330078,-1.105469 z M 20.58789,18 H 8.5878905 c 0,3.313709 2.6862905,5 6.0000005,5 3.313709,0 5.999999,-1.686291 5.999999,-5 z m -8.999999,-2 v 1 h 1 v -1 z m 2,0 v 1 h 1 v -1 z m 2,0 v 1 h 0.999999 v -1 z m 1.999999,0 v 1 h 1 v -1 z m -6.499999,3 c 0.276142,0 0.5,0.223858 0.5,0.5 0,0.276142 -0.223858,0.5 -0.5,0.5 -0.276142,0 -0.5,-0.223858 -0.5,-0.5 0,-0.276142 0.223858,-0.5 0.5,-0.5 z"
     class="ColorScheme-Text"
     id="path6702-1" />
</svg>
