<?xml version="1.0" encoding="UTF-8" standalone="no"?>
<svg
   viewBox="0 0 32 32"
   version="1.1"
   id="svg4823"
   sodipodi:docname="folder-database.svg"
   inkscape:version="1.2.2 (b0a8486541, 2022-12-01)"
   xmlns:inkscape="http://www.inkscape.org/namespaces/inkscape"
   xmlns:sodipodi="http://sodipodi.sourceforge.net/DTD/sodipodi-0.dtd"
   xmlns="http://www.w3.org/2000/svg"
   xmlns:svg="http://www.w3.org/2000/svg">
  <sodipodi:namedview
     id="namedview4825"
     pagecolor="#ffffff"
     bordercolor="#000000"
     borderopacity="0.25"
     inkscape:showpageshadow="2"
     inkscape:pageopacity="0.0"
     inkscape:pagecheckerboard="0"
     inkscape:deskcolor="#d1d1d1"
     showgrid="false"
     inkscape:zoom="7.375"
     inkscape:cx="9.6271186"
     inkscape:cy="16.067797"
     inkscape:window-width="1920"
     inkscape:window-height="1002"
     inkscape:window-x="0"
     inkscape:window-y="0"
     inkscape:window-maximized="1"
     inkscape:current-layer="svg4823" />
  <defs
     id="defs3051">
    <style
       type="text/css"
       id="current-color-scheme">
      .ColorScheme-Text {
        color:#31363b;
      }
      .ColorScheme-Highlight {
        color:#3daee9;
      }
      </style>
  </defs>
  <path
     style="color:#3daee9;fill:#00171e;fill-opacity:1;stroke:none"
     d="M 2,3.0000002 V 10 H 1 v 19 h 11 1 18 V 8.0000002 h -1 v -3 H 16 l -2,-2 z"
     class="ColorScheme-Highlight"
     id="path4" />
  <path
     style="fill:#3daee9;fill-opacity:1;fill-rule:evenodd"
     d="M 2,3.0000002 V 10 h 9 l 2,-1.9999998 h 17 v -3 H 16 l -2,-2 z"
     id="path6" />
  <path
     style="fill:#ffffff;fill-opacity:0.2;fill-rule:evenodd"
     d="m 14,3.0000002 1,3 h 15 v -1 H 16 Z m -1,5 L 11,10 H 1 v 1 h 11 z"
     id="path8" />
  <path
     style="color:#31363b;fill-opacity:0.2;fill-rule:evenodd"
     d="m 13,8.0000002 -2,1 H 2 V 10 h 9 z M 1,28 v 1 h 30 v -1 z"
     class="ColorScheme-Text"
     id="path10" />
  <path
     style="color:#31363b;fill:#ffffff;fill-opacity:1;stroke:none"
     d="m 16,12.5 a 6,2 0 0 0 -6,2 v 8 a 6,2 0 0 0 6,2 6,2 0 0 0 6,-2 v -8 a 6,2 0 0 0 -6,-2 m 0,1 a 5,1 0 0 1 5,1 5,1 0 0 1 -5,1 5,1 0 0 1 -5,-1 5,1 0 0 1 5,-1 m -5,2.10156 A 6,2 0 0 0 16,16.5 6,2 0 0 0 21,15.60352 v 2.896 a 5,1 0 0 1 -5,1 5,1 0 0 1 -5,-1 z m 0,4 A 6,2 0 0 0 16,20.5 6,2 0 0 0 21,19.60352 v 2.896 a 5,1 0 0 1 -5,1 5,1 0 0 1 -5,-1 z"
     class="ColorScheme-Text"
     id="path4821-6" />
</svg>
