<?xml version="1.0" encoding="UTF-8" standalone="no"?>
<svg
   viewBox="0 0 32 32"
   version="1.1"
   id="svg2942"
   sodipodi:docname="folder-calculate.svg"
   inkscape:version="1.2.2 (b0a8486541, 2022-12-01)"
   xmlns:inkscape="http://www.inkscape.org/namespaces/inkscape"
   xmlns:sodipodi="http://sodipodi.sourceforge.net/DTD/sodipodi-0.dtd"
   xmlns="http://www.w3.org/2000/svg"
   xmlns:svg="http://www.w3.org/2000/svg">
  <sodipodi:namedview
     id="namedview2944"
     pagecolor="#ffffff"
     bordercolor="#000000"
     borderopacity="0.25"
     inkscape:showpageshadow="2"
     inkscape:pageopacity="0.0"
     inkscape:pagecheckerboard="0"
     inkscape:deskcolor="#d1d1d1"
     showgrid="false"
     inkscape:zoom="7.375"
     inkscape:cx="54.372881"
     inkscape:cy="16.067797"
     inkscape:window-width="1920"
     inkscape:window-height="1002"
     inkscape:window-x="0"
     inkscape:window-y="0"
     inkscape:window-maximized="1"
     inkscape:current-layer="svg2942" />
  <defs
     id="defs3051">
    <style
       type="text/css"
       id="current-color-scheme">
      .ColorScheme-Text {
        color:#31363b;
      }
      .ColorScheme-Highlight {
        color:#3daee9;
      }
      </style>
  </defs>
  <path
     style="color:#3daee9;fill:#00171e;fill-opacity:1;stroke:none"
     d="m 1.9999999,3 v 7 H 0.99999988 V 29 H 12 13 31 V 8 H 30 V 5 H 16 L 14,3 Z"
     class="ColorScheme-Highlight"
     id="path4" />
  <path
     style="fill:#3daee9;fill-opacity:1;fill-rule:evenodd"
     d="m 1.9999999,3 v 7 H 11 L 13,8 H 30 V 5 H 16 L 14,3 Z"
     id="path6" />
  <path
     style="fill:#ffffff;fill-opacity:0.2;fill-rule:evenodd"
     d="m 14,3 1,3 H 30 V 5 H 16 Z m -1,5 -2,2 H 0.99999988 v 1 H 12 Z"
     id="path8" />
  <path
     style="color:#31363b;fill-opacity:0.2;fill-rule:evenodd"
     d="M 13,8 11,9 H 1.9999999 v 1 H 11 Z M 0.99999988,28 v 1 H 31 v -1 z"
     class="ColorScheme-Text"
     id="path10" />
  <path
     style="color:#31363b;fill:#ffffff;fill-opacity:1;stroke:none"
     d="m 21.9955,14.1535 -7,0.004 -2.441,6.691 -1.555,-2.695 H 9.9994999 v 1 H 10.4275 l 2.133,3.693 3.02,-7.693 h 6.42 z m -4,2 c -1.662,0 -3,1.338 -3,3 0,1.662 1.338,3 3,3 0.773,0 1.469,-0.298 2,-0.775 v 0.775 h 1 v -6 h -1 v 0.775 c -0.531,-0.477 -1.227,-0.775 -2,-0.775 m 0,1 c 1.108,0 2,0.892 2,2 0,1.108 -0.892,2 -2,2 -1.108,0 -2,-0.892 -2,-2 0,-1.108 0.892,-2 2,-2"
     class="ColorScheme-Text"
     id="path2940-5" />
</svg>
