<?xml version="1.0" encoding="UTF-8" standalone="no"?>
<svg
   viewBox="0 0 32 32"
   version="1.1"
   id="svg13252"
   sodipodi:docname="folder-mac.svg"
   inkscape:version="1.2.2 (b0a8486541, 2022-12-01)"
   xmlns:inkscape="http://www.inkscape.org/namespaces/inkscape"
   xmlns:sodipodi="http://sodipodi.sourceforge.net/DTD/sodipodi-0.dtd"
   xmlns="http://www.w3.org/2000/svg"
   xmlns:svg="http://www.w3.org/2000/svg">
  <sodipodi:namedview
     id="namedview13254"
     pagecolor="#ffffff"
     bordercolor="#000000"
     borderopacity="0.25"
     inkscape:showpageshadow="2"
     inkscape:pageopacity="0.0"
     inkscape:pagecheckerboard="0"
     inkscape:deskcolor="#d1d1d1"
     showgrid="false"
     inkscape:zoom="7.375"
     inkscape:cx="9.6271186"
     inkscape:cy="16.067797"
     inkscape:window-width="1920"
     inkscape:window-height="1002"
     inkscape:window-x="0"
     inkscape:window-y="0"
     inkscape:window-maximized="1"
     inkscape:current-layer="svg13252" />
  <defs
     id="defs3051">
    <style
       type="text/css"
       id="current-color-scheme">
      .ColorScheme-Text {
        color:#31363b;
      }
      .ColorScheme-Highlight {
        color:#3daee9;
      }
      </style>
  </defs>
  <path
     style="color:#3daee9;fill:#00171e;fill-opacity:1;stroke:none"
     d="M 2,2.9999999 V 10 H 1 v 19 h 11 1 18 V 7.9999999 h -1 v -3 H 16 l -2,-2 z"
     class="ColorScheme-Highlight"
     id="path4"
     inkscape:transform-center-y="-0.81960904"
     inkscape:transform-center-x="0.79311772" />
  <path
     style="fill:#3daee9;fill-opacity:1;fill-rule:evenodd"
     d="M 2,2.9999999 V 10 h 9 l 2,-2.0000001 h 17 v -3 H 16 l -2,-2 z"
     id="path6"
     inkscape:transform-center-y="-10.319609"
     inkscape:transform-center-x="0.79311772" />
  <path
     style="fill:#ffffff;fill-opacity:0.2;fill-rule:evenodd"
     d="m 14,2.9999999 1,3 h 15 v -1 H 16 Z m -1,5 L 11,10 H 1 v 1 h 11 z"
     id="path8"
     inkscape:transform-center-x="1.2931177"
     inkscape:transform-center-y="-9.819609" />
  <path
     style="color:#31363b;fill-opacity:0.2;fill-rule:evenodd"
     d="M 13,7.9999999 11,9.0000001 H 2 V 10 h 9 z M 1,28 v 1 h 30 v -1 z"
     class="ColorScheme-Text"
     id="path10"
     inkscape:transform-center-y="1.680391"
     inkscape:transform-center-x="0.79311772" />
  <path
     style="color:#31363b;fill:#ffffff;fill-opacity:1;stroke:none"
     d="M 10,13 V 24 H 22 V 13 Z m 1,2 h 10 v 8 H 11 Z m 2.799,1 1.713,2.721 L 13.418,22 h 1.184 l 1.502,-2.416 1.5,2.416 h 1.131 c 0.013,-0.01 0.026,-0.019 0.039,-0.029 L 16.717,18.721 18.414,16 h -1.211 l -1.1,1.857 -1.1,-1.857 z"
     class="ColorScheme-Text"
     id="path13250-5" />
</svg>
