<?xml version="1.0" encoding="UTF-8" standalone="no"?>
<svg
   viewBox="0 0 32 32"
   version="1.1"
   id="svg9916"
   sodipodi:docname="folder-git.svg"
   inkscape:version="1.2.2 (b0a8486541, 2022-12-01)"
   xmlns:inkscape="http://www.inkscape.org/namespaces/inkscape"
   xmlns:sodipodi="http://sodipodi.sourceforge.net/DTD/sodipodi-0.dtd"
   xmlns="http://www.w3.org/2000/svg"
   xmlns:svg="http://www.w3.org/2000/svg">
  <sodipodi:namedview
     id="namedview9918"
     pagecolor="#ffffff"
     bordercolor="#000000"
     borderopacity="0.25"
     inkscape:showpageshadow="2"
     inkscape:pageopacity="0.0"
     inkscape:pagecheckerboard="0"
     inkscape:deskcolor="#d1d1d1"
     showgrid="false"
     inkscape:zoom="7.375"
     inkscape:cx="9.6271186"
     inkscape:cy="16.067797"
     inkscape:window-width="1920"
     inkscape:window-height="1002"
     inkscape:window-x="0"
     inkscape:window-y="0"
     inkscape:window-maximized="1"
     inkscape:current-layer="svg9916" />
  <defs
     id="defs3051">
    <style
       type="text/css"
       id="current-color-scheme">
      .ColorScheme-Text {
        color:#31363b;
      }
      .ColorScheme-Highlight {
        color:#3daee9;
      }
      </style>
  </defs>
  <path
     style="color:#3daee9;fill:#00171e;fill-opacity:1;stroke:none"
     d="m 2,3 v 7 H 1 v 19 h 11 1 18 V 8 H 30 V 5 H 16 L 14,3 Z"
     class="ColorScheme-Highlight"
     id="path4" />
  <path
     style="fill:#3daee9;fill-opacity:1;fill-rule:evenodd"
     d="m 2,3 v 7 h 9 L 13,8 H 30 V 5 H 16 L 14,3 Z"
     id="path6" />
  <path
     style="fill:#ffffff;fill-opacity:0.2;fill-rule:evenodd"
     d="m 14,3 1,3 H 30 V 5 H 16 Z m -1,5 -2,2 H 1 v 1 h 11 z"
     id="path8" />
  <path
     style="color:#31363b;fill-opacity:0.2;fill-rule:evenodd"
     d="M 13,8 11,9 H 2 v 1 h 9 z M 1,28 v 1 h 30 v -1 z"
     class="ColorScheme-Text"
     id="path10" />
  <path
     style="color:#31363b;fill:#ffffff;fill-opacity:1;stroke:none"
     d="m 11.000569,12.5 c -1.1045704,0 -2.0000004,0.89543 -2.0000004,2 0.01132,0.703054 0.391006,1.347737 1.0000004,1.699219 v 4.5 C 9.3602466,21.068352 8.9756996,21.761316 9.0005686,22.5 c 0,1.10457 0.89543,2 2.0000004,2 1.104569,0 2,-0.895431 2,-2 -0.01132,-0.703054 -0.391005,-1.347737 -1,-1.699219 v -4.570312 c 0.618168,-0.356899 0.999268,-1.016671 1,-1.730469 0,-1.104569 -0.895431,-2 -2,-2 z m 2,2 3,2.099609 V 15.5 h 2 c 1.108,0 2,0.45656 2,2 v 3.269531 c -0.618168,0.356899 -0.999268,1.016671 -1,1.730469 0,1.104569 0.895431,2 2,2 1.104569,0 2,-0.895431 2,-2 -0.01132,-0.703054 -0.391005,-1.347737 -1,-1.699219 V 16.5 c 0,-1.7 -1.4,-2.967 -3,-3 h -3 v -1 z m -2,-1 c 0.552285,0 1,0.447715 1,1 0,0.552285 -0.447715,1 -1,1 -0.552285,0 -1,-0.447715 -1,-1 0,-0.552285 0.447715,-1 1,-1 z m 0,8 c 0.552285,0 1,0.447715 1,1 0,0.552285 -0.447715,1 -1,1 -0.552285,0 -1,-0.447715 -1,-1 0,-0.552285 0.447715,-1 1,-1 z m 10,0 c 0.552285,0 1,0.447715 1,1 0,0.552285 -0.447715,1 -1,1 -0.552285,0 -1,-0.447715 -1,-1 0,-0.552285 0.447715,-1 1,-1 z"
     class="ColorScheme-Text"
     id="path9914-2" />
</svg>
