<?xml version="1.0" encoding="UTF-8" standalone="no"?>
<svg
   viewBox="0 0 32 32"
   version="1.1"
   id="svg13932"
   sodipodi:docname="folder-notes.svg"
   inkscape:version="1.2.2 (b0a8486541, 2022-12-01)"
   xmlns:inkscape="http://www.inkscape.org/namespaces/inkscape"
   xmlns:sodipodi="http://sodipodi.sourceforge.net/DTD/sodipodi-0.dtd"
   xmlns="http://www.w3.org/2000/svg"
   xmlns:svg="http://www.w3.org/2000/svg">
  <sodipodi:namedview
     id="namedview13934"
     pagecolor="#ffffff"
     bordercolor="#000000"
     borderopacity="0.25"
     inkscape:showpageshadow="2"
     inkscape:pageopacity="0.0"
     inkscape:pagecheckerboard="0"
     inkscape:deskcolor="#d1d1d1"
     showgrid="false"
     inkscape:zoom="7.375"
     inkscape:cx="9.6271186"
     inkscape:cy="16.067797"
     inkscape:window-width="1920"
     inkscape:window-height="1002"
     inkscape:window-x="0"
     inkscape:window-y="0"
     inkscape:window-maximized="1"
     inkscape:current-layer="svg13932" />
  <defs
     id="defs3051">
    <style
       type="text/css"
       id="current-color-scheme">
      .ColorScheme-Text {
        color:#31363b;
      }
      .ColorScheme-Highlight {
        color:#3daee9;
      }
      </style>
  </defs>
  <path
     style="color:#3daee9;fill:#00171e;fill-opacity:1;stroke:none"
     d="m 2,3 v 7 H 1 v 19 h 11 1 18 V 8 H 30 V 5 H 16 L 14,3 Z"
     class="ColorScheme-Highlight"
     id="path4" />
  <path
     style="fill:#3daee9;fill-opacity:1;fill-rule:evenodd"
     d="m 2,3 v 7 h 9 L 13,8 H 30 V 5 H 16 L 14,3 Z"
     id="path6" />
  <path
     style="fill:#ffffff;fill-opacity:0.2;fill-rule:evenodd"
     d="m 14,3 1,3 H 30 V 5 H 16 Z m -1,5 -2,2 H 1 v 1 h 11 z"
     id="path8" />
  <path
     style="color:#31363b;fill-opacity:0.2;fill-rule:evenodd"
     d="M 13,8 11,9 H 2 v 1 h 9 z M 1,28 v 1 h 30 v -1 z"
     class="ColorScheme-Text"
     id="path10" />
  <path
     style="color:#31363b;fill:#ffffff;fill-opacity:1;stroke:none"
     d="m 11,12.5 c -0.554,0 -1,0.446 -1,1 v 10 c 0,0.554 0.446,1 1,1 h 8 c 0.554,0 1,-0.446 1,-1 h 1 c 0.554,0 1,-0.446 1,-1 v -2 C 22,20.314 21.936,20.149 21.848,20 21.936,19.851 22,19.686 22,19.5 v -2 C 22,17.314 21.936,17.149 21.848,17 21.936,16.851 22,16.686 22,16.5 v -2 c 0,-0.554 -0.446,-1 -1,-1 h -1 c 0,-0.554 -0.446,-1 -1,-1 z m 0,1 h 8 v 10 h -8 z m 1,1 v 2 h 6 v -2 z m 8,0 h 1 v 2 h -1 z m -8,3 v 1 h 6 v -1 z m 8,0 h 1 v 2 h -1 z m -8,2 v 1 h 6 v -1 z m 8,1 h 1 v 2 h -1 z m -8,1 v 1 h 6 v -1 z"
     class="ColorScheme-Text"
     id="path13930-9" />
</svg>
