<?xml version="1.0" encoding="UTF-8" standalone="no"?>
<svg
   viewBox="0 0 32 32"
   version="1.1"
   id="svg10543"
   sodipodi:docname="folder-godot.svg"
   inkscape:version="1.2.2 (b0a8486541, 2022-12-01)"
   xmlns:inkscape="http://www.inkscape.org/namespaces/inkscape"
   xmlns:sodipodi="http://sodipodi.sourceforge.net/DTD/sodipodi-0.dtd"
   xmlns="http://www.w3.org/2000/svg"
   xmlns:svg="http://www.w3.org/2000/svg">
  <sodipodi:namedview
     id="namedview10545"
     pagecolor="#ffffff"
     bordercolor="#000000"
     borderopacity="0.25"
     inkscape:showpageshadow="2"
     inkscape:pageopacity="0.0"
     inkscape:pagecheckerboard="0"
     inkscape:deskcolor="#d1d1d1"
     showgrid="false"
     inkscape:zoom="7.375"
     inkscape:cx="9.6271186"
     inkscape:cy="16.067797"
     inkscape:window-width="1920"
     inkscape:window-height="1002"
     inkscape:window-x="0"
     inkscape:window-y="0"
     inkscape:window-maximized="1"
     inkscape:current-layer="svg10543" />
  <defs
     id="defs3051">
    <style
       type="text/css"
       id="current-color-scheme">
      .ColorScheme-Text {
        color:#31363b;
      }
      .ColorScheme-Highlight {
        color:#3daee9;
      }
      </style>
  </defs>
  <path
     style="color:#3daee9;fill:#00171e;fill-opacity:1;stroke:none"
     d="m 2,3 v 7 H 1 v 19 h 11 1 18 V 8.0000001 H 30 V 5 H 16 L 14,3 Z"
     class="ColorScheme-Highlight"
     id="path4" />
  <path
     style="fill:#3daee9;fill-opacity:1;fill-rule:evenodd"
     d="m 2,3 v 7 h 9 L 13,8.0000001 H 30 V 5 H 16 L 14,3 Z"
     id="path6" />
  <path
     style="fill:#ffffff;fill-opacity:0.2;fill-rule:evenodd"
     d="m 14,3 1,3 H 30 V 5 H 16 Z M 13,8.0000001 11,10 H 1 v 1 h 11 z"
     id="path8" />
  <path
     style="color:#31363b;fill-opacity:0.2;fill-rule:evenodd"
     d="m 13,8.0000001 -2,1 H 2 V 10 h 9 z M 1,28 v 1 h 30 v -1 z"
     class="ColorScheme-Text"
     id="path10" />
  <path
     style="color:#31363b;fill:#ffffff;fill-opacity:1;stroke:none"
     d="m 14.279272,12.841797 c -0.548173,0.121864 -1.089261,0.290982 -1.597657,0.546875 0.01163,0.448916 0.03884,0.879492 0.09766,1.316406 -0.197437,0.126493 -0.40348,0.234735 -0.587891,0.382813 -0.187371,0.144149 -0.379166,0.282585 -0.548828,0.451171 -0.338948,-0.22419 -0.698784,-0.435121 -1.068359,-0.621093 -0.398373,0.428731 -0.7699365,0.892341 -1.0742195,1.410156 0.239134,0.375372 0.494882,0.752651 0.7324225,1.046875 v 2.556641 0.324218 0.296875 c 0.0058,5.1e-5 0.01182,-5.38e-4 0.01758,0 l 1.949218,0.1875 c 0.102057,0.0099 0.182347,0.09304 0.189453,0.195313 l 0.05859,0.859375 1.701172,0.121093 0.117187,-0.792968 c 0.01518,-0.102917 0.102931,-0.179688 0.207032,-0.179688 h 2.054688 c 0.104047,0 0.191851,0.07678 0.207031,0.179688 l 0.117186,0.792968 1.701172,-0.121093 0.05859,-0.859375 c 0.0072,-0.102272 0.0874,-0.185409 0.189453,-0.195313 l 1.947267,-0.1875 c 0.0058,-5.38e-4 0.01177,5.3e-5 0.01758,0 v -0.253906 h 0.002 V 17.375 c 0.274352,-0.345379 0.533382,-0.726347 0.732422,-1.046875 -0.304175,-0.517814 -0.677799,-0.981425 -1.076172,-1.410156 -0.369468,0.185972 -0.727457,0.396903 -1.066406,0.621093 -0.169607,-0.168586 -0.361188,-0.307023 -0.548828,-0.451171 -0.184357,-0.148078 -0.390831,-0.25632 -0.587891,-0.382813 0.05867,-0.436914 0.08793,-0.86749 0.09961,-1.316406 -0.508449,-0.255893 -1.051167,-0.425011 -1.59961,-0.546875 -0.218968,0.368014 -0.41935,0.766652 -0.59375,1.15625 -0.206802,-0.03456 -0.415005,-0.0483 -0.623046,-0.05078 -0.0015,0 -0.0026,0 -0.0039,0 -0.0013,0 -0.0026,0 -0.0039,0 -0.208417,0.0025 -0.41619,0.01622 -0.623047,0.05078 -0.174292,-0.389598 -0.374459,-0.788236 -0.59375,-1.15625 z m -1.541016,4.648437 c 0.648506,0 1.173828,0.525538 1.173828,1.173828 0,0.648722 -0.525322,1.173829 -1.173828,1.173829 -0.648184,0 -1.173828,-0.525107 -1.173828,-1.173829 0,-0.64829 0.525644,-1.173828 1.173828,-1.173828 z m 5.523437,0 c 0.648129,0 1.173828,0.525538 1.173828,1.173828 0,0.648722 -0.525699,1.173829 -1.173828,1.173829 -0.648614,0 -1.173828,-0.525107 -1.173828,-1.173829 0,-0.64829 0.525214,-1.173828 1.173828,-1.173828 z m -2.761718,0.6875 c 0.20874,0 0.378906,0.15428 0.378906,0.34375 v 1.080078 c 0,0.189632 -0.170166,0.34375 -0.378906,0.34375 -0.208741,0 -0.378906,-0.154118 -0.378906,-0.34375 v -1.080078 c 0,-0.18947 0.170165,-0.34375 0.378906,-0.34375 z m -5.269531,2.794922 c 8.06e-4,0.188287 0.002,0.394477 0.002,0.435547 0,1.850245 2.347547,2.739772 5.263672,2.75 h 0.0039 0.0039 c 2.916124,-0.01022 5.261719,-0.899755 5.261719,-2.75 0,-0.04183 0.003,-0.247153 0.0039,-0.435547 l -1.751953,0.169922 -0.06055,0.863281 c -0.0072,0.104209 -0.08915,0.187831 -0.193359,0.195313 L 16.6875,22.349609 c -0.0051,3.75e-4 -0.0087,0 -0.01367,0 -0.103132,0 -0.193752,-0.07612 -0.208984,-0.179687 L 16.347659,21.363281 H 14.6543 l -0.119141,0.806641 c -0.01598,0.108623 -0.11328,0.187706 -0.222656,0.179687 l -2.076172,-0.148437 c -0.104209,-0.0075 -0.186093,-0.0911 -0.193359,-0.195313 l -0.06055,-0.863281 z"
     class="ColorScheme-Text"
     id="path10541-6" />
</svg>
