<?xml version="1.0" encoding="UTF-8" standalone="no"?>
<svg
   viewBox="0 0 32 32"
   version="1.1"
   id="svg14559"
   sodipodi:docname="folder-paint.svg"
   inkscape:version="1.2.2 (b0a8486541, 2022-12-01)"
   xmlns:inkscape="http://www.inkscape.org/namespaces/inkscape"
   xmlns:sodipodi="http://sodipodi.sourceforge.net/DTD/sodipodi-0.dtd"
   xmlns="http://www.w3.org/2000/svg"
   xmlns:svg="http://www.w3.org/2000/svg">
  <sodipodi:namedview
     id="namedview14561"
     pagecolor="#ffffff"
     bordercolor="#000000"
     borderopacity="0.25"
     inkscape:showpageshadow="2"
     inkscape:pageopacity="0.0"
     inkscape:pagecheckerboard="0"
     inkscape:deskcolor="#d1d1d1"
     showgrid="false"
     inkscape:zoom="7.375"
     inkscape:cx="9.6271186"
     inkscape:cy="16.067797"
     inkscape:window-width="1920"
     inkscape:window-height="1002"
     inkscape:window-x="0"
     inkscape:window-y="0"
     inkscape:window-maximized="1"
     inkscape:current-layer="svg14559" />
  <defs
     id="defs3051">
    <style
       type="text/css"
       id="current-color-scheme">
      .ColorScheme-Text {
        color:#31363b;
      }
      .ColorScheme-Highlight {
        color:#3daee9;
      }
      </style>
  </defs>
  <path
     style="color:#3daee9;fill:#00171e;fill-opacity:1;stroke:none"
     d="m 2,3 v 7 H 1 v 19 h 11 1 18 V 8 H 30 V 5 H 16 L 14,3 Z"
     class="ColorScheme-Highlight"
     id="path4"
     inkscape:transform-center-x="19.531531"
     inkscape:transform-center-y="-2.8881257" />
  <path
     style="fill:#3daee9;fill-opacity:1;fill-rule:evenodd"
     d="m 2,3 v 7 h 9 L 13,8 H 30 V 5 H 16 L 14,3 Z"
     id="path6"
     inkscape:transform-center-x="19.531531"
     inkscape:transform-center-y="-12.388126" />
  <path
     style="fill:#ffffff;fill-opacity:0.2;fill-rule:evenodd"
     d="m 14,3 1,3 H 30 V 5 H 16 Z m -1,5 -2,2 H 1 v 1 h 11 z"
     id="path8"
     inkscape:transform-center-x="20.031531"
     inkscape:transform-center-y="-11.888126" />
  <path
     style="color:#31363b;fill-opacity:0.2;fill-rule:evenodd"
     d="M 13,8 11,9 H 2 v 1 h 9 z M 1,28 v 1 h 30 v -1 z"
     class="ColorScheme-Text"
     id="path10"
     inkscape:transform-center-x="19.531531"
     inkscape:transform-center-y="-0.38812566" />
  <path
     style="color:#31363b;fill:#ffffff;fill-opacity:1;stroke:none"
     d="m 21.905569,12.159842 c -0.929,0.081 -6.537109,5.96875 -6.537109,5.96875 l -2.273438,2.511719 c -0.286,-0.161 -1.105734,-0.149719 -1.427734,-0.01172 -0.78,0.334 -1.195469,0.809204 -1.605469,1.908204 -0.3440001,0.92 0.799437,2.551484 1.648438,2.271484 -0.427,-0.029 -0.713516,-0.586094 -0.478516,-0.996094 0.535,-0.936 3.013656,-0.9675 2.222656,-2.8125 l 2.453125,-2.333984 c 0,0 6.547359,-6.007328 6.068359,-6.486328 -0.015,-0.018 -0.03836,-0.01953 -0.06836,-0.01953 z m -1.033203,5.833985 c -0.279,-0.001 -0.807625,0.513844 -1.765625,1.964844 -0.954,1.583 -3.415578,2.70239 -3.267578,1.15039 0.035,-0.371 -0.912969,-0.230234 -1.792969,-0.240234 -0.02,2.691 -1.5325,1.991234 -2.4375,3.115234 -0.067,0.864 4.047875,1.412625 6.296875,-0.109375 2.671,-1.807 3.209,-4.286718 3.25,-5.136718 0,-0.430001 -0.0662,-0.743141 -0.283203,-0.744141 z m -3.507813,1.916015 c 0,0.146 -0.319328,0.05049 -0.486328,0.146485 -0.334,0.192 -0.513344,0.505265 -0.402344,0.697265 0.111001,0.192 0.470688,0.191047 0.804688,-0.002 0.334,-0.193 0.515297,-0.505265 0.404297,-0.697265 -0.056,-0.096 -0.174313,-0.144532 -0.320313,-0.144532 z"
     class="ColorScheme-Text"
     id="path14557-2" />
</svg>
