<?xml version="1.0" encoding="UTF-8" standalone="no"?>
<svg
   width="32"
   height="32"
   version="1.1"
   id="svg1"
   sodipodi:docname="klipper-symbolic.svg"
   inkscape:version="1.3.2 (091e20ef0f, 2023-11-25)"
   xmlns:inkscape="http://www.inkscape.org/namespaces/inkscape"
   xmlns:sodipodi="http://sodipodi.sourceforge.net/DTD/sodipodi-0.dtd"
   xmlns="http://www.w3.org/2000/svg"
   xmlns:svg="http://www.w3.org/2000/svg">
  <defs
     id="defs1" />
  <sodipodi:namedview
     id="namedview1"
     pagecolor="#ffffff"
     bordercolor="#999999"
     borderopacity="1"
     inkscape:showpageshadow="2"
     inkscape:pageopacity="0"
     inkscape:pagecheckerboard="0"
     inkscape:deskcolor="#d1d1d1"
     showgrid="true"
     inkscape:zoom="11.90625"
     inkscape:cx="13.354331"
     inkscape:cy="17.847769"
     inkscape:window-width="1920"
     inkscape:window-height="994"
     inkscape:window-x="0"
     inkscape:window-y="0"
     inkscape:window-maximized="1"
     inkscape:current-layer="svg1">
    <inkscape:grid
       id="grid1"
       units="px"
       originx="0"
       originy="0"
       spacingx="1"
       spacingy="1"
       empcolor="#0099e5"
       empopacity="0.30196078"
       color="#0099e5"
       opacity="0.14901961"
       empspacing="5"
       dotted="false"
       gridanglex="30"
       gridanglez="30"
       visible="true" />
  </sodipodi:namedview>
  <style
     type="text/css"
     id="current-color-scheme">.ColorScheme-Text{color:#31363b;}.ColorScheme-Background{color:#eff0f1;}.ColorScheme-Highlight{color:#3daee9;}.ColorScheme-ViewText{color:#31363b;}.ColorScheme-ViewBackground{color:#fcfcfc;}.ColorScheme-ViewHover{color:#93cee9;}.ColorScheme-ViewFocus{color:#3daee9;}.ColorScheme-ButtonText{color:#31363b;}.ColorScheme-ButtonBackground{color:#eff0f1;}.ColorScheme-ButtonHover{color:#93cee9;}.ColorScheme-ButtonFocus { color: #3daee9; } </style>
  <g
     id="klipper"
     transform="translate(2.89535e-08,1e-06)">
    <path
       id="rect4202"
       d="M 13,4.999999 13.000002,6 h -2 V 7 H 7.0551181 C 6.4934383,6.999999 6,7.5102853 6,7.999999 l 0,19 c 0,0.594654 0.5037072,1 0.9782716,1.000001 L 25.002999,28 C 25.515673,27.999999 26,27.501946 26,26.999999 l 0,-19 C 26,7.5140887 25.475163,6.999999 24.944882,7 h -3.94488 V 6 h -2 L 19,4.999999 C 19,4.4963726 18.644118,3.999999 18.024727,4 H 14.075322 C 13.454966,3.999999 13,4.4473527 13,4.999999 Z M 7.0000019,8 h 4.0000001 v 1.3 h 10 V 8 h 4 V 27 H 7.0000019 Z m 3.0000001,3 v 1 h 12 v -1 z m 0,3 v 1 h 12 v -1 z m 0,4 v 1 h 5 v -1 z m 0,3 v 1 h 5 v -1 z m 0,3 v 1 h 11 v -1 z"
       style="opacity:1;fill:currentColor;fill-opacity:1;stroke:none"
       inkscape:connector-curvature="0"
       sodipodi:nodetypes="ccccccccccccccccccccccccccccccccccccccccccccccccccccc"
       class="ColorScheme-Text" />
    <rect
       y="-1e-06"
       x="-2.8953547e-08"
       height="32"
       width="32.000004"
       id="rect4230"
       style="opacity:1;fill:none;fill-opacity:1;stroke:none" />
  </g>
</svg>
