<?xml version="1.0" encoding="UTF-8" standalone="no"?>
<svg
   width="24"
   height="24"
   viewBox="0 0 24 24"
   version="1.1"
   id="svg1"
   sodipodi:docname="preferences-desktop-display-randr-symbolic.svg"
   inkscape:version="1.3.2 (091e20ef0f, 2023-11-25)"
   xmlns:inkscape="http://www.inkscape.org/namespaces/inkscape"
   xmlns:sodipodi="http://sodipodi.sourceforge.net/DTD/sodipodi-0.dtd"
   xmlns="http://www.w3.org/2000/svg"
   xmlns:svg="http://www.w3.org/2000/svg">
  <defs
     id="defs1" />
  <sodipodi:namedview
     id="namedview1"
     pagecolor="#ffffff"
     bordercolor="#999999"
     borderopacity="1"
     inkscape:showpageshadow="2"
     inkscape:pageopacity="0"
     inkscape:pagecheckerboard="0"
     inkscape:deskcolor="#d1d1d1"
     inkscape:zoom="15.875"
     inkscape:cx="9.8897638"
     inkscape:cy="16.944882"
     inkscape:window-width="1920"
     inkscape:window-height="994"
     inkscape:window-x="0"
     inkscape:window-y="0"
     inkscape:window-maximized="1"
     inkscape:current-layer="svg1" />
  <style
     type="text/css"
     id="current-color-scheme">.ColorScheme-Text{color:#232629;}.ColorScheme-Background{color:#eff0f1;}.ColorScheme-ViewBackground{color:#fcfcfc;}.ColorScheme-ButtonFocus{color:#3daee9;}.ColorScheme-PositiveText{color:#27ae60;}.ColorScheme-NeutralText{color:#f67400;}.ColorScheme-NegativeText { color: #da4453; } </style>
  <g
     id="22-22-preferences-desktop-display-randr-7"
     transform="translate(1,1)">
    <rect
       id="rect3832-9"
       x="0"
       y="0"
       width="22"
       height="22"
       fill-opacity="0" />
    <path
       d="M 18.938038,3 H 3.0619629 C 2.4764682,3 2,3.4147327 2,4.0066846 V 15.768895 c 0,0.631234 0.3144613,1.231354 1.0619629,1.231354 h 5.8433416 c -0.1823293,0.597112 -0.6112433,1.342885 -1.4757976,1.342885 v 0.65715 h 7.1409871 v -0.65715 c -0.864555,0 -1.293469,-0.745773 -1.475798,-1.342885 h 5.779017 C 19.782127,17.000249 20,16.400129 20,15.768895 V 4.0734405 C 19.999999,3.4814886 19.523532,3 18.938038,3 Z M 19,15.502 C 19,15.60613 18.793341,16 18.374,16 H 3.562 C 3.1428946,16 3,15.606131 3,15.502 V 15 H 19 Z M 19,14 H 3 V 4.64 C 3,4.0333225 3.4227747,4 3.526,4 H 18.374 C 18.476997,4 19,3.9666546 19,4.64 Z"
       id="path2-3-3"
       style="fill:#d7f1f8;fill-opacity:1;stroke-width:0.233246"
       sodipodi:nodetypes="sssssccccccsssssscsccscccsssc" />
    <path
       sodipodi:nodetypes="cccc"
       inkscape:connector-curvature="0"
       id="path11753-6"
       style="color:#bebebe;fill:#00aaff;fill-opacity:1;stroke-width:0.543956"
       d="M 3.9285712,7.6667497 V 12.333499 H 8.4986419 Z" />
    <path
       sodipodi:nodetypes="cccc"
       inkscape:connector-curvature="0"
       id="path11753-3-7"
       style="color:#bebebe;fill:#00aaff;fill-opacity:1;stroke-width:0.543956"
       d="M 18.141498,9.6667854 V 5.0000356 h -4.570072 z" />
  </g>
</svg>
